{"glyphs":{"0":{"ha":833,"x_min":69,"x_max":764,"o":"m 417 -22 q 232 40 310 -22 q 112 217 154 101 q 69 492 69 333 q 112 767 69 650 q 233 946 154 883 q 417 1008 311 1008 q 601 946 522 1008 q 722 767 679 883 q 764 492 764 650 q 722 217 764 333 q 601 40 679 101 q 417 -22 524 -22 m 417 94 q 536 142 486 94 q 613 280 586 190 q 639 492 639 369 q 613 704 639 614 q 535 843 586 794 q 417 892 485 892 q 298 843 349 892 q 221 704 247 794 q 194 492 194 614 q 221 280 194 369 q 297 142 247 190 q 417 94 347 94 m 556 850 l 667 844 l 278 136 l 167 142 l 556 850 z "},"1":{"ha":833,"x_min":83,"x_max":750,"o":"m 394 731 l 136 731 l 136 833 l 269 833 q 355 849 322 833 q 402 897 388 864 q 417 986 417 931 l 514 986 l 514 0 l 394 0 l 394 731 m 83 114 l 750 114 l 750 0 l 83 0 l 83 114 z "},"2":{"ha":833,"x_min":69,"x_max":764,"o":"m 69 0 q 103 192 69 108 q 219 350 136 275 q 447 503 301 425 q 560 572 521 542 q 619 635 600 601 q 638 719 638 669 q 587 844 638 797 q 440 892 536 892 q 276 838 338 892 q 200 683 215 785 l 75 692 q 187 924 92 839 q 440 1008 282 1008 q 613 972 540 1008 q 724 872 686 936 q 763 722 763 807 q 738 592 763 646 q 655 492 713 539 q 492 389 597 444 q 292 248 363 321 q 217 117 221 175 l 764 117 l 764 0 l 69 0 z "},"3":{"ha":833,"x_min":69,"x_max":764,"o":"m 408 -22 q 164 53 251 -22 q 69 254 76 129 l 193 263 q 258 135 201 176 q 408 94 315 94 q 574 138 508 94 q 639 275 639 182 q 610 381 639 339 q 531 444 582 424 q 415 465 481 465 l 338 465 l 338 582 l 415 582 q 551 619 499 582 q 604 736 604 657 q 556 852 604 813 q 415 892 507 892 q 275 856 324 892 q 217 751 226 819 l 92 760 q 190 941 106 874 q 415 1008 275 1008 q 581 976 510 1008 q 691 883 653 943 q 729 742 729 822 q 672 594 729 650 q 501 517 614 538 l 501 542 q 693 455 622 526 q 764 275 764 383 q 718 115 764 182 q 592 13 672 49 q 408 -22 511 -22 z "},"4":{"ha":833,"x_min":56,"x_max":778,"o":"m 539 214 l 56 214 l 56 322 l 531 986 l 658 986 l 658 331 l 778 331 l 778 214 l 658 214 l 658 0 l 539 0 l 539 214 m 539 331 l 539 803 l 200 331 l 539 331 z "},"5":{"ha":833,"x_min":83,"x_max":750,"o":"m 414 -22 q 247 13 319 -22 q 133 110 175 47 q 83 254 90 172 l 208 263 q 272 138 218 181 q 414 94 326 94 q 568 154 511 94 q 625 317 625 214 q 569 481 625 421 q 417 542 514 542 q 304 513 357 542 q 228 432 251 483 l 100 432 l 165 986 l 690 986 l 690 869 l 275 869 l 231 506 l 208 528 q 302 622 239 589 q 433 656 365 656 q 599 612 526 656 q 710 491 671 568 q 750 317 750 414 q 707 141 750 218 q 588 21 664 64 q 414 -22 511 -22 z "},"6":{"ha":833,"x_min":69,"x_max":764,"o":"m 419 -22 q 161 92 253 -22 q 69 417 69 206 q 108 721 69 589 q 232 931 146 853 q 458 1008 318 1008 q 658 947 583 1008 q 764 775 733 885 l 639 764 q 578 859 621 826 q 458 892 536 892 q 317 845 376 892 q 226 705 258 799 q 192 472 194 611 l 167 478 q 265 610 190 557 q 442 664 340 664 q 610 622 538 664 q 724 504 683 581 q 764 328 764 428 q 721 142 764 221 q 599 20 678 63 q 419 -22 521 -22 m 422 94 q 580 157 521 94 q 639 328 639 219 q 583 490 639 429 q 433 550 526 550 q 314 523 367 550 q 231 445 261 496 q 200 328 200 394 q 227 207 200 260 q 305 124 254 154 q 422 94 356 94 z "},"7":{"ha":833,"x_min":83,"x_max":750,"o":"m 269 0 q 361 452 269 226 q 619 869 453 678 l 83 869 l 83 986 l 750 986 l 750 878 q 477 456 563 664 q 392 0 392 249 l 269 0 z "},"8":{"ha":833,"x_min":69,"x_max":764,"o":"m 417 -22 q 238 12 317 -22 q 115 112 160 46 q 69 271 69 178 q 132 447 69 376 q 303 543 194 518 l 306 515 q 167 594 217 539 q 117 738 117 649 q 155 876 117 814 q 262 973 193 938 q 417 1008 331 1008 q 572 973 503 1008 q 678 876 640 938 q 717 738 717 814 q 667 594 717 649 q 528 515 617 539 l 531 543 q 701 447 639 518 q 764 271 764 376 q 719 112 764 178 q 595 12 674 46 q 417 -22 517 -22 m 417 94 q 578 141 518 94 q 639 278 639 188 q 582 417 639 367 q 417 468 525 468 q 251 417 308 468 q 194 278 194 367 q 255 141 194 188 q 417 94 315 94 m 417 579 q 545 619 499 579 q 592 738 592 660 q 544 850 592 808 q 417 892 497 892 q 289 850 336 892 q 242 738 242 808 q 289 619 242 660 q 417 579 336 579 z "},"9":{"ha":833,"x_min":69,"x_max":764,"o":"m 414 1008 q 672 894 581 1008 q 764 569 764 781 q 726 265 764 397 q 601 56 688 133 q 375 -22 515 -22 q 175 40 250 -22 q 69 211 100 101 l 194 222 q 255 127 213 160 q 375 94 297 94 q 516 141 457 94 q 607 281 575 188 q 642 514 639 375 l 667 508 q 568 376 643 429 q 392 322 493 322 q 223 364 296 322 q 110 482 150 406 q 69 658 69 558 q 113 844 69 765 q 234 966 156 924 q 414 1008 313 1008 m 411 892 q 253 829 313 892 q 194 658 194 767 q 251 497 194 557 q 400 436 307 436 q 519 463 467 436 q 603 541 572 490 q 633 658 633 592 q 606 779 633 726 q 528 862 579 832 q 411 892 478 892 z "}," ":{"ha":833,"x_min":0,"x_max":0,"o":""},"!":{"ha":833,"x_min":333,"x_max":500,"o":"m 333 167 l 500 167 l 500 0 l 333 0 l 333 167 m 379 290 q 371 388 375 339 q 361 535 365 458 q 357 667 357 613 l 357 986 l 476 986 l 476 667 q 472 537 476 615 q 464 388 468 458 q 456 290 460 339 l 379 290 z "},"\"":{"ha":833,"x_min":238,"x_max":596,"o":"m 474 986 l 596 986 l 596 875 l 564 532 l 479 532 l 474 986 m 238 875 l 238 986 l 360 986 l 354 532 l 269 532 l 238 875 z "},"#":{"ha":833,"x_min":75,"x_max":758,"o":"m 596 986 l 696 986 l 513 0 l 413 0 l 596 986 m 92 371 l 703 371 l 686 274 l 75 274 l 92 371 m 322 986 l 422 986 l 239 0 l 139 0 l 322 986 m 147 708 l 758 708 l 742 611 l 131 611 l 147 708 z "},"$":{"ha":833,"x_min":65,"x_max":776,"o":"m 369 1118 l 472 1118 l 472 -126 l 369 -126 l 369 1118 m 436 -22 q 252 20 333 -22 q 122 139 171 63 q 65 315 74 215 l 190 324 q 233 199 200 250 q 317 121 265 147 q 439 94 369 94 q 555 112 507 94 q 627 163 603 129 q 651 244 651 197 q 629 328 651 294 q 548 393 607 363 q 375 456 489 424 q 208 521 269 486 q 117 605 146 556 q 89 728 89 654 q 128 874 89 810 q 242 973 168 938 q 417 1008 317 1008 q 588 968 515 1008 q 704 857 661 928 q 758 694 747 786 l 633 686 q 598 794 625 747 q 525 866 571 840 q 414 892 479 892 q 268 848 322 892 q 214 733 214 804 q 234 657 214 686 q 303 606 254 628 q 450 556 353 583 q 642 480 572 521 q 744 382 713 439 q 776 242 776 325 q 733 105 776 165 q 613 11 690 44 q 436 -22 536 -22 z "},"%":{"ha":833,"x_min":18,"x_max":815,"o":"m 651 1008 l 783 1008 l 158 -17 l 26 -17 l 651 1008 m 643 0 q 549 31 589 0 q 490 117 510 63 q 469 240 469 172 q 490 363 469 308 q 549 448 510 417 q 643 479 589 479 q 736 448 697 479 q 795 363 775 417 q 815 240 815 308 q 795 117 815 172 q 736 31 775 63 q 643 0 697 0 m 643 106 q 694 141 675 106 q 713 240 713 176 q 694 339 713 304 q 643 374 675 374 q 592 340 610 374 q 575 240 575 306 q 592 140 575 175 q 643 106 610 106 m 190 508 q 97 540 136 508 q 38 625 58 571 q 18 747 18 679 q 38 870 18 815 q 97 956 58 925 q 190 988 136 988 q 284 956 244 988 q 344 870 324 925 q 364 747 364 815 q 344 625 364 679 q 284 540 324 571 q 190 508 244 508 m 190 614 q 242 649 224 614 q 260 747 260 683 q 242 847 260 813 q 190 882 224 882 q 140 847 158 882 q 122 747 122 811 q 140 649 122 683 q 190 614 158 614 z "},"&":{"ha":833,"x_min":42,"x_max":819,"o":"m 390 -17 q 208 15 286 -17 q 85 110 129 47 q 42 261 42 172 q 64 377 42 331 q 121 456 86 424 q 235 546 156 488 q 182 628 203 588 q 151 706 161 668 q 142 781 142 744 q 176 904 142 850 q 267 986 211 958 q 385 1008 322 1014 q 506 961 453 1001 q 582 858 560 921 q 582 728 604 796 q 517 619 564 672 q 400 521 471 565 l 628 231 q 662 322 651 264 q 668 442 672 381 l 790 431 q 766 271 790 349 q 701 143 742 193 l 819 0 l 678 0 l 628 63 q 524 3 586 24 q 390 -17 463 -17 m 390 92 q 483 107 442 92 q 547 150 525 122 l 307 454 q 203 367 243 411 q 163 261 163 322 q 190 172 163 210 q 269 113 218 133 q 390 92 321 92 m 331 610 q 438 685 399 640 q 476 776 476 731 q 450 857 476 825 q 378 892 424 889 q 294 860 328 894 q 261 776 260 826 q 278 701 261 742 q 331 610 294 660 z "},"'":{"ha":833,"x_min":356,"x_max":478,"o":"m 356 881 l 356 986 l 478 986 l 478 881 l 458 532 l 375 532 l 356 881 z "},"(":{"ha":833,"x_min":232,"x_max":624,"o":"m 524 -125 q 292 261 351 50 q 292 683 232 472 q 524 1069 351 894 l 624 1069 q 413 680 467 888 q 413 265 360 472 q 624 -125 467 57 l 524 -125 z "},")":{"ha":833,"x_min":210,"x_max":601,"o":"m 210 -125 q 420 265 367 57 q 420 680 474 472 q 210 1069 367 888 l 310 1069 q 542 683 482 894 q 542 261 601 472 q 310 -125 482 50 l 210 -125 z "},"*":{"ha":833,"x_min":181,"x_max":653,"o":"m 253 578 l 346 719 l 181 719 l 181 808 l 346 808 l 253 950 l 325 997 l 417 849 l 510 997 l 582 950 l 488 808 l 653 808 l 653 719 l 488 719 l 582 578 l 510 531 l 417 678 l 325 531 l 253 578 z "},"+":{"ha":833,"x_min":86,"x_max":747,"o":"m 363 754 l 471 754 l 471 93 l 363 93 l 363 754 m 86 478 l 747 478 l 747 369 l 86 369 l 86 478 z "},",":{"ha":833,"x_min":333,"x_max":500,"o":"m 408 0 l 333 0 l 333 167 l 500 167 l 500 19 l 413 -217 l 343 -217 l 408 0 z "},"-":{"ha":833,"x_min":208,"x_max":625,"o":"m 208 458 l 625 458 l 625 350 l 208 350 l 208 458 z "},".":{"ha":833,"x_min":333,"x_max":500,"o":"m 333 167 l 500 167 l 500 0 l 333 0 l 333 167 z "},"/":{"ha":833,"x_min":150,"x_max":683,"o":"m 572 1042 l 683 1042 l 261 -153 l 150 -153 l 572 1042 z "},":":{"ha":833,"x_min":333,"x_max":500,"o":"m 333 167 l 500 167 l 500 0 l 333 0 l 333 167 m 333 703 l 500 703 l 500 536 l 333 536 l 333 703 z "},";":{"ha":833,"x_min":333,"x_max":500,"o":"m 333 703 l 500 703 l 500 536 l 333 536 l 333 703 m 408 0 l 333 0 l 333 167 l 500 167 l 500 19 l 413 -217 l 343 -217 l 408 0 z "},"<":{"ha":833,"x_min":100,"x_max":732,"o":"m 100 356 l 100 503 l 732 785 l 732 665 l 186 421 l 186 438 l 732 193 l 732 74 l 100 356 z "},"=":{"ha":833,"x_min":111,"x_max":722,"o":"m 111 628 l 722 628 l 722 519 l 111 519 l 111 628 m 111 321 l 722 321 l 722 213 l 111 213 l 111 321 z "},">":{"ha":833,"x_min":101,"x_max":733,"o":"m 101 193 l 647 438 l 647 421 l 101 665 l 101 785 l 733 503 l 733 356 l 101 74 l 101 193 z "},"?":{"ha":833,"x_min":93,"x_max":740,"o":"m 329 167 l 496 167 l 496 0 l 329 0 l 329 167 m 353 279 q 384 437 353 378 q 488 542 415 496 q 569 601 543 575 q 606 653 596 626 q 615 725 615 681 q 567 845 615 799 q 438 892 519 892 q 283 840 336 892 q 218 686 229 788 l 93 694 q 197 922 106 835 q 438 1008 289 1008 q 595 972 526 1008 q 702 872 664 936 q 740 725 740 807 q 722 625 740 668 q 667 547 704 582 q 568 469 631 511 q 492 393 513 433 q 472 279 472 353 l 353 279 z "},"@":{"ha":833,"x_min":31,"x_max":803,"o":"m 599 -40 q 489 -83 543 -69 q 381 -97 435 -97 q 203 -40 282 -97 q 77 125 124 17 q 31 382 31 233 q 80 673 31 535 q 228 899 129 811 q 467 986 326 986 q 642 923 565 986 q 760 747 718 860 q 803 489 803 633 q 778 299 803 385 q 708 163 753 213 q 610 114 664 114 q 530 150 564 114 q 486 253 496 186 l 500 253 q 442 150 481 188 q 349 113 403 113 q 236 176 279 113 q 193 342 193 239 q 217 500 193 418 q 290 638 242 582 q 407 693 339 693 q 465 678 440 693 q 503 638 490 664 q 515 581 517 613 l 501 565 l 511 681 l 613 681 l 588 361 q 590 242 581 281 q 624 203 599 203 q 680 276 658 203 q 701 482 701 350 q 672 692 701 600 q 588 834 642 783 q 464 885 535 885 q 281 812 356 885 q 169 624 206 739 q 132 383 132 508 q 164 173 132 260 q 253 42 196 86 q 385 -1 311 -1 q 557 50 465 -1 l 599 -40 m 381 200 q 447 248 422 200 q 483 358 472 296 q 493 464 493 419 q 474 576 493 535 q 419 617 454 617 q 354 572 381 617 q 315 466 328 526 q 303 358 303 406 q 324 243 303 286 q 381 200 344 200 z "},"A":{"ha":833,"x_min":36,"x_max":797,"o":"m 336 986 l 497 986 l 797 0 l 675 0 l 417 878 l 158 0 l 36 0 l 336 986 m 229 389 l 604 389 l 646 275 l 188 275 l 229 389 z "},"B":{"ha":833,"x_min":125,"x_max":772,"o":"m 125 986 l 403 986 q 647 915 563 986 q 731 717 731 844 q 701 607 731 656 q 619 531 672 558 q 500 503 567 503 l 500 511 q 699 447 626 511 q 772 275 772 383 q 683 74 772 147 q 438 0 593 0 l 125 0 l 125 986 m 439 114 q 594 156 540 114 q 647 275 647 199 q 594 400 647 356 q 439 444 540 444 l 244 444 l 244 114 l 439 114 m 408 558 q 557 599 508 558 q 606 714 606 639 q 557 831 606 790 q 408 872 508 872 l 244 872 l 244 558 l 408 558 z "},"C":{"ha":833,"x_min":53,"x_max":772,"o":"m 419 -22 q 220 40 303 -22 q 95 218 138 103 q 53 492 53 333 q 95 767 53 651 q 220 946 138 883 q 419 1008 303 1008 q 642 923 550 1008 q 764 685 733 838 l 636 676 q 556 836 613 781 q 419 892 499 892 q 288 845 342 892 q 206 709 233 799 q 178 492 178 619 q 206 276 178 365 q 288 141 233 188 q 419 94 342 94 q 566 156 507 94 q 646 332 625 217 l 772 325 q 651 70 744 163 q 419 -22 558 -22 z "},"D":{"ha":833,"x_min":125,"x_max":781,"o":"m 125 986 l 358 986 q 581 928 486 986 q 728 759 676 871 q 781 492 781 647 q 728 225 781 336 q 581 57 676 114 q 358 0 486 0 l 125 0 l 125 986 m 351 114 q 576 210 497 114 q 656 492 656 307 q 576 775 656 678 q 351 872 497 872 l 244 872 l 244 114 l 351 114 z "},"E":{"ha":833,"x_min":125,"x_max":736,"o":"m 125 986 l 725 986 l 725 872 l 244 872 l 244 553 l 708 553 l 708 439 l 244 439 l 244 114 l 736 114 l 736 0 l 125 0 l 125 986 z "},"F":{"ha":833,"x_min":139,"x_max":750,"o":"m 139 986 l 750 986 l 750 872 l 197 872 l 258 931 l 258 478 l 197 539 l 725 539 l 725 425 l 197 425 l 258 486 l 258 0 l 139 0 l 139 986 z "},"G":{"ha":833,"x_min":53,"x_max":769,"o":"m 414 -22 q 226 37 308 -22 q 99 211 144 96 q 53 492 53 326 q 97 767 53 650 q 223 946 140 883 q 419 1008 306 1008 q 642 922 551 1008 q 765 692 732 836 l 640 683 q 560 835 615 779 q 419 892 504 892 q 289 845 343 892 q 206 709 235 799 q 178 492 178 619 q 207 276 178 365 q 292 141 236 188 q 425 94 347 94 q 544 132 492 94 q 626 235 596 169 q 658 383 656 301 l 422 383 l 422 497 l 769 497 l 769 0 l 658 0 l 653 233 l 692 219 q 592 41 658 104 q 414 -22 525 -22 z "},"H":{"ha":833,"x_min":94,"x_max":739,"o":"m 94 986 l 214 986 l 214 507 l 153 553 l 681 553 l 619 507 l 619 986 l 739 986 l 739 0 l 619 0 l 619 485 l 681 439 l 153 439 l 214 485 l 214 0 l 94 0 l 94 986 z "},"I":{"ha":833,"x_min":111,"x_max":722,"o":"m 111 114 l 357 114 l 357 872 l 111 872 l 111 986 l 722 986 l 722 872 l 476 872 l 476 114 l 722 114 l 722 0 l 111 0 l 111 114 z "},"J":{"ha":833,"x_min":56,"x_max":708,"o":"m 382 -22 q 212 20 285 -22 q 99 140 139 63 q 56 319 58 217 l 172 331 q 228 152 176 210 q 382 94 279 94 q 538 154 486 94 q 589 331 589 214 l 589 986 l 708 986 l 708 331 q 620 72 708 167 q 382 -22 532 -22 z "},"K":{"ha":833,"x_min":83,"x_max":778,"o":"m 83 986 l 203 986 l 203 550 l 603 986 l 750 986 l 375 572 l 778 0 l 631 0 l 292 489 l 203 394 l 203 0 l 83 0 l 83 986 z "},"L":{"ha":833,"x_min":139,"x_max":750,"o":"m 139 986 l 258 986 l 258 56 l 199 114 l 750 114 l 750 0 l 139 0 l 139 986 z "},"M":{"ha":833,"x_min":83,"x_max":750,"o":"m 192 875 l 203 875 l 203 0 l 83 0 l 83 986 l 264 986 l 444 175 l 389 175 l 569 986 l 750 986 l 750 0 l 631 0 l 631 875 l 642 875 l 469 111 l 364 111 l 192 875 z "},"N":{"ha":833,"x_min":97,"x_max":736,"o":"m 97 986 l 264 986 l 617 158 l 617 986 l 736 986 l 736 0 l 569 0 l 217 828 l 217 0 l 97 0 l 97 986 z "},"O":{"ha":833,"x_min":53,"x_max":781,"o":"m 417 -22 q 219 38 300 -22 q 95 213 138 97 q 53 492 53 328 q 95 773 53 657 q 219 949 138 889 q 417 1008 300 1008 q 615 949 533 1008 q 738 773 696 889 q 781 492 781 657 q 738 213 781 328 q 615 38 696 97 q 417 -22 533 -22 m 417 94 q 547 140 493 94 q 628 275 600 186 q 656 492 656 364 q 628 709 656 619 q 547 845 600 799 q 417 892 493 892 q 287 845 340 892 q 206 709 233 799 q 178 492 178 619 q 206 275 178 364 q 287 140 233 186 q 417 94 340 94 z "},"P":{"ha":833,"x_min":125,"x_max":764,"o":"m 125 986 l 425 986 q 604 951 528 986 q 722 848 681 915 q 764 688 764 781 q 722 527 764 594 q 604 424 681 460 q 425 389 528 389 l 244 389 l 244 0 l 125 0 l 125 986 m 411 503 q 583 550 526 503 q 639 688 639 597 q 583 825 639 778 q 411 872 526 872 l 244 872 l 244 503 l 411 503 z "},"Q":{"ha":833,"x_min":53,"x_max":781,"o":"m 361 289 l 494 289 l 717 -97 l 583 -97 l 361 289 m 417 -22 q 219 38 300 -22 q 95 213 138 97 q 53 492 53 328 q 95 773 53 657 q 219 949 138 889 q 417 1008 300 1008 q 615 949 533 1008 q 738 773 696 889 q 781 492 781 657 q 738 213 781 328 q 615 38 696 97 q 417 -22 533 -22 m 417 94 q 547 140 493 94 q 628 275 600 186 q 656 492 656 364 q 628 709 656 619 q 547 845 600 799 q 417 892 493 892 q 287 845 340 892 q 206 709 233 799 q 178 492 178 619 q 206 275 178 364 q 287 140 233 186 q 417 94 340 94 z "},"R":{"ha":833,"x_min":97,"x_max":742,"o":"m 97 986 l 397 986 q 643 908 553 986 q 733 692 733 829 q 702 570 733 625 q 622 483 671 515 q 518 447 572 451 l 511 467 q 662 419 615 461 q 717 283 708 378 l 742 0 l 621 0 l 597 268 q 550 369 590 338 q 422 400 510 400 l 217 400 l 217 0 l 97 0 l 97 986 m 397 514 q 553 560 499 514 q 608 692 608 607 q 553 825 608 778 q 397 872 499 872 l 217 872 l 217 514 l 397 514 z "},"S":{"ha":833,"x_min":61,"x_max":772,"o":"m 432 -22 q 248 20 329 -22 q 118 139 167 63 q 61 315 69 215 l 186 324 q 228 199 196 250 q 313 121 261 147 q 435 94 365 94 q 551 112 503 94 q 623 163 599 129 q 647 244 647 197 q 625 328 647 294 q 544 393 603 363 q 371 456 485 424 q 203 521 265 486 q 113 605 142 556 q 85 728 85 654 q 124 874 85 810 q 238 973 164 938 q 413 1008 313 1008 q 584 968 511 1008 q 700 857 657 928 q 754 694 743 786 l 629 686 q 594 794 621 747 q 521 866 567 840 q 410 892 475 892 q 264 848 318 892 q 210 733 210 804 q 230 657 210 686 q 299 606 250 628 q 446 556 349 583 q 638 480 568 521 q 740 382 708 439 q 772 242 772 325 q 729 105 772 165 q 609 11 686 44 q 432 -22 532 -22 z "},"T":{"ha":833,"x_min":56,"x_max":778,"o":"m 357 872 l 56 872 l 56 986 l 778 986 l 778 872 l 476 872 l 476 0 l 357 0 l 357 872 z "},"U":{"ha":833,"x_min":83,"x_max":750,"o":"m 417 -22 q 172 76 261 -22 q 83 344 83 175 l 83 986 l 203 986 l 203 344 q 258 159 203 224 q 417 94 313 94 q 576 159 521 94 q 631 344 631 224 l 631 986 l 750 986 l 750 344 q 661 76 750 175 q 417 -22 572 -22 z "},"V":{"ha":833,"x_min":33,"x_max":800,"o":"m 33 986 l 161 986 l 433 78 l 400 78 l 672 986 l 800 986 l 494 0 l 339 0 l 33 986 z "},"W":{"ha":833,"x_min":56,"x_max":778,"o":"m 56 986 l 181 986 l 258 69 l 244 69 l 356 875 l 478 875 l 589 69 l 575 69 l 653 986 l 778 986 l 683 0 l 503 0 l 397 778 l 436 778 l 331 0 l 150 0 l 56 986 z "},"X":{"ha":833,"x_min":69,"x_max":764,"o":"m 342 496 l 75 986 l 214 986 l 418 588 l 622 986 l 758 986 l 492 494 l 764 0 l 625 0 l 415 404 l 206 0 l 69 0 l 342 496 z "},"Y":{"ha":833,"x_min":61,"x_max":772,"o":"m 358 403 l 61 986 l 197 986 l 417 542 l 636 986 l 772 986 l 478 403 l 478 0 l 358 0 l 358 403 z "},"Z":{"ha":833,"x_min":69,"x_max":764,"o":"m 69 119 l 619 872 l 94 872 l 94 986 l 753 986 l 753 867 l 203 114 l 764 114 l 764 0 l 69 0 l 69 119 z "},"[":{"ha":833,"x_min":235,"x_max":636,"o":"m 235 -125 l 235 1069 l 636 1069 l 636 961 l 346 961 l 346 -17 l 636 -17 l 636 -125 l 235 -125 z "},"\\":{"ha":833,"x_min":150,"x_max":683,"o":"m 572 -153 l 150 1042 l 261 1042 l 683 -153 l 572 -153 z "},"]":{"ha":833,"x_min":197,"x_max":599,"o":"m 197 -17 l 488 -17 l 488 961 l 197 961 l 197 1069 l 599 1069 l 599 -125 l 197 -125 l 197 -17 z "},"^":{"ha":833,"x_min":160,"x_max":674,"o":"m 343 986 l 490 986 l 674 463 l 557 463 l 408 900 l 425 900 l 276 463 l 160 463 l 343 986 z "},"_":{"ha":833,"x_min":111,"x_max":722,"o":"m 111 0 l 722 0 l 722 -108 l 111 -108 l 111 0 z "},"`":{"ha":833,"x_min":306,"x_max":528,"o":"m 306 1014 l 436 1014 l 528 836 l 431 836 l 306 1014 z "},"a":{"ha":833,"x_min":75,"x_max":764,"o":"m 319 -17 q 194 8 250 -17 q 107 79 139 33 q 75 183 75 125 q 131 329 75 276 q 308 406 186 382 l 556 456 q 514 595 556 549 q 392 642 472 642 q 273 608 317 642 q 213 510 229 575 l 89 519 q 190 690 110 626 q 392 753 269 753 q 599 673 525 753 q 672 453 672 593 l 672 147 q 683 113 672 122 q 717 103 693 103 l 764 103 l 764 0 q 703 -3 742 -3 q 593 33 629 -3 q 556 150 557 69 l 578 150 q 490 31 564 78 q 319 -17 415 -17 m 331 86 q 455 112 404 86 q 531 183 506 138 q 556 292 556 229 l 556 356 l 331 311 q 227 269 257 297 q 197 194 197 242 q 233 115 197 143 q 331 86 268 86 z "},"b":{"ha":833,"x_min":111,"x_max":764,"o":"m 449 -17 q 313 17 372 -17 q 221 111 253 50 l 217 0 l 111 0 l 111 986 l 228 986 l 228 633 q 317 718 257 683 q 449 753 376 753 q 616 706 544 753 q 726 572 688 658 q 764 368 764 485 q 726 165 764 251 q 616 31 688 78 q 449 -17 544 -17 m 442 94 q 588 168 535 94 q 642 368 642 242 q 589 569 642 496 q 444 642 536 642 q 328 609 376 642 q 253 515 279 576 q 228 368 228 453 q 253 223 228 285 q 327 128 279 161 q 442 94 375 94 z "},"c":{"ha":833,"x_min":97,"x_max":750,"o":"m 436 -17 q 258 31 335 -17 q 139 165 181 78 q 97 368 97 253 q 139 571 97 483 q 258 706 181 658 q 436 753 335 753 q 582 723 518 753 q 688 636 646 693 q 744 497 729 579 l 622 489 q 556 601 606 561 q 436 642 507 642 q 277 569 335 642 q 219 368 219 496 q 277 167 219 240 q 436 94 335 94 q 560 138 510 94 q 628 261 611 181 l 750 253 q 642 56 726 129 q 436 -17 558 -17 z "},"d":{"ha":833,"x_min":69,"x_max":722,"o":"m 385 -17 q 217 31 289 -17 q 108 165 146 78 q 69 368 69 251 q 108 572 69 485 q 217 706 146 658 q 385 753 289 753 q 517 718 457 753 q 606 633 576 683 l 606 986 l 722 986 l 722 0 l 617 0 l 613 111 q 521 17 581 50 q 385 -17 461 -17 m 392 94 q 506 128 458 94 q 580 223 554 161 q 606 368 606 285 q 580 515 606 453 q 506 609 554 576 q 389 642 457 642 q 244 569 297 642 q 192 368 192 496 q 245 168 192 242 q 392 94 299 94 z "},"e":{"ha":833,"x_min":92,"x_max":750,"o":"m 429 -17 q 250 31 326 -17 q 133 165 174 78 q 92 368 92 251 q 133 571 92 483 q 249 706 174 658 q 424 753 324 753 q 594 708 519 753 q 709 575 668 663 q 750 367 750 488 l 750 332 l 214 332 q 276 155 219 215 q 429 94 332 94 q 547 127 500 94 q 613 218 593 160 l 738 208 q 626 45 708 107 q 429 -17 543 -17 m 622 435 q 561 590 614 538 q 424 642 508 642 q 283 589 338 642 q 214 435 228 536 l 622 435 z "},"f":{"ha":833,"x_min":97,"x_max":736,"o":"m 322 783 q 374 934 322 882 q 528 986 425 986 l 736 986 l 736 883 l 528 883 q 462 857 485 883 q 439 783 439 831 l 439 0 l 322 0 l 322 783 m 97 736 l 722 736 l 722 633 l 97 633 l 97 736 z "},"g":{"ha":833,"x_min":83,"x_max":736,"o":"m 413 -225 q 270 -199 335 -225 q 163 -124 206 -172 q 104 -11 119 -75 l 226 -3 q 288 -86 244 -58 q 413 -114 331 -114 q 567 -74 514 -114 q 619 47 619 -33 l 619 167 q 534 74 592 108 q 404 39 476 39 q 238 84 311 39 q 124 210 165 129 q 83 396 83 292 q 124 581 83 500 q 235 708 164 663 q 399 753 307 753 q 538 717 476 753 q 625 619 600 681 l 625 736 l 736 736 l 736 50 q 650 -152 736 -79 q 413 -225 564 -225 m 410 150 q 519 180 472 150 q 593 265 567 210 q 619 396 619 321 q 595 526 621 471 q 522 612 569 582 q 410 642 474 642 q 260 576 314 642 q 206 396 206 510 q 260 216 206 282 q 410 150 315 150 z "},"h":{"ha":833,"x_min":139,"x_max":722,"o":"m 139 986 l 256 986 l 256 574 l 242 576 q 324 709 261 665 q 476 753 386 753 q 658 676 593 753 q 722 474 722 600 l 722 0 l 606 0 l 606 440 q 567 598 606 546 q 451 650 529 650 q 308 594 361 650 q 256 439 256 539 l 256 0 l 139 0 l 139 986 z "},"i":{"ha":833,"x_min":111,"x_max":778,"o":"m 407 736 l 524 736 l 524 0 l 407 0 l 407 736 m 111 103 l 778 103 l 778 0 l 111 0 l 111 103 m 125 736 l 524 736 l 524 633 l 125 633 l 125 736 m 396 988 l 518 988 l 518 851 l 396 851 l 396 988 z "},"j":{"ha":833,"x_min":153,"x_max":611,"o":"m 153 -106 l 413 -106 q 472 -76 450 -106 q 494 0 494 -46 l 494 736 l 611 736 l 611 0 q 563 -152 611 -96 q 425 -208 515 -208 l 153 -208 l 153 -106 m 167 736 l 561 736 l 561 633 l 167 633 l 167 736 m 489 988 l 611 988 l 611 851 l 489 851 l 489 988 z "},"k":{"ha":833,"x_min":125,"x_max":769,"o":"m 125 986 l 242 986 l 242 340 l 600 736 l 756 736 l 465 424 l 769 0 l 628 0 l 386 344 l 242 192 l 242 0 l 125 0 l 125 986 z "},"l":{"ha":833,"x_min":111,"x_max":778,"o":"m 407 789 q 382 858 407 833 q 313 883 357 883 l 139 883 l 139 986 l 318 986 q 472 934 419 986 q 524 781 524 882 l 524 0 l 407 0 l 407 789 m 111 103 l 778 103 l 778 0 l 111 0 l 111 103 z "},"m":{"ha":833,"x_min":56,"x_max":778,"o":"m 56 736 l 163 736 l 167 572 l 153 575 q 207 705 165 657 q 311 753 249 753 q 411 706 375 753 q 456 567 447 658 l 442 567 q 498 703 454 653 q 608 753 542 753 q 738 690 697 753 q 778 486 778 628 l 778 0 l 661 0 l 661 472 q 640 609 661 568 q 575 650 619 650 q 522 631 544 650 q 488 571 500 611 q 475 469 475 531 l 475 0 l 358 0 l 358 472 q 338 608 358 567 q 272 650 318 650 q 219 631 242 650 q 185 571 197 611 q 172 469 172 531 l 172 0 l 56 0 l 56 736 z "},"n":{"ha":833,"x_min":133,"x_max":717,"o":"m 133 736 l 240 736 l 244 549 l 231 561 q 315 704 250 656 q 469 753 379 753 q 653 675 590 753 q 717 474 717 597 l 717 0 l 600 0 l 600 440 q 563 597 600 544 q 444 650 526 650 q 303 595 357 650 q 250 440 250 540 l 250 0 l 133 0 l 133 736 z "},"o":{"ha":833,"x_min":81,"x_max":753,"o":"m 417 -17 q 240 31 315 -17 q 122 165 164 78 q 81 368 81 251 q 122 572 81 485 q 240 706 164 658 q 417 753 315 753 q 593 706 517 753 q 711 572 669 658 q 753 368 753 485 q 711 165 753 251 q 593 31 669 78 q 417 -17 517 -17 m 417 94 q 574 167 518 94 q 631 368 631 240 q 574 569 631 496 q 417 642 518 642 q 259 569 315 642 q 203 368 203 497 q 259 167 203 239 q 417 94 315 94 z "},"p":{"ha":833,"x_min":111,"x_max":764,"o":"m 111 736 l 219 736 l 222 569 l 206 578 q 297 708 232 663 q 447 753 361 753 q 624 701 553 753 q 729 561 694 649 q 764 368 764 474 q 729 175 764 263 q 624 35 694 88 q 447 -17 553 -17 q 341 3 390 -17 q 258 58 292 22 q 211 139 224 93 l 228 158 l 228 -208 l 111 -208 l 111 736 m 436 94 q 587 167 532 94 q 642 368 642 239 q 587 569 642 497 q 436 642 532 642 q 325 610 372 642 q 253 518 278 579 q 228 368 228 457 q 253 218 228 279 q 324 126 278 157 q 436 94 371 94 z "},"q":{"ha":833,"x_min":69,"x_max":722,"o":"m 606 -208 l 606 158 l 622 139 q 576 58 610 93 q 492 3 542 22 q 386 -17 443 -17 q 210 35 281 -17 q 104 175 139 88 q 69 368 69 263 q 104 561 69 474 q 210 701 139 649 q 386 753 281 753 q 537 708 472 753 q 628 578 601 663 l 611 569 l 614 736 l 722 736 l 722 -208 l 606 -208 m 397 94 q 509 126 463 94 q 581 218 556 157 q 606 368 606 279 q 581 518 606 457 q 508 610 556 579 q 397 642 461 642 q 247 569 301 642 q 192 368 192 497 q 247 167 192 239 q 397 94 301 94 z "},"r":{"ha":833,"x_min":125,"x_max":750,"o":"m 317 736 l 414 736 l 425 550 l 414 553 q 474 691 428 646 q 599 736 519 736 l 750 736 l 750 631 l 600 631 q 508 609 546 631 q 452 546 471 588 q 433 444 433 504 l 433 0 l 317 0 l 317 736 m 125 103 l 667 103 l 667 0 l 125 0 l 125 103 m 125 736 l 381 736 l 381 633 l 125 633 l 125 736 z "},"s":{"ha":833,"x_min":111,"x_max":722,"o":"m 431 -17 q 267 16 338 -17 q 157 105 197 49 q 111 232 117 161 l 233 240 q 294 133 244 171 q 431 94 344 94 q 558 119 514 94 q 603 192 603 143 q 588 245 603 225 q 531 280 572 265 q 408 308 490 294 q 242 356 303 326 q 156 426 182 385 q 131 531 131 468 q 163 645 131 594 q 259 724 196 696 q 410 753 322 753 q 560 722 497 753 q 660 637 624 690 q 708 517 697 583 l 586 508 q 527 606 574 569 q 408 642 481 642 q 290 611 331 642 q 250 531 250 581 q 268 472 250 493 q 324 437 286 450 q 433 411 363 424 q 610 365 547 393 q 697 297 672 338 q 722 192 722 256 q 640 40 722 96 q 431 -17 558 -17 z "},"t":{"ha":833,"x_min":69,"x_max":722,"o":"m 525 0 q 365 50 418 0 q 313 203 313 100 l 313 931 l 429 931 l 429 203 q 453 127 429 151 q 525 103 476 103 l 722 103 l 722 0 l 525 0 m 69 736 l 722 736 l 722 633 l 69 633 l 69 736 z "},"u":{"ha":833,"x_min":125,"x_max":700,"o":"m 365 -17 q 190 58 256 -17 q 125 263 125 132 l 125 736 l 242 736 l 242 294 q 280 137 242 188 q 397 86 318 86 q 533 142 483 86 q 583 297 583 199 l 583 736 l 700 736 l 700 0 l 589 0 l 589 182 l 607 172 q 522 33 585 82 q 365 -17 460 -17 z "},"v":{"ha":833,"x_min":75,"x_max":758,"o":"m 75 736 l 203 736 l 417 119 l 631 736 l 758 736 l 490 0 l 343 0 l 75 736 z "},"w":{"ha":833,"x_min":28,"x_max":806,"o":"m 28 736 l 156 736 l 249 122 l 354 633 l 479 633 l 585 122 l 678 736 l 806 736 l 661 0 l 514 0 l 417 458 l 319 0 l 174 0 l 28 736 z "},"x":{"ha":833,"x_min":75,"x_max":758,"o":"m 346 378 l 89 736 l 225 736 l 418 458 l 607 736 l 746 736 l 490 375 l 758 0 l 622 0 l 418 297 l 214 0 l 75 0 l 346 378 z "},"y":{"ha":833,"x_min":75,"x_max":764,"o":"m 192 -106 l 276 -106 q 333 -94 314 -106 q 363 -56 351 -82 l 389 14 l 349 14 l 75 736 l 203 736 l 426 122 l 636 736 l 764 736 l 465 -93 q 403 -181 444 -153 q 288 -208 361 -208 l 192 -208 l 192 -106 z "},"z":{"ha":833,"x_min":114,"x_max":719,"o":"m 114 117 l 581 633 l 128 633 l 128 736 l 708 736 l 708 619 l 242 103 l 719 103 l 719 0 l 114 0 l 114 117 z "},"{":{"ha":833,"x_min":132,"x_max":686,"o":"m 608 -132 q 479 -101 536 -132 q 391 -17 422 -71 q 360 107 360 38 l 360 222 q 337 332 360 290 q 265 393 314 374 q 132 411 215 413 l 132 526 q 265 544 215 525 q 337 606 314 564 q 360 715 360 647 l 360 831 q 391 954 360 900 q 479 1039 422 1008 q 608 1069 536 1069 l 686 1069 l 686 961 q 519 936 567 965 q 471 833 471 907 l 471 706 q 424 549 471 613 q 301 471 376 486 l 301 469 q 424 390 378 454 q 471 232 471 326 l 471 104 q 519 3 471 32 q 686 -24 567 -26 l 686 -132 l 608 -132 z "},"|":{"ha":833,"x_min":360,"x_max":474,"o":"m 360 1069 l 474 1069 l 474 -125 l 360 -125 l 360 1069 z "},"}":{"ha":833,"x_min":147,"x_max":701,"o":"m 147 -132 l 147 -24 q 315 3 267 -26 q 363 104 363 32 l 363 232 q 409 390 363 326 q 532 469 456 454 l 532 471 q 410 549 457 486 q 363 706 363 613 l 363 833 q 315 936 363 907 q 147 961 267 965 l 147 1069 l 225 1069 q 354 1039 297 1069 q 442 954 411 1008 q 474 831 474 900 l 474 715 q 497 606 474 647 q 569 544 519 564 q 701 526 618 525 l 701 411 q 569 393 618 413 q 497 332 519 374 q 474 222 474 290 l 474 107 q 442 -17 474 38 q 354 -101 411 -71 q 225 -132 297 -132 l 147 -132 z "},"~":{"ha":833,"x_min":108,"x_max":724,"o":"m 108 328 q 154 514 108 431 q 301 597 200 597 q 388 572 357 597 q 449 501 418 547 q 488 451 472 467 q 531 436 504 436 q 588 479 567 436 q 608 597 608 522 l 724 597 q 678 411 724 494 q 531 328 632 328 q 436 354 468 328 q 375 428 404 381 q 340 474 354 460 q 301 489 325 489 q 244 446 265 489 q 224 328 224 403 l 108 328 z "}," ":{"ha":833,"x_min":0,"x_max":0,"o":""},"¡":{"ha":833,"x_min":333,"x_max":500,"o":"m 500 761 l 500 594 l 333 594 l 333 761 l 500 761 m 456 471 q 464 374 460 422 q 472 225 468 303 q 476 94 476 147 l 476 -225 l 357 -225 l 357 94 q 361 226 357 149 q 371 374 365 303 q 379 471 375 422 l 456 471 z "},"¢":{"ha":833,"x_min":97,"x_max":750,"o":"m 408 874 l 513 874 l 425 -126 l 321 -126 l 408 874 m 436 -17 q 258 31 335 -17 q 139 165 181 78 q 97 368 97 253 q 139 571 97 483 q 258 706 181 658 q 436 753 335 753 q 582 723 518 753 q 688 636 646 693 q 744 497 729 579 l 622 489 q 556 601 606 561 q 436 642 507 642 q 277 569 335 642 q 219 368 219 496 q 277 167 219 240 q 436 94 335 94 q 560 138 510 94 q 628 261 611 181 l 750 253 q 642 56 726 129 q 436 -17 558 -17 z "},"£":{"ha":833,"x_min":65,"x_max":772,"o":"m 67 121 q 186 234 146 168 q 226 386 226 300 q 226 403 226 394 q 225 422 225 415 q 224 440 225 428 l 65 440 l 65 543 l 200 543 l 192 571 q 167 660 175 619 q 160 735 160 700 q 199 874 160 811 q 305 972 238 936 q 453 1008 372 1008 q 615 976 547 1008 q 722 891 683 943 q 772 778 761 839 l 635 768 q 569 859 617 826 q 458 892 521 892 q 372 869 413 892 q 308 806 332 846 q 283 715 283 765 q 285 683 283 700 q 292 647 288 667 q 321 543 300 610 l 567 543 l 567 440 l 343 440 q 334 310 350 372 q 277 199 318 249 q 172 121 236 150 l 757 121 l 757 4 l 67 0 l 67 121 z "},"¤":{"ha":833,"x_min":78,"x_max":754,"o":"m 415 135 q 276 172 340 135 q 175 274 213 210 q 138 413 138 338 q 175 551 138 488 q 276 653 213 615 q 415 690 340 690 q 554 653 490 690 q 656 551 618 615 q 693 413 693 488 q 656 274 693 338 q 554 172 618 210 q 415 135 490 135 m 78 147 l 253 324 l 326 250 l 150 75 l 78 147 m 415 236 q 503 260 463 236 q 567 324 543 283 q 592 413 592 365 q 567 501 592 460 q 503 565 543 542 q 415 589 463 589 q 327 565 368 589 q 263 501 286 542 q 239 413 239 460 q 263 324 239 365 q 327 260 286 283 q 415 236 368 236 m 78 679 l 150 751 l 326 576 l 253 503 l 78 679 m 506 250 l 579 324 l 754 147 l 682 75 l 506 250 m 506 576 l 682 751 l 754 679 l 579 503 l 506 576 z "},"¥":{"ha":833,"x_min":61,"x_max":772,"o":"m 358 403 l 61 986 l 197 986 l 417 542 l 636 986 l 772 986 l 478 403 l 478 0 l 358 0 l 358 403 m 131 307 l 706 307 l 706 199 l 131 199 l 131 307 m 131 507 l 706 507 l 706 399 l 131 399 l 131 507 z "},"¦":{"ha":833,"x_min":363,"x_max":471,"o":"m 363 986 l 471 986 l 471 493 l 363 493 l 363 986 m 363 285 l 471 285 l 471 -208 l 363 -208 l 363 285 z "},"§":{"ha":833,"x_min":111,"x_max":722,"o":"m 431 -151 q 276 -119 347 -151 q 162 -31 206 -87 q 111 97 118 25 l 233 106 q 297 -1 243 39 q 431 -40 351 -40 q 550 -12 504 -40 q 596 63 596 15 q 553 135 596 104 q 413 190 510 165 q 249 242 310 214 q 162 308 189 271 q 135 399 135 346 q 167 502 135 457 q 267 576 200 547 q 171 641 203 604 q 139 728 139 678 q 177 845 139 796 q 280 920 215 894 q 424 946 344 946 q 551 917 486 946 q 663 835 615 889 q 719 710 710 782 l 600 701 q 540 799 589 764 q 410 835 490 835 q 334 822 368 835 q 281 788 300 810 q 261 738 261 765 q 276 689 261 708 q 329 653 292 669 q 438 618 367 636 q 608 561 547 592 q 696 488 669 531 q 722 381 722 446 q 692 291 722 329 q 604 229 663 253 q 693 156 668 199 q 718 53 718 113 q 677 -58 718 -12 q 570 -128 636 -104 q 431 -151 504 -151 m 433 292 q 554 318 508 292 q 600 390 600 344 q 539 477 600 449 q 406 506 478 506 q 299 478 342 506 q 257 410 257 451 q 299 332 257 363 q 433 292 340 301 z "},"¨":{"ha":833,"x_min":222,"x_max":611,"o":"z "},"©":{"ha":833,"x_min":6,"x_max":826,"o":"m 415 -17 q 203 49 296 -17 q 58 231 110 114 q 6 496 6 347 q 58 761 6 644 q 203 943 110 878 q 415 1008 296 1008 q 628 943 535 1008 q 774 761 722 878 q 826 496 826 644 q 774 231 826 347 q 628 49 722 114 q 415 -17 535 -17 m 415 79 q 583 130 511 79 q 693 275 654 181 q 732 496 732 369 q 693 717 732 624 q 583 862 654 811 q 415 913 511 913 q 248 862 319 913 q 138 717 176 811 q 100 496 100 624 q 138 275 100 369 q 248 130 176 181 q 415 79 319 79 m 425 181 q 247 266 314 181 q 181 494 181 351 q 211 660 181 589 q 297 771 242 732 q 425 810 351 810 q 528 784 479 810 q 608 710 576 758 q 647 600 640 663 l 551 593 q 509 683 543 651 q 425 714 475 714 q 314 658 351 714 q 276 494 276 601 q 314 333 276 389 q 425 276 351 276 q 511 310 476 276 q 556 408 546 344 l 651 401 q 575 241 639 301 q 425 181 511 181 z "},"ª":{"ha":833,"x_min":199,"x_max":635,"o":"m 354 513 q 244 549 289 513 q 199 643 199 585 q 235 731 199 696 q 339 779 272 765 l 483 808 q 462 881 483 857 q 399 906 440 906 q 337 888 360 906 q 306 838 314 871 l 207 844 q 270 953 219 913 q 399 993 321 993 q 533 943 486 993 q 581 803 581 893 l 581 636 q 588 613 581 619 q 610 606 594 606 l 635 606 l 635 522 q 593 519 621 519 q 518 544 544 519 q 490 621 492 569 l 503 621 q 454 543 496 574 q 354 513 413 513 m 367 594 q 452 623 421 594 q 483 700 483 651 l 483 733 l 364 710 q 316 689 332 703 q 300 650 300 675 q 317 609 300 624 q 367 594 335 594 z "},"«":{"ha":833,"x_min":110,"x_max":724,"o":"m 300 106 l 110 332 l 110 435 l 300 661 l 443 661 l 207 383 l 443 106 l 300 106 m 581 106 l 390 332 l 390 435 l 581 661 l 724 661 l 488 383 l 724 106 l 581 106 z "},"¬":{"ha":833,"x_min":125,"x_max":668,"o":"m 560 369 l 125 369 l 125 478 l 668 478 l 668 132 l 560 132 l 560 369 z "},"®":{"ha":833,"x_min":67,"x_max":767,"o":"m 417 306 q 241 353 321 306 q 114 481 161 400 q 67 658 67 563 q 114 833 67 753 q 241 961 161 914 q 417 1008 321 1008 q 592 961 513 1008 q 719 833 672 914 q 767 658 767 753 q 719 481 767 563 q 592 353 672 400 q 417 306 513 306 m 417 385 q 553 422 490 385 q 652 522 615 458 q 689 658 689 585 q 652 794 689 732 q 553 892 615 856 q 417 929 490 929 q 281 892 343 929 q 181 794 218 856 q 144 658 144 732 q 181 522 144 585 q 281 422 218 458 q 417 385 343 385 m 278 846 l 404 846 q 520 815 478 846 q 563 728 563 783 q 540 660 563 688 q 479 622 518 632 l 578 465 l 497 465 l 408 613 l 349 613 l 349 465 l 278 465 l 278 846 m 415 672 q 473 688 453 672 q 493 731 493 703 q 473 771 493 757 q 415 785 453 785 l 349 785 l 349 672 l 415 672 z "},"¯":{"ha":833,"x_min":231,"x_max":603,"o":"m 231 968 l 603 968 l 603 868 l 231 868 l 231 968 z "},"°":{"ha":833,"x_min":208,"x_max":625,"o":"m 417 542 q 313 570 361 542 q 237 647 265 599 q 208 750 208 694 q 237 853 208 806 q 313 930 265 901 q 417 958 361 958 q 520 930 472 958 q 597 853 568 901 q 625 750 625 806 q 597 647 625 694 q 520 570 568 599 q 417 542 472 542 m 417 643 q 491 674 460 643 q 522 750 522 706 q 491 826 522 794 q 417 857 460 857 q 342 826 374 857 q 311 750 311 794 q 342 674 311 706 q 417 643 374 643 z "},"±":{"ha":833,"x_min":86,"x_max":747,"o":"m 86 158 l 747 158 l 747 50 l 86 50 l 86 158 m 86 568 l 747 568 l 747 460 l 86 460 l 86 568 m 363 750 l 471 750 l 471 278 l 363 278 l 363 750 z "},"²":{"ha":833,"x_min":222,"x_max":589,"o":"m 222 451 q 257 591 222 526 q 386 718 292 656 l 431 747 q 484 797 468 772 q 500 853 500 822 q 476 908 500 886 q 419 929 453 929 q 351 903 376 929 q 315 829 325 878 l 232 833 q 292 961 242 914 q 419 1008 343 1008 q 539 965 493 1008 q 585 853 585 921 q 551 756 585 804 q 454 667 518 707 l 415 642 q 349 585 374 614 q 324 531 325 557 l 589 531 l 589 451 l 222 451 z "},"³":{"ha":833,"x_min":222,"x_max":607,"o":"m 418 429 q 283 474 339 429 q 222 585 226 519 l 307 589 q 342 532 310 556 q 418 508 375 508 q 490 535 461 508 q 519 599 519 561 q 488 668 519 639 q 411 697 457 697 l 376 697 l 376 776 l 411 776 q 475 799 449 776 q 501 850 501 822 q 476 906 501 882 q 417 929 451 929 q 355 912 381 929 q 326 869 329 894 l 242 875 q 301 970 250 932 q 417 1008 351 1008 q 538 967 489 1008 q 586 864 586 925 q 562 789 586 824 q 494 742 538 754 q 575 685 543 726 q 607 593 607 643 q 582 510 607 549 q 513 451 557 472 q 418 429 469 429 z "},"´":{"ha":833,"x_min":306,"x_max":528,"o":"m 397 1014 l 528 1014 l 403 836 l 306 836 l 397 1014 z "},"µ":{"ha":833,"x_min":132,"x_max":708,"o":"m 132 736 l 249 736 l 249 297 q 286 139 249 192 q 400 86 324 86 q 540 143 489 86 q 590 297 590 200 l 590 736 l 708 736 l 708 0 l 596 0 l 596 122 q 517 21 569 58 q 400 -17 465 -17 q 307 7 347 -17 q 249 71 267 31 l 249 -208 l 132 -208 l 132 736 z "},"¶":{"ha":833,"x_min":58,"x_max":700,"o":"m 396 425 q 149 501 240 425 q 58 706 58 576 q 149 910 58 835 q 396 986 240 986 l 700 986 l 700 0 l 597 0 l 597 881 l 500 881 l 500 0 l 396 0 l 396 425 z "},"·":{"ha":833,"x_min":333,"x_max":500,"o":"m 333 504 l 500 504 l 500 338 l 333 338 l 333 504 z "},"¸":{"ha":833,"x_min":268,"x_max":567,"o":"m 431 -306 q 347 -284 383 -306 q 268 -212 311 -262 l 325 -160 q 372 -211 350 -192 q 425 -231 394 -231 q 473 -215 456 -231 q 490 -171 490 -199 q 460 -122 490 -137 q 385 -118 429 -107 l 346 -67 l 419 14 l 479 0 l 432 -51 q 529 -86 492 -51 q 567 -176 567 -121 q 549 -242 567 -212 q 499 -288 531 -271 q 431 -306 468 -306 z "},"¹":{"ha":833,"x_min":249,"x_max":471,"o":"m 386 804 l 249 803 l 249 864 l 282 864 q 374 896 342 864 q 406 988 406 928 l 471 988 l 471 449 l 386 449 l 386 804 z "},"º":{"ha":833,"x_min":201,"x_max":631,"o":"m 415 513 q 260 578 319 513 q 201 751 201 643 q 260 924 201 858 q 415 989 319 989 q 571 924 511 989 q 631 751 631 858 q 571 578 631 643 q 415 513 511 513 m 415 601 q 499 642 469 601 q 529 751 529 682 q 499 860 529 821 q 415 900 469 900 q 333 860 363 900 q 303 751 303 821 q 333 642 303 682 q 415 601 363 601 z "},"»":{"ha":833,"x_min":110,"x_max":724,"o":"m 626 383 l 390 661 l 533 661 l 724 435 l 724 332 l 533 106 l 390 106 l 626 383 m 346 383 l 110 661 l 253 661 l 443 435 l 443 332 l 253 106 l 110 106 l 346 383 z "},"¼":{"ha":833,"x_min":56,"x_max":793,"o":"m 664 986 l 772 986 l 579 631 l 471 631 l 664 986 m 249 354 l 357 354 l 164 0 l 56 0 l 249 354 m 647 106 l 386 106 l 386 175 l 661 539 l 732 539 l 732 185 l 793 185 l 793 106 l 732 106 l 732 0 l 647 0 l 647 106 m 647 185 l 647 388 l 494 185 l 647 185 m 208 804 l 71 803 l 71 864 l 104 864 q 196 896 164 864 q 228 988 228 928 l 293 988 l 293 449 l 208 449 l 208 804 z "},"½":{"ha":833,"x_min":56,"x_max":793,"o":"m 664 986 l 772 986 l 579 631 l 471 631 l 664 986 m 249 354 l 357 354 l 164 0 l 56 0 l 249 354 m 426 0 q 461 140 426 75 q 590 267 496 204 l 635 296 q 688 346 672 321 q 704 401 704 371 q 681 456 704 435 q 624 478 657 478 q 555 452 581 478 q 519 378 529 426 l 436 382 q 497 510 446 463 q 624 557 547 557 q 743 513 697 557 q 789 401 789 469 q 756 304 789 353 q 658 215 722 256 l 619 190 q 553 134 578 163 q 528 79 529 106 l 793 79 l 793 0 l 426 0 m 210 804 l 72 803 l 72 864 l 106 864 q 197 896 165 864 q 229 988 229 928 l 294 988 l 294 449 l 210 449 l 210 804 z "},"¾":{"ha":833,"x_min":24,"x_max":793,"o":"m 664 986 l 772 986 l 579 631 l 471 631 l 664 986 m 249 354 l 357 354 l 164 0 l 56 0 l 249 354 m 647 106 l 386 106 l 386 175 l 661 539 l 732 539 l 732 185 l 793 185 l 793 106 l 732 106 l 732 0 l 647 0 l 647 106 m 647 185 l 647 388 l 494 185 l 647 185 m 219 429 q 84 474 140 429 q 24 585 28 519 l 108 589 q 144 532 111 556 q 219 508 176 508 q 292 535 263 508 q 321 599 321 561 q 290 668 321 639 q 213 697 258 697 l 178 697 l 178 776 l 213 776 q 276 799 250 776 q 303 850 303 822 q 278 906 303 882 q 218 929 253 929 q 156 912 182 929 q 128 869 131 894 l 43 875 q 102 970 51 932 q 218 1008 153 1008 q 339 967 290 1008 q 388 864 388 925 q 363 789 388 824 q 296 742 339 754 q 376 685 344 726 q 408 593 408 643 q 383 510 408 549 q 315 451 358 472 q 219 429 271 429 z "},"¿":{"ha":833,"x_min":93,"x_max":740,"o":"m 504 617 l 338 617 l 338 783 l 504 783 l 504 617 m 481 504 q 449 347 481 406 q 346 242 418 288 q 264 183 290 208 q 228 130 238 157 q 218 58 218 103 q 266 -62 218 -15 q 396 -108 314 -108 q 551 -56 497 -108 q 615 97 604 -4 l 740 89 q 636 -138 728 -51 q 396 -225 544 -225 q 238 -189 307 -225 q 131 -88 169 -153 q 93 58 93 -24 q 111 158 93 115 q 166 237 129 201 q 265 314 203 272 q 341 390 321 350 q 361 504 361 431 l 481 504 z "},"À":{"ha":833,"x_min":36,"x_max":797,"o":"m 336 986 l 497 986 l 797 0 l 675 0 l 417 878 l 158 0 l 36 0 l 336 986 m 229 389 l 604 389 l 646 275 l 188 275 l 229 389 m 250 1264 l 381 1264 l 472 1086 l 375 1086 l 250 1264 z "},"Á":{"ha":833,"x_min":36,"x_max":797,"o":"m 336 986 l 497 986 l 797 0 l 675 0 l 417 878 l 158 0 l 36 0 l 336 986 m 229 389 l 604 389 l 646 275 l 188 275 l 229 389 m 456 1264 l 586 1264 l 461 1086 l 364 1086 l 456 1264 z "},"Â":{"ha":833,"x_min":36,"x_max":797,"o":"m 336 986 l 497 986 l 797 0 l 675 0 l 417 878 l 158 0 l 36 0 l 336 986 m 229 389 l 604 389 l 646 275 l 188 275 l 229 389 m 350 1265 l 481 1265 l 610 1081 l 513 1081 l 404 1219 l 426 1219 l 318 1081 l 221 1081 l 350 1265 z "},"Ã":{"ha":833,"x_min":36,"x_max":797,"o":"m 336 986 l 497 986 l 797 0 l 675 0 l 417 878 l 158 0 l 36 0 l 336 986 m 229 389 l 604 389 l 646 275 l 188 275 l 229 389 m 500 1097 q 451 1108 475 1097 q 403 1139 428 1118 q 363 1168 376 1161 q 331 1175 350 1175 q 269 1088 274 1175 l 197 1088 q 235 1208 199 1165 q 331 1250 272 1250 q 385 1239 361 1250 q 436 1206 410 1228 q 474 1180 458 1188 q 506 1172 489 1172 q 546 1192 532 1172 q 564 1264 560 1213 l 636 1264 q 596 1141 632 1185 q 500 1097 560 1097 z "},"Ä":{"ha":833,"x_min":36,"x_max":797,"o":"m 336 986 l 497 986 l 797 0 l 675 0 l 417 878 l 158 0 l 36 0 l 336 986 m 229 389 l 604 389 l 646 275 l 188 275 l 229 389 z "},"Å":{"ha":833,"x_min":36,"x_max":797,"o":"m 336 986 l 497 986 l 797 0 l 675 0 l 417 878 l 158 0 l 36 0 l 336 986 m 229 389 l 604 389 l 646 275 l 188 275 l 229 389 m 417 1064 q 326 1101 363 1064 q 289 1192 289 1138 q 326 1283 289 1246 q 417 1319 363 1319 q 508 1283 471 1319 q 544 1192 544 1246 q 508 1101 544 1138 q 417 1064 471 1064 m 417 1133 q 458 1150 442 1133 q 475 1192 475 1167 q 458 1233 475 1217 q 417 1250 442 1250 q 375 1233 392 1250 q 358 1192 358 1217 q 375 1150 358 1167 q 417 1133 392 1133 z "},"Æ":{"ha":833,"x_min":14,"x_max":808,"o":"m 339 986 l 801 986 l 801 869 l 565 869 l 565 551 l 792 551 l 792 438 l 565 438 l 565 117 l 808 117 l 808 0 l 446 0 l 446 281 l 226 281 l 138 0 l 14 0 l 339 986 m 446 397 l 446 874 l 417 874 l 263 397 l 446 397 z "},"Ç":{"ha":833,"x_min":53,"x_max":772,"o":"m 419 -22 q 220 40 303 -22 q 95 218 138 103 q 53 492 53 333 q 95 767 53 651 q 220 946 138 883 q 419 1008 303 1008 q 642 923 550 1008 q 764 685 733 838 l 636 676 q 556 836 613 781 q 419 892 499 892 q 288 845 342 892 q 206 709 233 799 q 178 492 178 619 q 206 276 178 365 q 288 141 233 188 q 419 94 342 94 q 566 156 507 94 q 646 332 625 217 l 772 325 q 651 70 744 163 q 419 -22 558 -22 m 428 -306 q 344 -284 381 -306 q 265 -212 308 -262 l 322 -160 q 369 -211 347 -192 q 422 -231 392 -231 q 470 -215 453 -231 q 488 -171 488 -199 q 457 -122 488 -137 q 382 -118 426 -107 l 343 -67 l 417 14 l 476 0 l 429 -51 q 526 -86 489 -51 q 564 -176 564 -121 q 546 -242 564 -212 q 497 -288 528 -271 q 428 -306 465 -306 z "},"È":{"ha":833,"x_min":125,"x_max":736,"o":"m 125 986 l 725 986 l 725 872 l 244 872 l 244 553 l 708 553 l 708 439 l 244 439 l 244 114 l 736 114 l 736 0 l 125 0 l 125 986 m 275 1265 l 406 1265 l 497 1088 l 400 1088 l 275 1265 z "},"É":{"ha":833,"x_min":125,"x_max":736,"o":"m 125 986 l 725 986 l 725 872 l 244 872 l 244 553 l 708 553 l 708 439 l 244 439 l 244 114 l 736 114 l 736 0 l 125 0 l 125 986 m 481 1265 l 611 1265 l 486 1088 l 389 1088 l 481 1265 z "},"Ê":{"ha":833,"x_min":125,"x_max":736,"o":"m 125 986 l 725 986 l 725 872 l 244 872 l 244 553 l 708 553 l 708 439 l 244 439 l 244 114 l 736 114 l 736 0 l 125 0 l 125 986 m 375 1267 l 506 1267 l 635 1082 l 538 1082 l 429 1221 l 451 1221 l 343 1082 l 246 1082 l 375 1267 z "},"Ë":{"ha":833,"x_min":125,"x_max":736,"o":"m 125 986 l 725 986 l 725 872 l 244 872 l 244 553 l 708 553 l 708 439 l 244 439 l 244 114 l 736 114 l 736 0 l 125 0 l 125 986 z "},"Ì":{"ha":833,"x_min":111,"x_max":722,"o":"m 111 114 l 357 114 l 357 872 l 111 872 l 111 986 l 722 986 l 722 872 l 476 872 l 476 114 l 722 114 l 722 0 l 111 0 l 111 114 m 250 1264 l 381 1264 l 472 1086 l 375 1086 l 250 1264 z "},"Í":{"ha":833,"x_min":111,"x_max":722,"o":"m 111 114 l 357 114 l 357 872 l 111 872 l 111 986 l 722 986 l 722 872 l 476 872 l 476 114 l 722 114 l 722 0 l 111 0 l 111 114 m 456 1264 l 586 1264 l 461 1086 l 364 1086 l 456 1264 z "},"Î":{"ha":833,"x_min":111,"x_max":722,"o":"m 111 114 l 357 114 l 357 872 l 111 872 l 111 986 l 722 986 l 722 872 l 476 872 l 476 114 l 722 114 l 722 0 l 111 0 l 111 114 m 350 1265 l 481 1265 l 610 1081 l 513 1081 l 404 1219 l 426 1219 l 318 1081 l 221 1081 l 350 1265 z "},"Ï":{"ha":833,"x_min":111,"x_max":722,"o":"m 111 114 l 357 114 l 357 872 l 111 872 l 111 986 l 722 986 l 722 872 l 476 872 l 476 114 l 722 114 l 722 0 l 111 0 l 111 114 z "},"Ð":{"ha":833,"x_min":-14,"x_max":835,"o":"m -14 544 l 431 544 l 431 442 l -14 442 l -14 544 m 179 986 l 413 986 q 635 928 540 986 q 783 759 731 871 q 835 492 835 647 q 783 225 835 336 q 635 57 731 114 q 413 0 540 0 l 179 0 l 179 986 m 406 114 q 631 210 551 114 q 710 492 710 307 q 631 775 710 678 q 406 872 551 872 l 299 872 l 299 114 l 406 114 z "},"Ñ":{"ha":833,"x_min":97,"x_max":736,"o":"m 97 986 l 264 986 l 617 158 l 617 986 l 736 986 l 736 0 l 569 0 l 217 828 l 217 0 l 97 0 l 97 986 m 500 1097 q 451 1108 475 1097 q 403 1139 428 1118 q 363 1168 376 1161 q 331 1175 350 1175 q 269 1088 274 1175 l 197 1088 q 235 1208 199 1165 q 331 1250 272 1250 q 385 1239 361 1250 q 436 1206 410 1228 q 474 1180 458 1188 q 506 1172 489 1172 q 546 1192 532 1172 q 564 1264 560 1213 l 636 1264 q 596 1141 632 1185 q 500 1097 560 1097 z "},"Ò":{"ha":833,"x_min":53,"x_max":781,"o":"m 417 -22 q 219 38 300 -22 q 95 213 138 97 q 53 492 53 328 q 95 773 53 657 q 219 949 138 889 q 417 1008 300 1008 q 615 949 533 1008 q 738 773 696 889 q 781 492 781 657 q 738 213 781 328 q 615 38 696 97 q 417 -22 533 -22 m 417 94 q 547 140 493 94 q 628 275 600 186 q 656 492 656 364 q 628 709 656 619 q 547 845 600 799 q 417 892 493 892 q 287 845 340 892 q 206 709 233 799 q 178 492 178 619 q 206 275 178 364 q 287 140 233 186 q 417 94 340 94 m 250 1264 l 381 1264 l 472 1086 l 375 1086 l 250 1264 z "},"Ó":{"ha":833,"x_min":53,"x_max":781,"o":"m 417 -22 q 219 38 300 -22 q 95 213 138 97 q 53 492 53 328 q 95 773 53 657 q 219 949 138 889 q 417 1008 300 1008 q 615 949 533 1008 q 738 773 696 889 q 781 492 781 657 q 738 213 781 328 q 615 38 696 97 q 417 -22 533 -22 m 417 94 q 547 140 493 94 q 628 275 600 186 q 656 492 656 364 q 628 709 656 619 q 547 845 600 799 q 417 892 493 892 q 287 845 340 892 q 206 709 233 799 q 178 492 178 619 q 206 275 178 364 q 287 140 233 186 q 417 94 340 94 m 456 1264 l 586 1264 l 461 1086 l 364 1086 l 456 1264 z "},"Ô":{"ha":833,"x_min":53,"x_max":781,"o":"m 417 -22 q 219 38 300 -22 q 95 213 138 97 q 53 492 53 328 q 95 773 53 657 q 219 949 138 889 q 417 1008 300 1008 q 615 949 533 1008 q 738 773 696 889 q 781 492 781 657 q 738 213 781 328 q 615 38 696 97 q 417 -22 533 -22 m 417 94 q 547 140 493 94 q 628 275 600 186 q 656 492 656 364 q 628 709 656 619 q 547 845 600 799 q 417 892 493 892 q 287 845 340 892 q 206 709 233 799 q 178 492 178 619 q 206 275 178 364 q 287 140 233 186 q 417 94 340 94 m 350 1265 l 481 1265 l 610 1081 l 513 1081 l 404 1219 l 426 1219 l 318 1081 l 221 1081 l 350 1265 z "},"Õ":{"ha":833,"x_min":53,"x_max":781,"o":"m 417 -22 q 219 38 300 -22 q 95 213 138 97 q 53 492 53 328 q 95 773 53 657 q 219 949 138 889 q 417 1008 300 1008 q 615 949 533 1008 q 738 773 696 889 q 781 492 781 657 q 738 213 781 328 q 615 38 696 97 q 417 -22 533 -22 m 417 94 q 547 140 493 94 q 628 275 600 186 q 656 492 656 364 q 628 709 656 619 q 547 845 600 799 q 417 892 493 892 q 287 845 340 892 q 206 709 233 799 q 178 492 178 619 q 206 275 178 364 q 287 140 233 186 q 417 94 340 94 m 500 1097 q 451 1108 475 1097 q 403 1139 428 1118 q 363 1168 376 1161 q 331 1175 350 1175 q 269 1088 274 1175 l 197 1088 q 235 1208 199 1165 q 331 1250 272 1250 q 385 1239 361 1250 q 436 1206 410 1228 q 474 1180 458 1188 q 506 1172 489 1172 q 546 1192 532 1172 q 564 1264 560 1213 l 636 1264 q 596 1141 632 1185 q 500 1097 560 1097 z "},"Ö":{"ha":833,"x_min":53,"x_max":781,"o":"m 417 -22 q 219 38 300 -22 q 95 213 138 97 q 53 492 53 328 q 95 773 53 657 q 219 949 138 889 q 417 1008 300 1008 q 615 949 533 1008 q 738 773 696 889 q 781 492 781 657 q 738 213 781 328 q 615 38 696 97 q 417 -22 533 -22 m 417 94 q 547 140 493 94 q 628 275 600 186 q 656 492 656 364 q 628 709 656 619 q 547 845 600 799 q 417 892 493 892 q 287 845 340 892 q 206 709 233 799 q 178 492 178 619 q 206 275 178 364 q 287 140 233 186 q 417 94 340 94 z "},"×":{"ha":833,"x_min":174,"x_max":719,"o":"m -424 1173 l -348 1250 l 120 782 l 43 705 l -424 1173 m -424 782 l 43 1250 l 120 1173 l -348 705 l -424 782 z "},"Ø":{"ha":833,"x_min":53,"x_max":781,"o":"m 661 1008 l 775 1008 l 169 -22 l 53 -22 l 661 1008 m 417 -22 q 219 38 300 -22 q 95 213 138 97 q 53 492 53 328 q 95 773 53 657 q 219 949 138 889 q 417 1008 300 1008 q 615 949 533 1008 q 738 773 696 889 q 781 492 781 657 q 738 213 781 328 q 615 38 696 97 q 417 -22 533 -22 m 417 94 q 547 140 493 94 q 628 275 600 186 q 656 492 656 364 q 628 709 656 619 q 547 845 600 799 q 417 892 493 892 q 287 845 340 892 q 206 709 233 799 q 178 492 178 619 q 206 275 178 364 q 287 140 233 186 q 417 94 340 94 z "},"Ù":{"ha":833,"x_min":83,"x_max":750,"o":"m 417 -22 q 172 76 261 -22 q 83 344 83 175 l 83 986 l 203 986 l 203 344 q 258 159 203 224 q 417 94 313 94 q 576 159 521 94 q 631 344 631 224 l 631 986 l 750 986 l 750 344 q 661 76 750 175 q 417 -22 572 -22 m 250 1264 l 381 1264 l 472 1086 l 375 1086 l 250 1264 z "},"Ú":{"ha":833,"x_min":83,"x_max":750,"o":"m 417 -22 q 172 76 261 -22 q 83 344 83 175 l 83 986 l 203 986 l 203 344 q 258 159 203 224 q 417 94 313 94 q 576 159 521 94 q 631 344 631 224 l 631 986 l 750 986 l 750 344 q 661 76 750 175 q 417 -22 572 -22 m 456 1264 l 586 1264 l 461 1086 l 364 1086 l 456 1264 z "},"Û":{"ha":833,"x_min":83,"x_max":750,"o":"m 417 -22 q 172 76 261 -22 q 83 344 83 175 l 83 986 l 203 986 l 203 344 q 258 159 203 224 q 417 94 313 94 q 576 159 521 94 q 631 344 631 224 l 631 986 l 750 986 l 750 344 q 661 76 750 175 q 417 -22 572 -22 m 350 1265 l 481 1265 l 610 1081 l 513 1081 l 404 1219 l 426 1219 l 318 1081 l 221 1081 l 350 1265 z "},"Ü":{"ha":833,"x_min":83,"x_max":750,"o":"m 417 -22 q 172 76 261 -22 q 83 344 83 175 l 83 986 l 203 986 l 203 344 q 258 159 203 224 q 417 94 313 94 q 576 159 521 94 q 631 344 631 224 l 631 986 l 750 986 l 750 344 q 661 76 750 175 q 417 -22 572 -22 z "},"Ý":{"ha":833,"x_min":61,"x_max":772,"o":"m 358 403 l 61 986 l 197 986 l 417 542 l 636 986 l 772 986 l 478 403 l 478 0 l 358 0 l 358 403 m 456 1264 l 586 1264 l 461 1086 l 364 1086 l 456 1264 z "},"Þ":{"ha":833,"x_min":125,"x_max":786,"o":"m 160 324 l 436 324 q 605 371 549 324 q 661 511 661 418 q 605 647 661 601 q 436 692 549 692 l 160 692 l 160 808 l 436 808 q 694 730 601 808 q 786 511 786 651 q 694 288 786 368 q 436 207 601 207 l 160 207 l 160 324 m 125 986 l 244 986 l 244 0 l 125 0 l 125 986 z "},"ß":{"ha":833,"x_min":106,"x_max":756,"o":"m 106 697 q 144 861 106 792 q 250 967 182 931 q 403 1003 318 1003 q 555 972 489 1003 q 658 883 621 940 q 694 751 694 826 q 637 592 694 657 q 478 522 579 528 l 476 546 q 619 506 556 540 q 719 413 682 472 q 756 276 756 353 q 708 126 756 189 q 581 32 660 64 q 407 0 501 0 l 318 0 l 318 111 l 407 111 q 519 131 468 111 q 602 190 571 150 q 633 286 633 229 q 601 389 633 347 q 514 451 568 431 q 393 469 460 471 l 332 468 l 332 581 l 393 579 q 488 598 446 578 q 552 656 529 618 q 575 740 575 693 q 527 849 575 807 q 403 892 479 892 q 308 869 349 892 q 246 803 268 847 q 224 697 224 760 l 224 0 l 106 0 l 106 697 z "},"à":{"ha":833,"x_min":75,"x_max":764,"o":"m 319 -17 q 194 8 250 -17 q 107 79 139 33 q 75 183 75 125 q 131 329 75 276 q 308 406 186 382 l 556 456 q 514 595 556 549 q 392 642 472 642 q 273 608 317 642 q 213 510 229 575 l 89 519 q 190 690 110 626 q 392 753 269 753 q 599 673 525 753 q 672 453 672 593 l 672 147 q 683 113 672 122 q 717 103 693 103 l 764 103 l 764 0 q 703 -3 742 -3 q 593 33 629 -3 q 556 150 557 69 l 578 150 q 490 31 564 78 q 319 -17 415 -17 m 331 86 q 455 112 404 86 q 531 183 506 138 q 556 292 556 229 l 556 356 l 331 311 q 227 269 257 297 q 197 194 197 242 q 233 115 197 143 q 331 86 268 86 m 228 1014 l 358 1014 l 450 836 l 353 836 l 228 1014 z "},"á":{"ha":833,"x_min":75,"x_max":764,"o":"m 319 -17 q 194 8 250 -17 q 107 79 139 33 q 75 183 75 125 q 131 329 75 276 q 308 406 186 382 l 556 456 q 514 595 556 549 q 392 642 472 642 q 273 608 317 642 q 213 510 229 575 l 89 519 q 190 690 110 626 q 392 753 269 753 q 599 673 525 753 q 672 453 672 593 l 672 147 q 683 113 672 122 q 717 103 693 103 l 764 103 l 764 0 q 703 -3 742 -3 q 593 33 629 -3 q 556 150 557 69 l 578 150 q 490 31 564 78 q 319 -17 415 -17 m 331 86 q 455 112 404 86 q 531 183 506 138 q 556 292 556 229 l 556 356 l 331 311 q 227 269 257 297 q 197 194 197 242 q 233 115 197 143 q 331 86 268 86 m 433 1014 l 564 1014 l 439 836 l 342 836 l 433 1014 z "},"â":{"ha":833,"x_min":75,"x_max":764,"o":"m 319 -17 q 194 8 250 -17 q 107 79 139 33 q 75 183 75 125 q 131 329 75 276 q 308 406 186 382 l 556 456 q 514 595 556 549 q 392 642 472 642 q 273 608 317 642 q 213 510 229 575 l 89 519 q 190 690 110 626 q 392 753 269 753 q 599 673 525 753 q 672 453 672 593 l 672 147 q 683 113 672 122 q 717 103 693 103 l 764 103 l 764 0 q 703 -3 742 -3 q 593 33 629 -3 q 556 150 557 69 l 578 150 q 490 31 564 78 q 319 -17 415 -17 m 331 86 q 455 112 404 86 q 531 183 506 138 q 556 292 556 229 l 556 356 l 331 311 q 227 269 257 297 q 197 194 197 242 q 233 115 197 143 q 331 86 268 86 m 328 1015 l 458 1015 l 588 831 l 490 831 l 382 969 l 404 969 l 296 831 l 199 831 l 328 1015 z "},"ã":{"ha":833,"x_min":75,"x_max":764,"o":"m 319 -17 q 194 8 250 -17 q 107 79 139 33 q 75 183 75 125 q 131 329 75 276 q 308 406 186 382 l 556 456 q 514 595 556 549 q 392 642 472 642 q 273 608 317 642 q 213 510 229 575 l 89 519 q 190 690 110 626 q 392 753 269 753 q 599 673 525 753 q 672 453 672 593 l 672 147 q 683 113 672 122 q 717 103 693 103 l 764 103 l 764 0 q 703 -3 742 -3 q 593 33 629 -3 q 556 150 557 69 l 578 150 q 490 31 564 78 q 319 -17 415 -17 m 331 86 q 455 112 404 86 q 531 183 506 138 q 556 292 556 229 l 556 356 l 331 311 q 227 269 257 297 q 197 194 197 242 q 233 115 197 143 q 331 86 268 86 m 478 847 q 429 858 453 847 q 381 889 406 868 q 341 918 354 911 q 308 925 328 925 q 247 838 251 925 l 175 838 q 213 958 176 915 q 308 1000 250 1000 q 363 989 339 1000 q 414 956 388 978 q 451 930 436 938 q 483 922 467 922 q 524 942 510 922 q 542 1014 538 963 l 614 1014 q 574 891 610 935 q 478 847 538 847 z "},"ä":{"ha":833,"x_min":75,"x_max":764,"o":"m 319 -17 q 194 8 250 -17 q 107 79 139 33 q 75 183 75 125 q 131 329 75 276 q 308 406 186 382 l 556 456 q 514 595 556 549 q 392 642 472 642 q 273 608 317 642 q 213 510 229 575 l 89 519 q 190 690 110 626 q 392 753 269 753 q 599 673 525 753 q 672 453 672 593 l 672 147 q 683 113 672 122 q 717 103 693 103 l 764 103 l 764 0 q 703 -3 742 -3 q 593 33 629 -3 q 556 150 557 69 l 578 150 q 490 31 564 78 q 319 -17 415 -17 m 331 86 q 455 112 404 86 q 531 183 506 138 q 556 292 556 229 l 556 356 l 331 311 q 227 269 257 297 q 197 194 197 242 q 233 115 197 143 q 331 86 268 86 z "},"å":{"ha":833,"x_min":75,"x_max":764,"o":"m 319 -17 q 194 8 250 -17 q 107 79 139 33 q 75 183 75 125 q 131 329 75 276 q 308 406 186 382 l 556 456 q 514 595 556 549 q 392 642 472 642 q 273 608 317 642 q 213 510 229 575 l 89 519 q 190 690 110 626 q 392 753 269 753 q 599 673 525 753 q 672 453 672 593 l 672 147 q 683 113 672 122 q 717 103 693 103 l 764 103 l 764 0 q 703 -3 742 -3 q 593 33 629 -3 q 556 150 557 69 l 578 150 q 490 31 564 78 q 319 -17 415 -17 m 331 86 q 455 112 404 86 q 531 183 506 138 q 556 292 556 229 l 556 356 l 331 311 q 227 269 257 297 q 197 194 197 242 q 233 115 197 143 q 331 86 268 86 m 394 814 q 303 851 340 814 q 267 942 267 888 q 303 1033 267 996 q 394 1069 340 1069 q 485 1033 449 1069 q 522 942 522 996 q 485 851 522 888 q 394 814 449 814 m 394 883 q 436 900 419 883 q 453 942 453 917 q 436 983 453 967 q 394 1000 419 1000 q 353 983 369 1000 q 336 942 336 967 q 353 900 336 917 q 394 883 369 883 z "},"æ":{"ha":833,"x_min":18,"x_max":817,"o":"m 590 -17 q 415 83 476 -17 q 353 368 353 182 q 415 653 353 554 q 590 753 476 753 q 710 712 661 753 q 785 590 758 671 q 815 385 811 508 l 817 332 l 471 332 q 507 156 476 218 q 590 94 538 94 q 653 123 631 94 q 690 218 676 151 l 808 208 q 733 35 782 86 q 590 -17 683 -17 m 204 -17 q 72 43 125 -14 q 18 196 18 100 q 70 335 18 276 q 213 417 122 394 l 331 447 q 309 597 331 551 q 239 642 288 642 q 174 608 194 642 q 143 510 154 575 l 28 519 q 98 694 46 636 q 239 753 150 753 q 394 676 342 753 q 446 444 446 599 l 394 192 q 332 40 382 94 q 204 -17 282 -14 m 215 94 q 304 149 276 99 q 332 304 332 199 l 332 340 l 247 319 q 164 273 193 307 q 135 196 135 239 q 157 120 135 149 q 215 94 179 92 m 696 435 q 661 594 686 546 q 590 642 636 642 q 510 594 538 642 q 472 435 482 546 l 696 435 z "},"ç":{"ha":833,"x_min":97,"x_max":750,"o":"m 436 -17 q 258 31 335 -17 q 139 165 181 78 q 97 368 97 253 q 139 571 97 483 q 258 706 181 658 q 436 753 335 753 q 582 723 518 753 q 688 636 646 693 q 744 497 729 579 l 622 489 q 556 601 606 561 q 436 642 507 642 q 277 569 335 642 q 219 368 219 496 q 277 167 219 240 q 436 94 335 94 q 560 138 510 94 q 628 261 611 181 l 750 253 q 642 56 726 129 q 436 -17 558 -17 m 425 -306 q 342 -284 378 -306 q 263 -212 306 -262 l 319 -160 q 367 -211 344 -192 q 419 -231 389 -231 q 467 -215 450 -231 q 485 -171 485 -199 q 454 -122 485 -137 q 379 -118 424 -107 l 340 -67 l 414 14 l 474 0 l 426 -51 q 524 -86 486 -51 q 561 -176 561 -121 q 543 -242 561 -212 q 494 -288 525 -271 q 425 -306 463 -306 z "},"è":{"ha":833,"x_min":92,"x_max":750,"o":"m 429 -17 q 250 31 326 -17 q 133 165 174 78 q 92 368 92 251 q 133 571 92 483 q 249 706 174 658 q 424 753 324 753 q 594 708 519 753 q 709 575 668 663 q 750 367 750 488 l 750 332 l 214 332 q 276 155 219 215 q 429 94 332 94 q 547 127 500 94 q 613 218 593 160 l 738 208 q 626 45 708 107 q 429 -17 543 -17 m 622 435 q 561 590 614 538 q 424 642 508 642 q 283 589 338 642 q 214 435 228 536 l 622 435 m 258 1011 l 389 1011 l 481 833 l 383 833 l 258 1011 z "},"é":{"ha":833,"x_min":92,"x_max":750,"o":"m 429 -17 q 250 31 326 -17 q 133 165 174 78 q 92 368 92 251 q 133 571 92 483 q 249 706 174 658 q 424 753 324 753 q 594 708 519 753 q 709 575 668 663 q 750 367 750 488 l 750 332 l 214 332 q 276 155 219 215 q 429 94 332 94 q 547 127 500 94 q 613 218 593 160 l 738 208 q 626 45 708 107 q 429 -17 543 -17 m 622 435 q 561 590 614 538 q 424 642 508 642 q 283 589 338 642 q 214 435 228 536 l 622 435 m 464 1011 l 594 1011 l 469 833 l 372 833 l 464 1011 z "},"ê":{"ha":833,"x_min":92,"x_max":750,"o":"m 429 -17 q 250 31 326 -17 q 133 165 174 78 q 92 368 92 251 q 133 571 92 483 q 249 706 174 658 q 424 753 324 753 q 594 708 519 753 q 709 575 668 663 q 750 367 750 488 l 750 332 l 214 332 q 276 155 219 215 q 429 94 332 94 q 547 127 500 94 q 613 218 593 160 l 738 208 q 626 45 708 107 q 429 -17 543 -17 m 622 435 q 561 590 614 538 q 424 642 508 642 q 283 589 338 642 q 214 435 228 536 l 622 435 m 358 1013 l 489 1013 l 618 828 l 521 828 l 413 967 l 435 967 l 326 828 l 229 828 l 358 1013 z "},"ë":{"ha":833,"x_min":92,"x_max":750,"o":"m 429 -17 q 250 31 326 -17 q 133 165 174 78 q 92 368 92 251 q 133 571 92 483 q 249 706 174 658 q 424 753 324 753 q 594 708 519 753 q 709 575 668 663 q 750 367 750 488 l 750 332 l 214 332 q 276 155 219 215 q 429 94 332 94 q 547 127 500 94 q 613 218 593 160 l 738 208 q 626 45 708 107 q 429 -17 543 -17 m 622 435 q 561 590 614 538 q 424 642 508 642 q 283 589 338 642 q 214 435 228 536 l 622 435 z "},"ì":{"ha":833,"x_min":111,"x_max":778,"o":"m 407 736 l 524 736 l 524 0 l 407 0 l 407 736 m 111 103 l 778 103 l 778 0 l 111 0 l 111 103 m 125 736 l 524 736 l 524 633 l 125 633 l 125 736 m 292 1014 l 422 1014 l 514 836 l 417 836 l 292 1014 z "},"í":{"ha":833,"x_min":111,"x_max":778,"o":"m 407 736 l 524 736 l 524 0 l 407 0 l 407 736 m 111 103 l 778 103 l 778 0 l 111 0 l 111 103 m 125 736 l 524 736 l 524 633 l 125 633 l 125 736 m 497 1014 l 628 1014 l 503 836 l 406 836 l 497 1014 z "},"î":{"ha":833,"x_min":111,"x_max":778,"o":"m 407 736 l 524 736 l 524 0 l 407 0 l 407 736 m 111 103 l 778 103 l 778 0 l 111 0 l 111 103 m 125 736 l 524 736 l 524 633 l 125 633 l 125 736 m 392 1015 l 522 1015 l 651 831 l 554 831 l 446 969 l 468 969 l 360 831 l 263 831 l 392 1015 z "},"ï":{"ha":833,"x_min":111,"x_max":778,"o":"m 407 736 l 524 736 l 524 0 l 407 0 l 407 736 m 111 103 l 778 103 l 778 0 l 111 0 l 111 103 m 125 736 l 524 736 l 524 633 l 125 633 l 125 736 z "},"ð":{"ha":833,"x_min":81,"x_max":776,"o":"m 318 819 l 743 969 l 776 881 l 351 731 l 318 819 m 642 365 q 599 657 642 543 q 470 830 557 771 q 249 900 383 889 l 276 1003 q 553 899 447 985 q 707 676 660 814 q 754 354 754 538 l 642 365 m 418 -17 q 240 26 317 -17 q 122 150 164 69 q 81 340 81 231 q 122 531 81 450 q 240 654 164 611 q 418 697 317 697 q 591 644 514 697 q 711 510 668 590 q 754 354 754 429 q 713 155 754 239 q 595 27 671 71 q 418 -17 519 -17 m 418 94 q 576 160 521 94 q 632 354 632 225 q 575 524 632 463 q 418 586 518 586 q 259 522 315 586 q 203 340 203 458 q 259 158 203 222 q 418 94 315 94 z "},"ñ":{"ha":833,"x_min":133,"x_max":717,"o":"m 133 736 l 240 736 l 244 549 l 231 561 q 315 704 250 656 q 469 753 379 753 q 653 675 590 753 q 717 474 717 597 l 717 0 l 600 0 l 600 440 q 563 597 600 544 q 444 650 526 650 q 303 595 357 650 q 250 440 250 540 l 250 0 l 133 0 l 133 736 m 508 847 q 460 858 483 847 q 411 889 436 868 q 372 918 385 911 q 339 925 358 925 q 278 838 282 925 l 206 838 q 244 958 207 915 q 339 1000 281 1000 q 394 989 369 1000 q 444 956 418 978 q 482 930 467 938 q 514 922 497 922 q 554 942 540 922 q 572 1014 568 963 l 644 1014 q 604 891 640 935 q 508 847 568 847 z "},"ò":{"ha":833,"x_min":81,"x_max":753,"o":"m 417 -17 q 240 31 315 -17 q 122 165 164 78 q 81 368 81 251 q 122 572 81 485 q 240 706 164 658 q 417 753 315 753 q 593 706 517 753 q 711 572 669 658 q 753 368 753 485 q 711 165 753 251 q 593 31 669 78 q 417 -17 517 -17 m 417 94 q 574 167 518 94 q 631 368 631 240 q 574 569 631 496 q 417 642 518 642 q 259 569 315 642 q 203 368 203 497 q 259 167 203 239 q 417 94 315 94 m 250 1014 l 381 1014 l 472 836 l 375 836 l 250 1014 z "},"ó":{"ha":833,"x_min":81,"x_max":753,"o":"m 417 -17 q 240 31 315 -17 q 122 165 164 78 q 81 368 81 251 q 122 572 81 485 q 240 706 164 658 q 417 753 315 753 q 593 706 517 753 q 711 572 669 658 q 753 368 753 485 q 711 165 753 251 q 593 31 669 78 q 417 -17 517 -17 m 417 94 q 574 167 518 94 q 631 368 631 240 q 574 569 631 496 q 417 642 518 642 q 259 569 315 642 q 203 368 203 497 q 259 167 203 239 q 417 94 315 94 m 456 1014 l 586 1014 l 461 836 l 364 836 l 456 1014 z "},"ô":{"ha":833,"x_min":81,"x_max":753,"o":"m 417 -17 q 240 31 315 -17 q 122 165 164 78 q 81 368 81 251 q 122 572 81 485 q 240 706 164 658 q 417 753 315 753 q 593 706 517 753 q 711 572 669 658 q 753 368 753 485 q 711 165 753 251 q 593 31 669 78 q 417 -17 517 -17 m 417 94 q 574 167 518 94 q 631 368 631 240 q 574 569 631 496 q 417 642 518 642 q 259 569 315 642 q 203 368 203 497 q 259 167 203 239 q 417 94 315 94 m 350 1015 l 481 1015 l 610 831 l 513 831 l 404 969 l 426 969 l 318 831 l 221 831 l 350 1015 z "},"õ":{"ha":833,"x_min":81,"x_max":753,"o":"m 417 -17 q 240 31 315 -17 q 122 165 164 78 q 81 368 81 251 q 122 572 81 485 q 240 706 164 658 q 417 753 315 753 q 593 706 517 753 q 711 572 669 658 q 753 368 753 485 q 711 165 753 251 q 593 31 669 78 q 417 -17 517 -17 m 417 94 q 574 167 518 94 q 631 368 631 240 q 574 569 631 496 q 417 642 518 642 q 259 569 315 642 q 203 368 203 497 q 259 167 203 239 q 417 94 315 94 m 500 847 q 451 858 475 847 q 403 889 428 868 q 363 918 376 911 q 331 925 350 925 q 269 838 274 925 l 197 838 q 235 958 199 915 q 331 1000 272 1000 q 385 989 361 1000 q 436 956 410 978 q 474 930 458 938 q 506 922 489 922 q 546 942 532 922 q 564 1014 560 963 l 636 1014 q 596 891 632 935 q 500 847 560 847 z "},"ö":{"ha":833,"x_min":81,"x_max":753,"o":"m 417 -17 q 240 31 315 -17 q 122 165 164 78 q 81 368 81 251 q 122 572 81 485 q 240 706 164 658 q 417 753 315 753 q 593 706 517 753 q 711 572 669 658 q 753 368 753 485 q 711 165 753 251 q 593 31 669 78 q 417 -17 517 -17 m 417 94 q 574 167 518 94 q 631 368 631 240 q 574 569 631 496 q 417 642 518 642 q 259 569 315 642 q 203 368 203 497 q 259 167 203 239 q 417 94 315 94 z "},"÷":{"ha":833,"x_min":86,"x_max":747,"o":"m 86 507 l 747 507 l 747 399 l 86 399 l 86 507 m 417 117 q 358 141 382 117 q 333 200 333 165 q 358 259 333 235 q 417 283 382 283 q 476 259 451 283 q 500 200 500 235 q 476 141 500 165 q 417 117 451 117 m 417 635 q 358 659 382 635 q 333 718 333 683 q 358 777 333 753 q 417 801 382 801 q 476 777 451 801 q 500 718 500 753 q 476 659 500 683 q 417 635 451 635 z "},"ø":{"ha":833,"x_min":49,"x_max":783,"o":"m 663 753 l 783 753 l 169 -17 l 49 -17 l 663 753 m 417 -17 q 240 31 315 -17 q 122 165 164 78 q 81 368 81 251 q 122 572 81 485 q 240 706 164 658 q 417 753 315 753 q 593 706 517 753 q 711 572 669 658 q 753 368 753 485 q 711 165 753 251 q 593 31 669 78 q 417 -17 517 -17 m 417 94 q 574 167 518 94 q 631 368 631 240 q 574 569 631 496 q 417 642 518 642 q 259 569 315 642 q 203 368 203 497 q 259 167 203 239 q 417 94 315 94 z "},"ù":{"ha":833,"x_min":125,"x_max":700,"o":"m 365 -17 q 190 58 256 -17 q 125 263 125 132 l 125 736 l 242 736 l 242 294 q 280 137 242 188 q 397 86 318 86 q 533 142 483 86 q 583 297 583 199 l 583 736 l 700 736 l 700 0 l 589 0 l 589 182 l 607 172 q 522 33 585 82 q 365 -17 460 -17 m 240 1014 l 371 1014 l 463 836 l 365 836 l 240 1014 z "},"ú":{"ha":833,"x_min":125,"x_max":700,"o":"m 365 -17 q 190 58 256 -17 q 125 263 125 132 l 125 736 l 242 736 l 242 294 q 280 137 242 188 q 397 86 318 86 q 533 142 483 86 q 583 297 583 199 l 583 736 l 700 736 l 700 0 l 589 0 l 589 182 l 607 172 q 522 33 585 82 q 365 -17 460 -17 m 446 1014 l 576 1014 l 451 836 l 354 836 l 446 1014 z "},"û":{"ha":833,"x_min":125,"x_max":700,"o":"m 365 -17 q 190 58 256 -17 q 125 263 125 132 l 125 736 l 242 736 l 242 294 q 280 137 242 188 q 397 86 318 86 q 533 142 483 86 q 583 297 583 199 l 583 736 l 700 736 l 700 0 l 589 0 l 589 182 l 607 172 q 522 33 585 82 q 365 -17 460 -17 m 340 1015 l 471 1015 l 600 831 l 503 831 l 394 969 l 417 969 l 308 831 l 211 831 l 340 1015 z "},"ü":{"ha":833,"x_min":125,"x_max":700,"o":"m 365 -17 q 190 58 256 -17 q 125 263 125 132 l 125 736 l 242 736 l 242 294 q 280 137 242 188 q 397 86 318 86 q 533 142 483 86 q 583 297 583 199 l 583 736 l 700 736 l 700 0 l 589 0 l 589 182 l 607 172 q 522 33 585 82 q 365 -17 460 -17 z "},"ý":{"ha":833,"x_min":75,"x_max":764,"o":"m 192 -106 l 276 -106 q 333 -94 314 -106 q 363 -56 351 -82 l 389 14 l 349 14 l 75 736 l 203 736 l 426 122 l 636 736 l 764 736 l 465 -93 q 403 -181 444 -153 q 288 -208 361 -208 l 192 -208 l 192 -106 m 460 1014 l 590 1014 l 465 836 l 368 836 l 460 1014 z "},"þ":{"ha":833,"x_min":111,"x_max":764,"o":"m 111 986 l 219 986 l 222 569 l 206 578 q 297 708 232 663 q 447 753 361 753 q 624 701 553 753 q 729 561 694 649 q 764 368 764 474 q 729 175 764 263 q 624 35 694 88 q 447 -17 553 -17 q 341 3 390 -17 q 258 58 292 22 q 211 139 224 93 l 228 158 l 228 -208 l 111 -208 l 111 986 m 436 94 q 587 167 532 94 q 642 368 642 239 q 587 569 642 497 q 436 642 532 642 q 325 610 372 642 q 253 518 278 579 q 228 368 228 457 q 253 218 228 279 q 324 126 278 157 q 436 94 371 94 z "},"ÿ":{"ha":833,"x_min":75,"x_max":764,"o":"m 192 -106 l 276 -106 q 333 -94 314 -106 q 363 -56 351 -82 l 389 14 l 349 14 l 75 736 l 203 736 l 426 122 l 636 736 l 764 736 l 465 -93 q 403 -181 444 -153 q 288 -208 361 -208 l 192 -208 l 192 -106 z "},"Ā":{"ha":833,"x_min":36,"x_max":797,"o":"m 336 986 l 497 986 l 797 0 l 675 0 l 417 878 l 158 0 l 36 0 l 336 986 m 229 389 l 604 389 l 646 275 l 188 275 l 229 389 m 229 1218 l 601 1218 l 601 1118 l 229 1118 l 229 1218 z "},"ā":{"ha":833,"x_min":75,"x_max":764,"o":"m 319 -17 q 194 8 250 -17 q 107 79 139 33 q 75 183 75 125 q 131 329 75 276 q 308 406 186 382 l 556 456 q 514 595 556 549 q 392 642 472 642 q 273 608 317 642 q 213 510 229 575 l 89 519 q 190 690 110 626 q 392 753 269 753 q 599 673 525 753 q 672 453 672 593 l 672 147 q 683 113 672 122 q 717 103 693 103 l 764 103 l 764 0 q 703 -3 742 -3 q 593 33 629 -3 q 556 150 557 69 l 578 150 q 490 31 564 78 q 319 -17 415 -17 m 331 86 q 455 112 404 86 q 531 183 506 138 q 556 292 556 229 l 556 356 l 331 311 q 227 269 257 297 q 197 194 197 242 q 233 115 197 143 q 331 86 268 86 m 207 968 l 579 968 l 579 868 l 207 868 l 207 968 z "},"Ă":{"ha":833,"x_min":36,"x_max":797,"o":"m 336 986 l 497 986 l 797 0 l 675 0 l 417 878 l 158 0 l 36 0 l 336 986 m 229 389 l 604 389 l 646 275 l 188 275 l 229 389 m 417 1088 q 279 1135 332 1088 q 222 1265 226 1183 l 303 1265 q 338 1196 308 1218 q 417 1174 368 1174 q 495 1196 465 1174 q 531 1265 525 1218 l 611 1265 q 554 1135 607 1183 q 417 1088 501 1088 z "},"ă":{"ha":833,"x_min":75,"x_max":764,"o":"m 319 -17 q 194 8 250 -17 q 107 79 139 33 q 75 183 75 125 q 131 329 75 276 q 308 406 186 382 l 556 456 q 514 595 556 549 q 392 642 472 642 q 273 608 317 642 q 213 510 229 575 l 89 519 q 190 690 110 626 q 392 753 269 753 q 599 673 525 753 q 672 453 672 593 l 672 147 q 683 113 672 122 q 717 103 693 103 l 764 103 l 764 0 q 703 -3 742 -3 q 593 33 629 -3 q 556 150 557 69 l 578 150 q 490 31 564 78 q 319 -17 415 -17 m 331 86 q 455 112 404 86 q 531 183 506 138 q 556 292 556 229 l 556 356 l 331 311 q 227 269 257 297 q 197 194 197 242 q 233 115 197 143 q 331 86 268 86 m 394 838 q 257 885 310 838 q 200 1015 204 933 l 281 1015 q 316 946 286 968 q 394 924 346 924 q 473 946 443 924 q 508 1015 503 968 l 589 1015 q 532 885 585 933 q 394 838 479 838 z "},"Ą":{"ha":833,"x_min":36,"x_max":831,"o":"m 336 986 l 497 986 l 797 0 l 675 0 l 417 878 l 158 0 l 36 0 l 336 986 m 229 389 l 604 389 l 646 275 l 188 275 l 229 389 m 711 -292 q 619 -262 653 -292 q 586 -181 586 -232 q 600 -112 586 -146 q 643 -42 614 -78 l 688 14 l 783 0 l 735 -62 q 701 -117 710 -96 q 692 -156 692 -137 q 703 -187 692 -176 q 733 -197 714 -197 q 768 -192 750 -197 q 797 -178 786 -187 l 831 -256 q 782 -282 814 -272 q 711 -292 750 -292 z "},"ą":{"ha":833,"x_min":75,"x_max":811,"o":"m 319 -17 q 194 8 250 -17 q 107 79 139 33 q 75 183 75 125 q 131 329 75 276 q 308 406 186 382 l 556 456 q 514 595 556 549 q 392 642 472 642 q 273 608 317 642 q 213 510 229 575 l 89 519 q 190 690 110 626 q 392 753 269 753 q 599 673 525 753 q 672 453 672 593 l 672 147 q 683 113 672 122 q 717 103 693 103 l 764 103 l 764 0 q 703 -3 742 -3 q 593 33 629 -3 q 556 150 557 69 l 578 150 q 490 31 564 78 q 319 -17 415 -17 m 331 86 q 455 112 404 86 q 531 183 506 138 q 556 292 556 229 l 556 356 l 331 311 q 227 269 257 297 q 197 194 197 242 q 233 115 197 143 q 331 86 268 86 m 692 -292 q 600 -262 633 -292 q 567 -181 567 -232 q 581 -112 567 -146 q 624 -42 594 -78 l 668 14 l 764 0 l 715 -62 q 681 -117 690 -96 q 672 -156 672 -137 q 683 -187 672 -176 q 714 -197 694 -197 q 749 -192 731 -197 q 778 -178 767 -187 l 811 -256 q 763 -282 794 -272 q 692 -292 731 -292 z "},"Ć":{"ha":833,"x_min":53,"x_max":772,"o":"m 419 -22 q 220 40 303 -22 q 95 218 138 103 q 53 492 53 333 q 95 767 53 651 q 220 946 138 883 q 419 1008 303 1008 q 642 923 550 1008 q 764 685 733 838 l 636 676 q 556 836 613 781 q 419 892 499 892 q 288 845 342 892 q 206 709 233 799 q 178 492 178 619 q 206 276 178 365 q 288 141 233 188 q 419 94 342 94 q 566 156 507 94 q 646 332 625 217 l 772 325 q 651 70 744 163 q 419 -22 558 -22 m 458 1264 l 589 1264 l 464 1086 l 367 1086 l 458 1264 z "},"ć":{"ha":833,"x_min":97,"x_max":750,"o":"m 436 -17 q 258 31 335 -17 q 139 165 181 78 q 97 368 97 253 q 139 571 97 483 q 258 706 181 658 q 436 753 335 753 q 582 723 518 753 q 688 636 646 693 q 744 497 729 579 l 622 489 q 556 601 606 561 q 436 642 507 642 q 277 569 335 642 q 219 368 219 496 q 277 167 219 240 q 436 94 335 94 q 560 138 510 94 q 628 261 611 181 l 750 253 q 642 56 726 129 q 436 -17 558 -17 m 474 1014 l 604 1014 l 479 836 l 382 836 l 474 1014 z "},"Ĉ":{"ha":833,"x_min":53,"x_max":772,"o":"m 419 -22 q 220 40 303 -22 q 95 218 138 103 q 53 492 53 333 q 95 767 53 651 q 220 946 138 883 q 419 1008 303 1008 q 642 923 550 1008 q 764 685 733 838 l 636 676 q 556 836 613 781 q 419 892 499 892 q 288 845 342 892 q 206 709 233 799 q 178 492 178 619 q 206 276 178 365 q 288 141 233 188 q 419 94 342 94 q 566 156 507 94 q 646 332 625 217 l 772 325 q 651 70 744 163 q 419 -22 558 -22 m 353 1265 l 483 1265 l 613 1081 l 515 1081 l 407 1219 l 429 1219 l 321 1081 l 224 1081 l 353 1265 z "},"ĉ":{"ha":833,"x_min":97,"x_max":750,"o":"m 436 -17 q 258 31 335 -17 q 139 165 181 78 q 97 368 97 253 q 139 571 97 483 q 258 706 181 658 q 436 753 335 753 q 582 723 518 753 q 688 636 646 693 q 744 497 729 579 l 622 489 q 556 601 606 561 q 436 642 507 642 q 277 569 335 642 q 219 368 219 496 q 277 167 219 240 q 436 94 335 94 q 560 138 510 94 q 628 261 611 181 l 750 253 q 642 56 726 129 q 436 -17 558 -17 m 368 1015 l 499 1015 l 628 831 l 531 831 l 422 969 l 444 969 l 336 831 l 239 831 l 368 1015 z "},"Ċ":{"ha":833,"x_min":53,"x_max":772,"o":"m 419 -22 q 220 40 303 -22 q 95 218 138 103 q 53 492 53 333 q 95 767 53 651 q 220 946 138 883 q 419 1008 303 1008 q 642 923 550 1008 q 764 685 733 838 l 636 676 q 556 836 613 781 q 419 892 499 892 q 288 845 342 892 q 206 709 233 799 q 178 492 178 619 q 206 276 178 365 q 288 141 233 188 q 419 94 342 94 q 566 156 507 94 q 646 332 625 217 l 772 325 q 651 70 744 163 q 419 -22 558 -22 m 357 1238 l 479 1238 l 479 1101 l 357 1101 l 357 1238 z "},"ċ":{"ha":833,"x_min":97,"x_max":750,"o":"m 436 -17 q 258 31 335 -17 q 139 165 181 78 q 97 368 97 253 q 139 571 97 483 q 258 706 181 658 q 436 753 335 753 q 582 723 518 753 q 688 636 646 693 q 744 497 729 579 l 622 489 q 556 601 606 561 q 436 642 507 642 q 277 569 335 642 q 219 368 219 496 q 277 167 219 240 q 436 94 335 94 q 560 138 510 94 q 628 261 611 181 l 750 253 q 642 56 726 129 q 436 -17 558 -17 m 372 988 l 494 988 l 494 851 l 372 851 l 372 988 z "},"Č":{"ha":833,"x_min":53,"x_max":772,"o":"m 419 -22 q 220 40 303 -22 q 95 218 138 103 q 53 492 53 333 q 95 767 53 651 q 220 946 138 883 q 419 1008 303 1008 q 642 923 550 1008 q 764 685 733 838 l 636 676 q 556 836 613 781 q 419 892 499 892 q 288 845 342 892 q 206 709 233 799 q 178 492 178 619 q 206 276 178 365 q 288 141 233 188 q 419 94 342 94 q 566 156 507 94 q 646 332 625 217 l 772 325 q 651 70 744 163 q 419 -22 558 -22 m 322 1264 l 431 1125 l 408 1125 l 517 1264 l 614 1264 l 485 1079 l 354 1079 l 225 1264 l 322 1264 z "},"č":{"ha":833,"x_min":97,"x_max":750,"o":"m 436 -17 q 258 31 335 -17 q 139 165 181 78 q 97 368 97 253 q 139 571 97 483 q 258 706 181 658 q 436 753 335 753 q 582 723 518 753 q 688 636 646 693 q 744 497 729 579 l 622 489 q 556 601 606 561 q 436 642 507 642 q 277 569 335 642 q 219 368 219 496 q 277 167 219 240 q 436 94 335 94 q 560 138 510 94 q 628 261 611 181 l 750 253 q 642 56 726 129 q 436 -17 558 -17 m 338 1014 l 446 875 l 424 875 l 532 1014 l 629 1014 l 500 829 l 369 829 l 240 1014 l 338 1014 z "},"Ď":{"ha":833,"x_min":125,"x_max":781,"o":"m 125 986 l 358 986 q 581 928 486 986 q 728 759 676 871 q 781 492 781 647 q 728 225 781 336 q 581 57 676 114 q 358 0 486 0 l 125 0 l 125 986 m 351 114 q 576 210 497 114 q 656 492 656 307 q 576 775 656 678 q 351 872 497 872 l 244 872 l 244 114 l 351 114 m 321 1264 l 429 1125 l 407 1125 l 515 1264 l 613 1264 l 483 1079 l 353 1079 l 224 1264 l 321 1264 z "},"ď":{"ha":833,"x_min":69,"x_max":907,"o":"m 385 -17 q 217 31 289 -17 q 108 165 146 78 q 69 368 69 251 q 108 572 69 485 q 217 706 146 658 q 385 753 289 753 q 517 718 457 753 q 606 633 576 683 l 606 986 l 722 986 l 722 0 l 617 0 l 613 111 q 521 17 581 50 q 385 -17 461 -17 m 392 94 q 506 128 458 94 q 580 223 554 161 q 606 368 606 285 q 580 515 606 453 q 506 609 554 576 q 389 642 457 642 q 244 569 297 642 q 192 368 192 496 q 245 168 192 242 q 392 94 299 94 m 792 986 l 907 986 l 835 650 l 750 650 l 792 986 z "},"Đ":{"ha":833,"x_min":-14,"x_max":835,"o":"m -14 544 l 431 544 l 431 442 l -14 442 l -14 544 m 179 986 l 413 986 q 635 928 540 986 q 783 759 731 871 q 835 492 835 647 q 783 225 835 336 q 635 57 731 114 q 413 0 540 0 l 179 0 l 179 986 m 406 114 q 631 210 551 114 q 710 492 710 307 q 631 775 710 678 q 406 872 551 872 l 299 872 l 299 114 l 406 114 z "},"đ":{"ha":833,"x_min":69,"x_max":807,"o":"m 456 914 l 807 914 l 807 811 l 456 811 l 456 914 m 385 -17 q 217 31 289 -17 q 108 165 146 78 q 69 368 69 251 q 108 572 69 485 q 217 706 146 658 q 385 753 289 753 q 517 718 457 753 q 606 633 576 683 l 606 986 l 722 986 l 722 0 l 617 0 l 613 111 q 521 17 581 50 q 385 -17 461 -17 m 392 94 q 506 128 458 94 q 580 223 554 161 q 606 368 606 285 q 580 515 606 453 q 506 609 554 576 q 389 642 457 642 q 244 569 297 642 q 192 368 192 496 q 245 168 192 242 q 392 94 299 94 z "},"Ē":{"ha":833,"x_min":125,"x_max":736,"o":"m 125 986 l 725 986 l 725 872 l 244 872 l 244 553 l 708 553 l 708 439 l 244 439 l 244 114 l 736 114 l 736 0 l 125 0 l 125 986 m 254 1219 l 626 1219 l 626 1119 l 254 1119 l 254 1219 z "},"ē":{"ha":833,"x_min":92,"x_max":750,"o":"m 429 -17 q 250 31 326 -17 q 133 165 174 78 q 92 368 92 251 q 133 571 92 483 q 249 706 174 658 q 424 753 324 753 q 594 708 519 753 q 709 575 668 663 q 750 367 750 488 l 750 332 l 214 332 q 276 155 219 215 q 429 94 332 94 q 547 127 500 94 q 613 218 593 160 l 738 208 q 626 45 708 107 q 429 -17 543 -17 m 622 435 q 561 590 614 538 q 424 642 508 642 q 283 589 338 642 q 214 435 228 536 l 622 435 m 238 965 l 610 965 l 610 865 l 238 865 l 238 965 z "},"Ė":{"ha":833,"x_min":125,"x_max":736,"o":"m 125 986 l 725 986 l 725 872 l 244 872 l 244 553 l 708 553 l 708 439 l 244 439 l 244 114 l 736 114 l 736 0 l 125 0 l 125 986 m 379 1239 l 501 1239 l 501 1103 l 379 1103 l 379 1239 z "},"ė":{"ha":833,"x_min":92,"x_max":750,"o":"m 429 -17 q 250 31 326 -17 q 133 165 174 78 q 92 368 92 251 q 133 571 92 483 q 249 706 174 658 q 424 753 324 753 q 594 708 519 753 q 709 575 668 663 q 750 367 750 488 l 750 332 l 214 332 q 276 155 219 215 q 429 94 332 94 q 547 127 500 94 q 613 218 593 160 l 738 208 q 626 45 708 107 q 429 -17 543 -17 m 622 435 q 561 590 614 538 q 424 642 508 642 q 283 589 338 642 q 214 435 228 536 l 622 435 m 363 985 l 485 985 l 485 849 l 363 849 l 363 985 z "},"Ę":{"ha":833,"x_min":125,"x_max":789,"o":"m 125 986 l 725 986 l 725 872 l 244 872 l 244 553 l 708 553 l 708 439 l 244 439 l 244 114 l 736 114 l 736 0 l 125 0 l 125 986 m 669 -292 q 578 -262 611 -292 q 544 -181 544 -232 q 558 -112 544 -146 q 601 -42 572 -78 l 646 14 l 742 0 l 693 -62 q 659 -117 668 -96 q 650 -156 650 -137 q 661 -187 650 -176 q 692 -197 672 -197 q 726 -192 708 -197 q 756 -178 744 -187 l 789 -256 q 740 -282 772 -272 q 669 -292 708 -292 z "},"ę":{"ha":833,"x_min":92,"x_max":750,"o":"m 429 -17 q 250 31 326 -17 q 133 165 174 78 q 92 368 92 251 q 133 571 92 483 q 249 706 174 658 q 424 753 324 753 q 594 708 519 753 q 709 575 668 663 q 750 367 750 488 l 750 332 l 214 332 q 276 155 219 215 q 429 94 332 94 q 547 127 500 94 q 613 218 593 160 l 738 208 q 626 45 708 107 q 429 -17 543 -17 m 622 435 q 561 590 614 538 q 424 642 508 642 q 283 589 338 642 q 214 435 228 536 l 622 435 m 536 -258 q 444 -228 478 -258 q 411 -147 411 -199 q 425 -78 411 -112 q 468 -8 439 -44 l 513 47 l 608 33 l 560 -29 q 526 -83 535 -62 q 517 -122 517 -104 q 528 -153 517 -143 q 558 -164 539 -164 q 593 -159 575 -164 q 622 -144 611 -154 l 656 -222 q 607 -249 639 -239 q 536 -258 575 -258 z "},"Ě":{"ha":833,"x_min":125,"x_max":736,"o":"m 125 986 l 725 986 l 725 872 l 244 872 l 244 553 l 708 553 l 708 439 l 244 439 l 244 114 l 736 114 l 736 0 l 125 0 l 125 986 m 344 1265 l 453 1126 l 431 1126 l 539 1265 l 636 1265 l 507 1081 l 376 1081 l 247 1265 l 344 1265 z "},"ě":{"ha":833,"x_min":92,"x_max":750,"o":"m 429 -17 q 250 31 326 -17 q 133 165 174 78 q 92 368 92 251 q 133 571 92 483 q 249 706 174 658 q 424 753 324 753 q 594 708 519 753 q 709 575 668 663 q 750 367 750 488 l 750 332 l 214 332 q 276 155 219 215 q 429 94 332 94 q 547 127 500 94 q 613 218 593 160 l 738 208 q 626 45 708 107 q 429 -17 543 -17 m 622 435 q 561 590 614 538 q 424 642 508 642 q 283 589 338 642 q 214 435 228 536 l 622 435 m 328 1011 l 436 872 l 414 872 l 522 1011 l 619 1011 l 490 826 l 360 826 l 231 1011 l 328 1011 z "},"Ĝ":{"ha":833,"x_min":53,"x_max":769,"o":"m 414 -22 q 226 37 308 -22 q 99 211 144 96 q 53 492 53 326 q 97 767 53 650 q 223 946 140 883 q 419 1008 306 1008 q 642 922 551 1008 q 765 692 732 836 l 640 683 q 560 835 615 779 q 419 892 504 892 q 289 845 343 892 q 206 709 235 799 q 178 492 178 619 q 207 276 178 365 q 292 141 236 188 q 425 94 347 94 q 544 132 492 94 q 626 235 596 169 q 658 383 656 301 l 422 383 l 422 497 l 769 497 l 769 0 l 658 0 l 653 233 l 692 219 q 592 41 658 104 q 414 -22 525 -22 m 349 1265 l 479 1265 l 608 1081 l 511 1081 l 403 1219 l 425 1219 l 317 1081 l 219 1081 l 349 1265 z "},"ĝ":{"ha":833,"x_min":83,"x_max":736,"o":"m 413 -225 q 270 -199 335 -225 q 163 -124 206 -172 q 104 -11 119 -75 l 226 -3 q 288 -86 244 -58 q 413 -114 331 -114 q 567 -74 514 -114 q 619 47 619 -33 l 619 167 q 534 74 592 108 q 404 39 476 39 q 238 84 311 39 q 124 210 165 129 q 83 396 83 292 q 124 581 83 500 q 235 708 164 663 q 399 753 307 753 q 538 717 476 753 q 625 619 600 681 l 625 736 l 736 736 l 736 50 q 650 -152 736 -79 q 413 -225 564 -225 m 410 150 q 519 180 472 150 q 593 265 567 210 q 619 396 619 321 q 595 526 621 471 q 522 612 569 582 q 410 642 474 642 q 260 576 314 642 q 206 396 206 510 q 260 216 206 282 q 410 150 315 150 m 347 1015 l 478 1015 l 607 831 l 510 831 l 401 969 l 424 969 l 315 831 l 218 831 l 347 1015 z "},"Ğ":{"ha":833,"x_min":53,"x_max":769,"o":"m 414 -22 q 226 37 308 -22 q 99 211 144 96 q 53 492 53 326 q 97 767 53 650 q 223 946 140 883 q 419 1008 306 1008 q 642 922 551 1008 q 765 692 732 836 l 640 683 q 560 835 615 779 q 419 892 504 892 q 289 845 343 892 q 206 709 235 799 q 178 492 178 619 q 207 276 178 365 q 292 141 236 188 q 425 94 347 94 q 544 132 492 94 q 626 235 596 169 q 658 383 656 301 l 422 383 l 422 497 l 769 497 l 769 0 l 658 0 l 653 233 l 692 219 q 592 41 658 104 q 414 -22 525 -22 m 415 1088 q 278 1135 331 1088 q 221 1265 225 1183 l 301 1265 q 337 1196 307 1218 q 415 1174 367 1174 q 494 1196 464 1174 q 529 1265 524 1218 l 610 1265 q 553 1135 606 1183 q 415 1088 500 1088 z "},"ğ":{"ha":833,"x_min":83,"x_max":736,"o":"m 413 -225 q 270 -199 335 -225 q 163 -124 206 -172 q 104 -11 119 -75 l 226 -3 q 288 -86 244 -58 q 413 -114 331 -114 q 567 -74 514 -114 q 619 47 619 -33 l 619 167 q 534 74 592 108 q 404 39 476 39 q 238 84 311 39 q 124 210 165 129 q 83 396 83 292 q 124 581 83 500 q 235 708 164 663 q 399 753 307 753 q 538 717 476 753 q 625 619 600 681 l 625 736 l 736 736 l 736 50 q 650 -152 736 -79 q 413 -225 564 -225 m 410 150 q 519 180 472 150 q 593 265 567 210 q 619 396 619 321 q 595 526 621 471 q 522 612 569 582 q 410 642 474 642 q 260 576 314 642 q 206 396 206 510 q 260 216 206 282 q 410 150 315 150 m 414 838 q 276 885 329 838 q 219 1015 224 933 l 300 1015 q 335 946 306 968 q 414 924 365 924 q 492 946 463 924 q 528 1015 522 968 l 608 1015 q 551 885 604 933 q 414 838 499 838 z "},"Ġ":{"ha":833,"x_min":53,"x_max":769,"o":"m 414 -22 q 226 37 308 -22 q 99 211 144 96 q 53 492 53 326 q 97 767 53 650 q 223 946 140 883 q 419 1008 306 1008 q 642 922 551 1008 q 765 692 732 836 l 640 683 q 560 835 615 779 q 419 892 504 892 q 289 845 343 892 q 206 709 235 799 q 178 492 178 619 q 207 276 178 365 q 292 141 236 188 q 425 94 347 94 q 544 132 492 94 q 626 235 596 169 q 658 383 656 301 l 422 383 l 422 497 l 769 497 l 769 0 l 658 0 l 653 233 l 692 219 q 592 41 658 104 q 414 -22 525 -22 m 353 1238 l 475 1238 l 475 1101 l 353 1101 l 353 1238 z "},"ġ":{"ha":833,"x_min":83,"x_max":736,"o":"m 413 -225 q 270 -199 335 -225 q 163 -124 206 -172 q 104 -11 119 -75 l 226 -3 q 288 -86 244 -58 q 413 -114 331 -114 q 567 -74 514 -114 q 619 47 619 -33 l 619 167 q 534 74 592 108 q 404 39 476 39 q 238 84 311 39 q 124 210 165 129 q 83 396 83 292 q 124 581 83 500 q 235 708 164 663 q 399 753 307 753 q 538 717 476 753 q 625 619 600 681 l 625 736 l 736 736 l 736 50 q 650 -152 736 -79 q 413 -225 564 -225 m 410 150 q 519 180 472 150 q 593 265 567 210 q 619 396 619 321 q 595 526 621 471 q 522 612 569 582 q 410 642 474 642 q 260 576 314 642 q 206 396 206 510 q 260 216 206 282 q 410 150 315 150 m 351 988 l 474 988 l 474 851 l 351 851 l 351 988 z "},"Ģ":{"ha":833,"x_min":53,"x_max":769,"o":"m 414 -22 q 226 37 308 -22 q 99 211 144 96 q 53 492 53 326 q 97 767 53 650 q 223 946 140 883 q 419 1008 306 1008 q 642 922 551 1008 q 765 692 732 836 l 640 683 q 560 835 615 779 q 419 892 504 892 q 289 845 343 892 q 206 709 235 799 q 178 492 178 619 q 207 276 178 365 q 292 141 236 188 q 425 94 347 94 q 544 132 492 94 q 626 235 596 169 q 658 383 656 301 l 422 383 l 422 497 l 769 497 l 769 0 l 658 0 l 653 233 l 692 219 q 592 41 658 104 q 414 -22 525 -22 m 407 -172 l 360 -172 l 360 -47 l 499 -47 l 499 -167 l 410 -297 l 332 -297 l 407 -172 z "},"ģ":{"ha":833,"x_min":83,"x_max":736,"o":"m 413 -225 q 270 -199 335 -225 q 163 -124 206 -172 q 104 -11 119 -75 l 226 -3 q 288 -86 244 -58 q 413 -114 331 -114 q 567 -74 514 -114 q 619 47 619 -33 l 619 167 q 534 74 592 108 q 404 39 476 39 q 238 84 311 39 q 124 210 165 129 q 83 396 83 292 q 124 581 83 500 q 235 708 164 663 q 399 753 307 753 q 538 717 476 753 q 625 619 600 681 l 625 736 l 736 736 l 736 50 q 650 -152 736 -79 q 413 -225 564 -225 m 410 150 q 519 180 472 150 q 593 265 567 210 q 619 396 619 321 q 595 526 621 471 q 522 612 569 582 q 410 642 474 642 q 260 576 314 642 q 206 396 206 510 q 260 216 206 282 q 410 150 315 150 z "},"Ĥ":{"ha":833,"x_min":94,"x_max":739,"o":"m 94 986 l 214 986 l 214 507 l 153 553 l 681 553 l 619 507 l 619 986 l 739 986 l 739 0 l 619 0 l 619 485 l 681 439 l 153 439 l 214 485 l 214 0 l 94 0 l 94 986 m 350 1265 l 481 1265 l 610 1081 l 513 1081 l 404 1219 l 426 1219 l 318 1081 l 221 1081 l 350 1265 z "},"ĥ":{"ha":833,"x_min":3,"x_max":722,"o":"m 139 986 l 256 986 l 256 574 l 242 576 q 324 709 261 665 q 476 753 386 753 q 658 676 593 753 q 722 474 722 600 l 722 0 l 606 0 l 606 440 q 567 598 606 546 q 451 650 529 650 q 308 594 361 650 q 256 439 256 539 l 256 0 l 139 0 l 139 986 m 132 1265 l 263 1265 l 392 1081 l 294 1081 l 186 1219 l 208 1219 l 100 1081 l 3 1081 l 132 1265 z "},"Ħ":{"ha":833,"x_min":33,"x_max":800,"o":"m 588 986 l 707 986 l 707 0 l 588 0 l 588 986 m 126 986 l 246 986 l 246 0 l 126 0 l 126 986 m 149 561 l 685 561 l 685 444 l 149 444 l 149 561 m 33 851 l 800 851 l 800 735 l 33 735 l 33 851 z "},"ħ":{"ha":833,"x_min":35,"x_max":722,"o":"m 35 914 l 388 914 l 388 811 l 35 811 l 35 914 m 139 986 l 256 986 l 256 574 l 242 576 q 324 709 261 665 q 476 753 386 753 q 658 676 593 753 q 722 474 722 600 l 722 0 l 606 0 l 606 440 q 567 598 606 546 q 451 650 529 650 q 308 594 361 650 q 256 439 256 539 l 256 0 l 139 0 l 139 986 z "},"Ĩ":{"ha":833,"x_min":111,"x_max":722,"o":"m 111 114 l 357 114 l 357 872 l 111 872 l 111 986 l 722 986 l 722 872 l 476 872 l 476 114 l 722 114 l 722 0 l 111 0 l 111 114 m 500 1097 q 451 1108 475 1097 q 403 1139 428 1118 q 363 1168 376 1161 q 331 1175 350 1175 q 269 1088 274 1175 l 197 1088 q 235 1208 199 1165 q 331 1250 272 1250 q 385 1239 361 1250 q 436 1206 410 1228 q 474 1180 458 1188 q 506 1172 489 1172 q 546 1192 532 1172 q 564 1264 560 1213 l 636 1264 q 596 1141 632 1185 q 500 1097 560 1097 z "},"ĩ":{"ha":833,"x_min":111,"x_max":778,"o":"m 407 736 l 524 736 l 524 0 l 407 0 l 407 736 m 111 103 l 778 103 l 778 0 l 111 0 l 111 103 m 125 736 l 524 736 l 524 633 l 125 633 l 125 736 m 542 847 q 493 858 517 847 q 444 889 469 868 q 405 918 418 911 q 372 925 392 925 q 311 838 315 925 l 239 838 q 277 958 240 915 q 372 1000 314 1000 q 427 989 403 1000 q 478 956 451 978 q 515 930 500 938 q 547 922 531 922 q 588 942 574 922 q 606 1014 601 963 l 678 1014 q 638 891 674 935 q 542 847 601 847 z "},"Ī":{"ha":833,"x_min":111,"x_max":722,"o":"m 111 114 l 357 114 l 357 872 l 111 872 l 111 986 l 722 986 l 722 872 l 476 872 l 476 114 l 722 114 l 722 0 l 111 0 l 111 114 m 229 1218 l 601 1218 l 601 1118 l 229 1118 l 229 1218 z "},"ī":{"ha":833,"x_min":111,"x_max":778,"o":"m 407 736 l 524 736 l 524 0 l 407 0 l 407 736 m 111 103 l 778 103 l 778 0 l 111 0 l 111 103 m 125 736 l 524 736 l 524 633 l 125 633 l 125 736 m 271 968 l 643 968 l 643 868 l 271 868 l 271 968 z "},"Į":{"ha":833,"x_min":111,"x_max":769,"o":"m 111 114 l 357 114 l 357 872 l 111 872 l 111 986 l 722 986 l 722 872 l 476 872 l 476 114 l 722 114 l 722 0 l 111 0 l 111 114 m 650 -292 q 558 -262 592 -292 q 525 -181 525 -232 q 539 -112 525 -146 q 582 -42 553 -78 l 626 14 l 722 0 l 674 -62 q 640 -117 649 -96 q 631 -156 631 -137 q 642 -187 631 -176 q 672 -197 653 -197 q 707 -192 689 -197 q 736 -178 725 -187 l 769 -256 q 721 -282 753 -272 q 650 -292 689 -292 z "},"į":{"ha":833,"x_min":111,"x_max":825,"o":"m 407 736 l 524 736 l 524 0 l 407 0 l 407 736 m 111 103 l 778 103 l 778 0 l 111 0 l 111 103 m 125 736 l 524 736 l 524 633 l 125 633 l 125 736 m 396 988 l 518 988 l 518 851 l 396 851 l 396 988 m 706 -292 q 614 -262 647 -292 q 581 -181 581 -232 q 594 -112 581 -146 q 638 -42 608 -78 l 682 14 l 778 0 l 729 -62 q 695 -117 704 -96 q 686 -156 686 -137 q 697 -187 686 -176 q 728 -197 708 -197 q 763 -192 744 -197 q 792 -178 781 -187 l 825 -256 q 776 -282 808 -272 q 706 -292 744 -292 z "},"İ":{"ha":833,"x_min":111,"x_max":722,"o":"m 111 114 l 357 114 l 357 872 l 111 872 l 111 986 l 722 986 l 722 872 l 476 872 l 476 114 l 722 114 l 722 0 l 111 0 l 111 114 m 354 1238 l 476 1238 l 476 1101 l 354 1101 l 354 1238 z "},"ı":{"ha":833,"x_min":111,"x_max":778,"o":"m 407 736 l 524 736 l 524 0 l 407 0 l 407 736 m 111 103 l 778 103 l 778 0 l 111 0 l 111 103 m 125 736 l 524 736 l 524 633 l 125 633 l 125 736 z "},"Ĵ":{"ha":833,"x_min":56,"x_max":839,"o":"m 382 -22 q 212 20 285 -22 q 99 140 139 63 q 56 319 58 217 l 172 331 q 228 152 176 210 q 382 94 279 94 q 538 154 486 94 q 589 331 589 214 l 589 986 l 708 986 l 708 331 q 620 72 708 167 q 382 -22 532 -22 m 579 1265 l 710 1265 l 839 1081 l 742 1081 l 633 1219 l 656 1219 l 547 1081 l 450 1081 l 579 1265 z "},"ĵ":{"ha":833,"x_min":153,"x_max":744,"o":"m 153 -106 l 413 -106 q 472 -76 450 -106 q 494 0 494 -46 l 494 736 l 611 736 l 611 0 q 563 -152 611 -96 q 425 -208 515 -208 l 153 -208 l 153 -106 m 167 736 l 561 736 l 561 633 l 167 633 l 167 736 m 485 1015 l 615 1015 l 744 831 l 647 831 l 539 969 l 561 969 l 453 831 l 356 831 l 485 1015 z "},"Ķ":{"ha":833,"x_min":83,"x_max":778,"o":"m 83 986 l 203 986 l 203 550 l 603 986 l 750 986 l 375 572 l 778 0 l 631 0 l 292 489 l 203 394 l 203 0 l 83 0 l 83 986 m 386 -172 l 339 -172 l 339 -47 l 478 -47 l 478 -167 l 389 -297 l 311 -297 l 386 -172 z "},"ķ":{"ha":833,"x_min":125,"x_max":769,"o":"m 125 986 l 242 986 l 242 340 l 600 736 l 756 736 l 465 424 l 769 0 l 628 0 l 386 344 l 242 192 l 242 0 l 125 0 l 125 986 m 421 -172 l 374 -172 l 374 -47 l 513 -47 l 513 -167 l 424 -297 l 346 -297 l 421 -172 z "},"Ĺ":{"ha":833,"x_min":139,"x_max":750,"o":"m 139 986 l 258 986 l 258 56 l 199 114 l 750 114 l 750 0 l 139 0 l 139 986 m 238 1264 l 368 1264 l 243 1086 l 146 1086 l 238 1264 z "},"ĺ":{"ha":833,"x_min":111,"x_max":778,"o":"m 407 789 q 382 858 407 833 q 313 883 357 883 l 139 883 l 139 986 l 318 986 q 472 934 419 986 q 524 781 524 882 l 524 0 l 407 0 l 407 789 m 111 103 l 778 103 l 778 0 l 111 0 l 111 103 m 456 1264 l 586 1264 l 461 1086 l 364 1086 l 456 1264 z "},"Ļ":{"ha":833,"x_min":139,"x_max":750,"o":"m 139 986 l 258 986 l 258 56 l 199 114 l 750 114 l 750 0 l 139 0 l 139 986 m 438 -172 l 390 -172 l 390 -47 l 529 -47 l 529 -167 l 440 -297 l 363 -297 l 438 -172 z "},"ļ":{"ha":833,"x_min":111,"x_max":778,"o":"m 407 789 q 382 858 407 833 q 313 883 357 883 l 139 883 l 139 986 l 318 986 q 472 934 419 986 q 524 781 524 882 l 524 0 l 407 0 l 407 789 m 111 103 l 778 103 l 778 0 l 111 0 l 111 103 m 408 -172 l 361 -172 l 361 -47 l 500 -47 l 500 -167 l 411 -297 l 333 -297 l 408 -172 z "},"Ľ":{"ha":833,"x_min":139,"x_max":750,"o":"m 139 986 l 258 986 l 258 56 l 199 114 l 750 114 l 750 0 l 139 0 l 139 986 m 458 986 l 574 986 l 501 650 l 417 650 l 458 986 z "},"ľ":{"ha":833,"x_min":111,"x_max":778,"o":"m 407 789 q 382 858 407 833 q 313 883 357 883 l 139 883 l 139 986 l 318 986 q 472 934 419 986 q 524 781 524 882 l 524 0 l 407 0 l 407 789 m 111 103 l 778 103 l 778 0 l 111 0 l 111 103 m 625 986 l 740 986 l 668 650 l 583 650 l 625 986 z "},"Ł":{"ha":833,"x_min":-36,"x_max":768,"o":"m -36 515 l 392 715 l 442 610 l 14 410 l -36 515 m 157 986 l 276 986 l 276 56 l 217 114 l 768 114 l 768 0 l 157 0 l 157 986 z "},"ł":{"ha":833,"x_min":139,"x_max":806,"o":"m 315 515 l 629 660 l 672 567 l 358 422 l 315 515 m 435 789 q 410 858 435 833 q 340 883 385 883 l 167 883 l 167 986 l 346 986 q 499 934 447 986 q 551 781 551 882 l 551 0 l 435 0 l 435 789 m 139 103 l 806 103 l 806 0 l 139 0 l 139 103 z "},"Ń":{"ha":833,"x_min":97,"x_max":736,"o":"m 97 986 l 264 986 l 617 158 l 617 986 l 736 986 l 736 0 l 569 0 l 217 828 l 217 0 l 97 0 l 97 986 m 456 1264 l 586 1264 l 461 1086 l 364 1086 l 456 1264 z "},"ń":{"ha":833,"x_min":133,"x_max":717,"o":"m 133 736 l 240 736 l 244 549 l 231 561 q 315 704 250 656 q 469 753 379 753 q 653 675 590 753 q 717 474 717 597 l 717 0 l 600 0 l 600 440 q 563 597 600 544 q 444 650 526 650 q 303 595 357 650 q 250 440 250 540 l 250 0 l 133 0 l 133 736 m 464 1014 l 594 1014 l 469 836 l 372 836 l 464 1014 z "},"Ņ":{"ha":833,"x_min":97,"x_max":736,"o":"m 97 986 l 264 986 l 617 158 l 617 986 l 736 986 l 736 0 l 569 0 l 217 828 l 217 0 l 97 0 l 97 986 m 408 -172 l 361 -172 l 361 -47 l 500 -47 l 500 -167 l 411 -297 l 333 -297 l 408 -172 z "},"ņ":{"ha":833,"x_min":133,"x_max":717,"o":"m 133 736 l 240 736 l 244 549 l 231 561 q 315 704 250 656 q 469 753 379 753 q 653 675 590 753 q 717 474 717 597 l 717 0 l 600 0 l 600 440 q 563 597 600 544 q 444 650 526 650 q 303 595 357 650 q 250 440 250 540 l 250 0 l 133 0 l 133 736 m 417 -172 l 369 -172 l 369 -47 l 508 -47 l 508 -167 l 419 -297 l 342 -297 l 417 -172 z "},"Ň":{"ha":833,"x_min":97,"x_max":736,"o":"m 97 986 l 264 986 l 617 158 l 617 986 l 736 986 l 736 0 l 569 0 l 217 828 l 217 0 l 97 0 l 97 986 m 319 1264 l 428 1125 l 406 1125 l 514 1264 l 611 1264 l 482 1079 l 351 1079 l 222 1264 l 319 1264 z "},"ň":{"ha":833,"x_min":133,"x_max":717,"o":"m 133 736 l 240 736 l 244 549 l 231 561 q 315 704 250 656 q 469 753 379 753 q 653 675 590 753 q 717 474 717 597 l 717 0 l 600 0 l 600 440 q 563 597 600 544 q 444 650 526 650 q 303 595 357 650 q 250 440 250 540 l 250 0 l 133 0 l 133 736 m 328 1014 l 436 875 l 414 875 l 522 1014 l 619 1014 l 490 829 l 360 829 l 231 1014 l 328 1014 z "},"Ŋ":{"ha":833,"x_min":97,"x_max":736,"o":"m 374 -92 l 517 -92 q 582 -72 560 -92 q 604 -11 604 -51 l 604 126 l 725 126 l 725 -10 q 669 -154 725 -100 q 517 -208 613 -208 l 374 -208 l 374 -92 m 97 986 l 264 986 l 617 158 l 617 986 l 736 986 l 736 0 l 569 0 l 217 828 l 217 0 l 97 0 l 97 986 z "},"ŋ":{"ha":833,"x_min":133,"x_max":717,"o":"m 396 -106 l 511 -106 q 576 -80 553 -106 q 600 -11 600 -54 l 600 126 l 717 126 l 717 -10 q 660 -155 717 -101 q 508 -208 604 -208 l 396 -208 l 396 -106 m 133 736 l 240 736 l 244 549 l 231 561 q 315 704 250 656 q 469 753 379 753 q 653 675 590 753 q 717 474 717 597 l 717 0 l 600 0 l 600 440 q 563 597 600 544 q 444 650 526 650 q 303 595 357 650 q 250 440 250 540 l 250 0 l 133 0 l 133 736 z "},"Ō":{"ha":833,"x_min":53,"x_max":781,"o":"m 417 -22 q 219 38 300 -22 q 95 213 138 97 q 53 492 53 328 q 95 773 53 657 q 219 949 138 889 q 417 1008 300 1008 q 615 949 533 1008 q 738 773 696 889 q 781 492 781 657 q 738 213 781 328 q 615 38 696 97 q 417 -22 533 -22 m 417 94 q 547 140 493 94 q 628 275 600 186 q 656 492 656 364 q 628 709 656 619 q 547 845 600 799 q 417 892 493 892 q 287 845 340 892 q 206 709 233 799 q 178 492 178 619 q 206 275 178 364 q 287 140 233 186 q 417 94 340 94 m 229 1218 l 601 1218 l 601 1118 l 229 1118 l 229 1218 z "},"ō":{"ha":833,"x_min":81,"x_max":753,"o":"m 417 -17 q 240 31 315 -17 q 122 165 164 78 q 81 368 81 251 q 122 572 81 485 q 240 706 164 658 q 417 753 315 753 q 593 706 517 753 q 711 572 669 658 q 753 368 753 485 q 711 165 753 251 q 593 31 669 78 q 417 -17 517 -17 m 417 94 q 574 167 518 94 q 631 368 631 240 q 574 569 631 496 q 417 642 518 642 q 259 569 315 642 q 203 368 203 497 q 259 167 203 239 q 417 94 315 94 m 229 968 l 601 968 l 601 868 l 229 868 l 229 968 z "},"Ő":{"ha":833,"x_min":53,"x_max":781,"o":"m 417 -22 q 219 38 300 -22 q 95 213 138 97 q 53 492 53 328 q 95 773 53 657 q 219 949 138 889 q 417 1008 300 1008 q 615 949 533 1008 q 738 773 696 889 q 781 492 781 657 q 738 213 781 328 q 615 38 696 97 q 417 -22 533 -22 m 417 94 q 547 140 493 94 q 628 275 600 186 q 656 492 656 364 q 628 709 656 619 q 547 845 600 799 q 417 892 493 892 q 287 845 340 892 q 206 709 233 799 q 178 492 178 619 q 206 275 178 364 q 287 140 233 186 q 417 94 340 94 z "},"ő":{"ha":833,"x_min":81,"x_max":753,"o":"m 417 -17 q 240 31 315 -17 q 122 165 164 78 q 81 368 81 251 q 122 572 81 485 q 240 706 164 658 q 417 753 315 753 q 593 706 517 753 q 711 572 669 658 q 753 368 753 485 q 711 165 753 251 q 593 31 669 78 q 417 -17 517 -17 m 417 94 q 574 167 518 94 q 631 368 631 240 q 574 569 631 496 q 417 642 518 642 q 259 569 315 642 q 203 368 203 497 q 259 167 203 239 q 417 94 315 94 z "},"Œ":{"ha":833,"x_min":10,"x_max":822,"o":"m 294 -22 q 142 40 206 -22 q 44 218 78 103 q 10 492 10 333 q 44 767 10 651 q 142 946 78 883 q 294 1008 206 1008 q 447 946 383 1008 q 544 767 511 883 q 578 492 578 651 q 544 218 578 333 q 447 40 511 103 q 294 -22 383 -22 m 294 94 q 417 197 379 94 q 456 492 456 299 q 417 789 456 686 q 294 892 379 892 q 171 789 210 892 q 132 492 132 686 q 171 197 132 300 q 294 94 210 94 m 458 986 l 815 986 l 815 869 l 578 869 l 578 551 l 806 551 l 806 438 l 578 438 l 578 117 l 822 117 l 822 0 l 458 0 l 458 986 z "},"œ":{"ha":833,"x_min":14,"x_max":821,"o":"m 594 -17 q 419 83 481 -17 q 357 368 357 182 q 419 653 357 554 q 594 753 481 753 q 714 712 665 753 q 789 590 763 671 q 819 385 815 508 l 821 332 l 475 332 q 511 156 481 218 q 594 94 542 94 q 658 123 635 94 q 694 218 681 151 l 813 208 q 737 35 786 86 q 594 -17 688 -17 m 243 -17 q 122 31 174 -17 q 42 165 69 78 q 14 368 14 251 q 42 572 14 485 q 122 706 69 658 q 243 753 174 753 q 366 706 314 753 q 447 572 418 658 q 475 368 475 485 q 447 165 475 251 q 366 31 418 78 q 243 -17 314 -17 m 243 94 q 326 168 296 94 q 357 368 357 242 q 326 568 357 494 q 243 642 296 642 q 161 567 192 642 q 131 368 131 493 q 161 169 131 243 q 243 94 192 94 m 700 435 q 665 590 693 539 q 588 642 636 642 q 513 590 540 642 q 476 435 485 539 l 700 435 z "},"Ŕ":{"ha":833,"x_min":97,"x_max":742,"o":"m 97 986 l 397 986 q 643 908 553 986 q 733 692 733 829 q 702 570 733 625 q 622 483 671 515 q 518 447 572 451 l 511 467 q 662 419 615 461 q 717 283 708 378 l 742 0 l 621 0 l 597 268 q 550 369 590 338 q 422 400 510 400 l 217 400 l 217 0 l 97 0 l 97 986 m 397 514 q 553 560 499 514 q 608 692 608 607 q 553 825 608 778 q 397 872 499 872 l 217 872 l 217 514 l 397 514 m 436 1264 l 567 1264 l 442 1086 l 344 1086 l 436 1264 z "},"ŕ":{"ha":833,"x_min":125,"x_max":750,"o":"m 317 736 l 414 736 l 425 550 l 414 553 q 474 691 428 646 q 599 736 519 736 l 750 736 l 750 631 l 600 631 q 508 609 546 631 q 452 546 471 588 q 433 444 433 504 l 433 0 l 317 0 l 317 736 m 125 103 l 667 103 l 667 0 l 125 0 l 125 103 m 125 736 l 381 736 l 381 633 l 125 633 l 125 736 m 510 1014 l 640 1014 l 515 836 l 418 836 l 510 1014 z "},"Ŗ":{"ha":833,"x_min":97,"x_max":742,"o":"m 97 986 l 397 986 q 643 908 553 986 q 733 692 733 829 q 702 570 733 625 q 622 483 671 515 q 518 447 572 451 l 511 467 q 662 419 615 461 q 717 283 708 378 l 742 0 l 621 0 l 597 268 q 550 369 590 338 q 422 400 510 400 l 217 400 l 217 0 l 97 0 l 97 986 m 397 514 q 553 560 499 514 q 608 692 608 607 q 553 825 608 778 q 397 872 499 872 l 217 872 l 217 514 l 397 514 m 414 -172 l 367 -172 l 367 -47 l 506 -47 l 506 -167 l 417 -297 l 339 -297 l 414 -172 z "},"ŗ":{"ha":833,"x_min":125,"x_max":750,"o":"m 317 736 l 414 736 l 425 550 l 414 553 q 474 691 428 646 q 599 736 519 736 l 750 736 l 750 631 l 600 631 q 508 609 546 631 q 452 546 471 588 q 433 444 433 504 l 433 0 l 317 0 l 317 736 m 125 103 l 667 103 l 667 0 l 125 0 l 125 103 m 125 736 l 381 736 l 381 633 l 125 633 l 125 736 m 365 -172 l 318 -172 l 318 -47 l 457 -47 l 457 -167 l 368 -297 l 290 -297 l 365 -172 z "},"Ř":{"ha":833,"x_min":97,"x_max":742,"o":"m 97 986 l 397 986 q 643 908 553 986 q 733 692 733 829 q 702 570 733 625 q 622 483 671 515 q 518 447 572 451 l 511 467 q 662 419 615 461 q 717 283 708 378 l 742 0 l 621 0 l 597 268 q 550 369 590 338 q 422 400 510 400 l 217 400 l 217 0 l 97 0 l 97 986 m 397 514 q 553 560 499 514 q 608 692 608 607 q 553 825 608 778 q 397 872 499 872 l 217 872 l 217 514 l 397 514 m 300 1264 l 408 1125 l 386 1125 l 494 1264 l 592 1264 l 463 1079 l 332 1079 l 203 1264 l 300 1264 z "},"ř":{"ha":833,"x_min":125,"x_max":750,"o":"m 317 736 l 414 736 l 425 550 l 414 553 q 474 691 428 646 q 599 736 519 736 l 750 736 l 750 631 l 600 631 q 508 609 546 631 q 452 546 471 588 q 433 444 433 504 l 433 0 l 317 0 l 317 736 m 125 103 l 667 103 l 667 0 l 125 0 l 125 103 m 125 736 l 381 736 l 381 633 l 125 633 l 125 736 m 374 1014 l 482 875 l 460 875 l 568 1014 l 665 1014 l 536 829 l 406 829 l 276 1014 l 374 1014 z "},"Ś":{"ha":833,"x_min":61,"x_max":772,"o":"m 432 -22 q 248 20 329 -22 q 118 139 167 63 q 61 315 69 215 l 186 324 q 228 199 196 250 q 313 121 261 147 q 435 94 365 94 q 551 112 503 94 q 623 163 599 129 q 647 244 647 197 q 625 328 647 294 q 544 393 603 363 q 371 456 485 424 q 203 521 265 486 q 113 605 142 556 q 85 728 85 654 q 124 874 85 810 q 238 973 164 938 q 413 1008 313 1008 q 584 968 511 1008 q 700 857 657 928 q 754 694 743 786 l 629 686 q 594 794 621 747 q 521 866 567 840 q 410 892 475 892 q 264 848 318 892 q 210 733 210 804 q 230 657 210 686 q 299 606 250 628 q 446 556 349 583 q 638 480 568 521 q 740 382 708 439 q 772 242 772 325 q 729 105 772 165 q 609 11 686 44 q 432 -22 532 -22 m 454 1264 l 585 1264 l 460 1086 l 363 1086 l 454 1264 z "},"ś":{"ha":833,"x_min":111,"x_max":722,"o":"m 431 -17 q 267 16 338 -17 q 157 105 197 49 q 111 232 117 161 l 233 240 q 294 133 244 171 q 431 94 344 94 q 558 119 514 94 q 603 192 603 143 q 588 245 603 225 q 531 280 572 265 q 408 308 490 294 q 242 356 303 326 q 156 426 182 385 q 131 531 131 468 q 163 645 131 594 q 259 724 196 696 q 410 753 322 753 q 560 722 497 753 q 660 637 624 690 q 708 517 697 583 l 586 508 q 527 606 574 569 q 408 642 481 642 q 290 611 331 642 q 250 531 250 581 q 268 472 250 493 q 324 437 286 450 q 433 411 363 424 q 610 365 547 393 q 697 297 672 338 q 722 192 722 256 q 640 40 722 96 q 431 -17 558 -17 m 458 1014 l 589 1014 l 464 836 l 367 836 l 458 1014 z "},"Ŝ":{"ha":833,"x_min":61,"x_max":772,"o":"m 432 -22 q 248 20 329 -22 q 118 139 167 63 q 61 315 69 215 l 186 324 q 228 199 196 250 q 313 121 261 147 q 435 94 365 94 q 551 112 503 94 q 623 163 599 129 q 647 244 647 197 q 625 328 647 294 q 544 393 603 363 q 371 456 485 424 q 203 521 265 486 q 113 605 142 556 q 85 728 85 654 q 124 874 85 810 q 238 973 164 938 q 413 1008 313 1008 q 584 968 511 1008 q 700 857 657 928 q 754 694 743 786 l 629 686 q 594 794 621 747 q 521 866 567 840 q 410 892 475 892 q 264 848 318 892 q 210 733 210 804 q 230 657 210 686 q 299 606 250 628 q 446 556 349 583 q 638 480 568 521 q 740 382 708 439 q 772 242 772 325 q 729 105 772 165 q 609 11 686 44 q 432 -22 532 -22 m 349 1265 l 479 1265 l 608 1081 l 511 1081 l 403 1219 l 425 1219 l 317 1081 l 219 1081 l 349 1265 z "},"ŝ":{"ha":833,"x_min":111,"x_max":722,"o":"m 431 -17 q 267 16 338 -17 q 157 105 197 49 q 111 232 117 161 l 233 240 q 294 133 244 171 q 431 94 344 94 q 558 119 514 94 q 603 192 603 143 q 588 245 603 225 q 531 280 572 265 q 408 308 490 294 q 242 356 303 326 q 156 426 182 385 q 131 531 131 468 q 163 645 131 594 q 259 724 196 696 q 410 753 322 753 q 560 722 497 753 q 660 637 624 690 q 708 517 697 583 l 586 508 q 527 606 574 569 q 408 642 481 642 q 290 611 331 642 q 250 531 250 581 q 268 472 250 493 q 324 437 286 450 q 433 411 363 424 q 610 365 547 393 q 697 297 672 338 q 722 192 722 256 q 640 40 722 96 q 431 -17 558 -17 m 353 1015 l 483 1015 l 613 831 l 515 831 l 407 969 l 429 969 l 321 831 l 224 831 l 353 1015 z "},"Ş":{"ha":833,"x_min":61,"x_max":772,"o":"m 432 -22 q 248 20 329 -22 q 118 139 167 63 q 61 315 69 215 l 186 324 q 228 199 196 250 q 313 121 261 147 q 435 94 365 94 q 551 112 503 94 q 623 163 599 129 q 647 244 647 197 q 625 328 647 294 q 544 393 603 363 q 371 456 485 424 q 203 521 265 486 q 113 605 142 556 q 85 728 85 654 q 124 874 85 810 q 238 973 164 938 q 413 1008 313 1008 q 584 968 511 1008 q 700 857 657 928 q 754 694 743 786 l 629 686 q 594 794 621 747 q 521 866 567 840 q 410 892 475 892 q 264 848 318 892 q 210 733 210 804 q 230 657 210 686 q 299 606 250 628 q 446 556 349 583 q 638 480 568 521 q 740 382 708 439 q 772 242 772 325 q 729 105 772 165 q 609 11 686 44 q 432 -22 532 -22 m 407 -306 q 324 -284 360 -306 q 244 -212 288 -262 l 301 -160 q 349 -211 326 -192 q 401 -231 371 -231 q 449 -215 432 -231 q 467 -171 467 -199 q 436 -122 467 -137 q 361 -118 406 -107 l 322 -67 l 396 14 l 456 0 l 408 -51 q 506 -86 468 -51 q 543 -176 543 -121 q 525 -242 543 -212 q 476 -288 507 -271 q 407 -306 444 -306 z "},"ş":{"ha":833,"x_min":111,"x_max":722,"o":"m 431 -17 q 267 16 338 -17 q 157 105 197 49 q 111 232 117 161 l 233 240 q 294 133 244 171 q 431 94 344 94 q 558 119 514 94 q 603 192 603 143 q 588 245 603 225 q 531 280 572 265 q 408 308 490 294 q 242 356 303 326 q 156 426 182 385 q 131 531 131 468 q 163 645 131 594 q 259 724 196 696 q 410 753 322 753 q 560 722 497 753 q 660 637 624 690 q 708 517 697 583 l 586 508 q 527 606 574 569 q 408 642 481 642 q 290 611 331 642 q 250 531 250 581 q 268 472 250 493 q 324 437 286 450 q 433 411 363 424 q 610 365 547 393 q 697 297 672 338 q 722 192 722 256 q 640 40 722 96 q 431 -17 558 -17 m 410 -306 q 326 -284 363 -306 q 247 -212 290 -262 l 304 -160 q 351 -211 329 -192 q 404 -231 374 -231 q 452 -215 435 -231 q 469 -171 469 -199 q 439 -122 469 -137 q 364 -118 408 -107 l 325 -67 l 399 14 l 458 0 l 411 -51 q 508 -86 471 -51 q 546 -176 546 -121 q 528 -242 546 -212 q 478 -288 510 -271 q 410 -306 447 -306 z "},"Š":{"ha":833,"x_min":61,"x_max":772,"o":"m 432 -22 q 248 20 329 -22 q 118 139 167 63 q 61 315 69 215 l 186 324 q 228 199 196 250 q 313 121 261 147 q 435 94 365 94 q 551 112 503 94 q 623 163 599 129 q 647 244 647 197 q 625 328 647 294 q 544 393 603 363 q 371 456 485 424 q 203 521 265 486 q 113 605 142 556 q 85 728 85 654 q 124 874 85 810 q 238 973 164 938 q 413 1008 313 1008 q 584 968 511 1008 q 700 857 657 928 q 754 694 743 786 l 629 686 q 594 794 621 747 q 521 866 567 840 q 410 892 475 892 q 264 848 318 892 q 210 733 210 804 q 230 657 210 686 q 299 606 250 628 q 446 556 349 583 q 638 480 568 521 q 740 382 708 439 q 772 242 772 325 q 729 105 772 165 q 609 11 686 44 q 432 -22 532 -22 m 318 1264 l 426 1125 l 404 1125 l 513 1264 l 610 1264 l 481 1079 l 350 1079 l 221 1264 l 318 1264 z "},"š":{"ha":833,"x_min":111,"x_max":722,"o":"m 431 -17 q 267 16 338 -17 q 157 105 197 49 q 111 232 117 161 l 233 240 q 294 133 244 171 q 431 94 344 94 q 558 119 514 94 q 603 192 603 143 q 588 245 603 225 q 531 280 572 265 q 408 308 490 294 q 242 356 303 326 q 156 426 182 385 q 131 531 131 468 q 163 645 131 594 q 259 724 196 696 q 410 753 322 753 q 560 722 497 753 q 660 637 624 690 q 708 517 697 583 l 586 508 q 527 606 574 569 q 408 642 481 642 q 290 611 331 642 q 250 531 250 581 q 268 472 250 493 q 324 437 286 450 q 433 411 363 424 q 610 365 547 393 q 697 297 672 338 q 722 192 722 256 q 640 40 722 96 q 431 -17 558 -17 m 322 1014 l 431 875 l 408 875 l 517 1014 l 614 1014 l 485 829 l 354 829 l 225 1014 l 322 1014 z "},"Ţ":{"ha":833,"x_min":56,"x_max":778,"o":"m 357 872 l 56 872 l 56 986 l 778 986 l 778 872 l 476 872 l 476 0 l 357 0 l 357 872 m 407 -306 q 324 -284 360 -306 q 244 -212 288 -262 l 301 -160 q 349 -211 326 -192 q 401 -231 371 -231 q 449 -215 432 -231 q 467 -171 467 -199 q 436 -122 467 -137 q 361 -118 406 -107 l 322 -67 l 396 14 l 456 0 l 408 -51 q 506 -86 468 -51 q 543 -176 543 -121 q 525 -242 543 -212 q 476 -288 507 -271 q 407 -306 444 -306 z "},"ţ":{"ha":833,"x_min":69,"x_max":722,"o":"m 525 0 q 365 50 418 0 q 313 203 313 100 l 313 931 l 429 931 l 429 203 q 453 127 429 151 q 525 103 476 103 l 722 103 l 722 0 l 525 0 m 69 736 l 722 736 l 722 633 l 69 633 l 69 736 m 476 -306 q 393 -284 429 -306 q 314 -212 357 -262 l 371 -160 q 418 -211 396 -192 q 471 -231 440 -231 q 519 -215 501 -231 q 536 -171 536 -199 q 506 -122 536 -137 q 431 -118 475 -107 l 392 -67 l 465 14 l 525 0 l 478 -51 q 575 -86 538 -51 q 613 -176 613 -121 q 594 -242 613 -212 q 545 -288 576 -271 q 476 -306 514 -306 z "},"Ť":{"ha":833,"x_min":56,"x_max":778,"o":"m 357 872 l 56 872 l 56 986 l 778 986 l 778 872 l 476 872 l 476 0 l 357 0 l 357 872 m 319 1264 l 428 1125 l 406 1125 l 514 1264 l 611 1264 l 482 1079 l 351 1079 l 222 1264 l 319 1264 z "},"ť":{"ha":833,"x_min":69,"x_max":722,"o":"m 525 0 q 365 50 418 0 q 313 203 313 100 l 313 931 l 429 931 l 429 203 q 453 127 429 151 q 525 103 476 103 l 722 103 l 722 0 l 525 0 m 69 736 l 722 736 l 722 633 l 69 633 l 69 736 m 550 1106 l 665 1106 l 593 769 l 508 769 l 550 1106 z "},"Ŧ":{"ha":833,"x_min":56,"x_max":778,"o":"m 357 872 l 56 872 l 56 986 l 778 986 l 778 872 l 476 872 l 476 0 l 357 0 l 357 872 m 139 535 l 694 535 l 694 432 l 139 432 l 139 535 z "},"ŧ":{"ha":833,"x_min":69,"x_max":722,"o":"m 92 443 l 710 443 l 710 340 l 92 340 l 92 443 m 525 0 q 365 50 418 0 q 313 203 313 100 l 313 931 l 429 931 l 429 203 q 453 127 429 151 q 525 103 476 103 l 722 103 l 722 0 l 525 0 m 69 736 l 722 736 l 722 633 l 69 633 l 69 736 z "},"Ũ":{"ha":833,"x_min":83,"x_max":750,"o":"m 417 -22 q 172 76 261 -22 q 83 344 83 175 l 83 986 l 203 986 l 203 344 q 258 159 203 224 q 417 94 313 94 q 576 159 521 94 q 631 344 631 224 l 631 986 l 750 986 l 750 344 q 661 76 750 175 q 417 -22 572 -22 m 500 1097 q 451 1108 475 1097 q 403 1139 428 1118 q 363 1168 376 1161 q 331 1175 350 1175 q 269 1088 274 1175 l 197 1088 q 235 1208 199 1165 q 331 1250 272 1250 q 385 1239 361 1250 q 436 1206 410 1228 q 474 1180 458 1188 q 506 1172 489 1172 q 546 1192 532 1172 q 564 1264 560 1213 l 636 1264 q 596 1141 632 1185 q 500 1097 560 1097 z "},"ũ":{"ha":833,"x_min":125,"x_max":700,"o":"m 365 -17 q 190 58 256 -17 q 125 263 125 132 l 125 736 l 242 736 l 242 294 q 280 137 242 188 q 397 86 318 86 q 533 142 483 86 q 583 297 583 199 l 583 736 l 700 736 l 700 0 l 589 0 l 589 182 l 607 172 q 522 33 585 82 q 365 -17 460 -17 m 490 847 q 442 858 465 847 q 393 889 418 868 q 353 918 367 911 q 321 925 340 925 q 260 838 264 925 l 188 838 q 226 958 189 915 q 321 1000 263 1000 q 376 989 351 1000 q 426 956 400 978 q 464 930 449 938 q 496 922 479 922 q 536 942 522 922 q 554 1014 550 963 l 626 1014 q 586 891 622 935 q 490 847 550 847 z "},"Ū":{"ha":833,"x_min":83,"x_max":750,"o":"m 417 -22 q 172 76 261 -22 q 83 344 83 175 l 83 986 l 203 986 l 203 344 q 258 159 203 224 q 417 94 313 94 q 576 159 521 94 q 631 344 631 224 l 631 986 l 750 986 l 750 344 q 661 76 750 175 q 417 -22 572 -22 m 229 1218 l 601 1218 l 601 1118 l 229 1118 l 229 1218 z "},"ū":{"ha":833,"x_min":125,"x_max":700,"o":"m 365 -17 q 190 58 256 -17 q 125 263 125 132 l 125 736 l 242 736 l 242 294 q 280 137 242 188 q 397 86 318 86 q 533 142 483 86 q 583 297 583 199 l 583 736 l 700 736 l 700 0 l 589 0 l 589 182 l 607 172 q 522 33 585 82 q 365 -17 460 -17 m 219 968 l 592 968 l 592 868 l 219 868 l 219 968 z "},"Ŭ":{"ha":833,"x_min":83,"x_max":750,"o":"m 417 -22 q 172 76 261 -22 q 83 344 83 175 l 83 986 l 203 986 l 203 344 q 258 159 203 224 q 417 94 313 94 q 576 159 521 94 q 631 344 631 224 l 631 986 l 750 986 l 750 344 q 661 76 750 175 q 417 -22 572 -22 m 417 1088 q 279 1135 332 1088 q 222 1265 226 1183 l 303 1265 q 338 1196 308 1218 q 417 1174 368 1174 q 495 1196 465 1174 q 531 1265 525 1218 l 611 1265 q 554 1135 607 1183 q 417 1088 501 1088 z "},"ŭ":{"ha":833,"x_min":125,"x_max":700,"o":"m 365 -17 q 190 58 256 -17 q 125 263 125 132 l 125 736 l 242 736 l 242 294 q 280 137 242 188 q 397 86 318 86 q 533 142 483 86 q 583 297 583 199 l 583 736 l 700 736 l 700 0 l 589 0 l 589 182 l 607 172 q 522 33 585 82 q 365 -17 460 -17 m 407 838 q 269 885 322 838 q 213 1015 217 933 l 293 1015 q 328 946 299 968 q 407 924 358 924 q 485 946 456 924 q 521 1015 515 968 l 601 1015 q 544 885 597 933 q 407 838 492 838 z "},"Ů":{"ha":833,"x_min":83,"x_max":750,"o":"m 417 -22 q 172 76 261 -22 q 83 344 83 175 l 83 986 l 203 986 l 203 344 q 258 159 203 224 q 417 94 313 94 q 576 159 521 94 q 631 344 631 224 l 631 986 l 750 986 l 750 344 q 661 76 750 175 q 417 -22 572 -22 m 417 1064 q 326 1101 363 1064 q 289 1192 289 1138 q 326 1283 289 1246 q 417 1319 363 1319 q 508 1283 471 1319 q 544 1192 544 1246 q 508 1101 544 1138 q 417 1064 471 1064 m 417 1133 q 458 1150 442 1133 q 475 1192 475 1167 q 458 1233 475 1217 q 417 1250 442 1250 q 375 1233 392 1250 q 358 1192 358 1217 q 375 1150 358 1167 q 417 1133 392 1133 z "},"ů":{"ha":833,"x_min":125,"x_max":700,"o":"m 365 -17 q 190 58 256 -17 q 125 263 125 132 l 125 736 l 242 736 l 242 294 q 280 137 242 188 q 397 86 318 86 q 533 142 483 86 q 583 297 583 199 l 583 736 l 700 736 l 700 0 l 589 0 l 589 182 l 607 172 q 522 33 585 82 q 365 -17 460 -17 m 407 814 q 316 851 353 814 q 279 942 279 888 q 316 1033 279 996 q 407 1069 353 1069 q 498 1033 461 1069 q 535 942 535 996 q 498 851 535 888 q 407 814 461 814 m 407 883 q 449 900 432 883 q 465 942 465 917 q 449 983 465 967 q 407 1000 432 1000 q 365 983 382 1000 q 349 942 349 967 q 365 900 349 917 q 407 883 382 883 z "},"Ű":{"ha":833,"x_min":83,"x_max":750,"o":"m 417 -22 q 172 76 261 -22 q 83 344 83 175 l 83 986 l 203 986 l 203 344 q 258 159 203 224 q 417 94 313 94 q 576 159 521 94 q 631 344 631 224 l 631 986 l 750 986 l 750 344 q 661 76 750 175 q 417 -22 572 -22 z "},"ű":{"ha":833,"x_min":125,"x_max":700,"o":"m 365 -17 q 190 58 256 -17 q 125 263 125 132 l 125 736 l 242 736 l 242 294 q 280 137 242 188 q 397 86 318 86 q 533 142 483 86 q 583 297 583 199 l 583 736 l 700 736 l 700 0 l 589 0 l 589 182 l 607 172 q 522 33 585 82 q 365 -17 460 -17 z "},"Ų":{"ha":833,"x_min":83,"x_max":750,"o":"m 417 -22 q 172 76 261 -22 q 83 344 83 175 l 83 986 l 203 986 l 203 344 q 258 159 203 224 q 417 94 313 94 q 576 159 521 94 q 631 344 631 224 l 631 986 l 750 986 l 750 344 q 661 76 750 175 q 417 -22 572 -22 m 475 -292 q 383 -262 417 -292 q 350 -181 350 -232 q 364 -112 350 -146 q 407 -42 378 -78 l 451 14 l 547 0 l 499 -62 q 465 -117 474 -96 q 456 -156 456 -137 q 467 -187 456 -176 q 497 -197 478 -197 q 532 -192 514 -197 q 561 -178 550 -187 l 594 -256 q 546 -282 578 -272 q 475 -292 514 -292 z "},"ų":{"ha":833,"x_min":125,"x_max":747,"o":"m 365 -17 q 190 58 256 -17 q 125 263 125 132 l 125 736 l 242 736 l 242 294 q 280 137 242 188 q 397 86 318 86 q 533 142 483 86 q 583 297 583 199 l 583 736 l 700 736 l 700 0 l 589 0 l 589 182 l 607 172 q 522 33 585 82 q 365 -17 460 -17 m 628 -292 q 536 -262 569 -292 q 503 -181 503 -232 q 517 -112 503 -146 q 560 -42 531 -78 l 604 14 l 700 0 l 651 -62 q 617 -117 626 -96 q 608 -156 608 -137 q 619 -187 608 -176 q 650 -197 631 -197 q 685 -192 667 -197 q 714 -178 703 -187 l 747 -256 q 699 -282 731 -272 q 628 -292 667 -292 z "},"Ŵ":{"ha":833,"x_min":56,"x_max":778,"o":"m 56 986 l 181 986 l 258 69 l 244 69 l 356 875 l 478 875 l 589 69 l 575 69 l 653 986 l 778 986 l 683 0 l 503 0 l 397 778 l 436 778 l 331 0 l 150 0 l 56 986 m 350 1265 l 481 1265 l 610 1081 l 513 1081 l 404 1219 l 426 1219 l 318 1081 l 221 1081 l 350 1265 z "},"ŵ":{"ha":833,"x_min":28,"x_max":806,"o":"m 28 736 l 156 736 l 249 122 l 354 633 l 479 633 l 585 122 l 678 736 l 806 736 l 661 0 l 514 0 l 417 458 l 319 0 l 174 0 l 28 736 m 350 1015 l 481 1015 l 610 831 l 513 831 l 404 969 l 426 969 l 318 831 l 221 831 l 350 1015 z "},"Ŷ":{"ha":833,"x_min":61,"x_max":772,"o":"m 358 403 l 61 986 l 197 986 l 417 542 l 636 986 l 772 986 l 478 403 l 478 0 l 358 0 l 358 403 m 350 1265 l 481 1265 l 610 1081 l 513 1081 l 404 1219 l 426 1219 l 318 1081 l 221 1081 l 350 1265 z "},"ŷ":{"ha":833,"x_min":75,"x_max":764,"o":"m 192 -106 l 276 -106 q 333 -94 314 -106 q 363 -56 351 -82 l 389 14 l 349 14 l 75 736 l 203 736 l 426 122 l 636 736 l 764 736 l 465 -93 q 403 -181 444 -153 q 288 -208 361 -208 l 192 -208 l 192 -106 m 354 1015 l 485 1015 l 614 831 l 517 831 l 408 969 l 431 969 l 322 831 l 225 831 l 354 1015 z "},"Ÿ":{"ha":833,"x_min":61,"x_max":772,"o":"m 358 403 l 61 986 l 197 986 l 417 542 l 636 986 l 772 986 l 478 403 l 478 0 l 358 0 l 358 403 z "},"Ź":{"ha":833,"x_min":69,"x_max":764,"o":"m 69 119 l 619 872 l 94 872 l 94 986 l 753 986 l 753 867 l 203 114 l 764 114 l 764 0 l 69 0 l 69 119 m 456 1264 l 586 1264 l 461 1086 l 364 1086 l 456 1264 z "},"ź":{"ha":833,"x_min":114,"x_max":719,"o":"m 114 117 l 581 633 l 128 633 l 128 736 l 708 736 l 708 619 l 242 103 l 719 103 l 719 0 l 114 0 l 114 117 m 457 1014 l 588 1014 l 463 836 l 365 836 l 457 1014 z "},"Ż":{"ha":833,"x_min":69,"x_max":764,"o":"m 69 119 l 619 872 l 94 872 l 94 986 l 753 986 l 753 867 l 203 114 l 764 114 l 764 0 l 69 0 l 69 119 m 354 1238 l 476 1238 l 476 1101 l 354 1101 l 354 1238 z "},"ż":{"ha":833,"x_min":114,"x_max":719,"o":"m 114 117 l 581 633 l 128 633 l 128 736 l 708 736 l 708 619 l 242 103 l 719 103 l 719 0 l 114 0 l 114 117 m 356 988 l 478 988 l 478 851 l 356 851 l 356 988 z "},"Ž":{"ha":833,"x_min":69,"x_max":764,"o":"m 69 119 l 619 872 l 94 872 l 94 986 l 753 986 l 753 867 l 203 114 l 764 114 l 764 0 l 69 0 l 69 119 m 319 1264 l 428 1125 l 406 1125 l 514 1264 l 611 1264 l 482 1079 l 351 1079 l 222 1264 l 319 1264 z "},"ž":{"ha":833,"x_min":114,"x_max":719,"o":"m 114 117 l 581 633 l 128 633 l 128 736 l 708 736 l 708 619 l 242 103 l 719 103 l 719 0 l 114 0 l 114 117 m 321 1014 l 429 875 l 407 875 l 515 1014 l 613 1014 l 483 829 l 353 829 l 224 1014 l 321 1014 z "},"Ə":{"ha":833,"x_min":39,"x_max":794,"o":"m 406 -22 q 218 40 300 -22 q 90 215 136 103 q 40 472 43 328 l 39 542 l 668 542 q 626 724 661 644 q 535 847 592 803 q 406 892 478 892 q 274 837 332 892 q 192 696 215 782 l 65 707 q 143 867 93 799 q 260 972 193 935 q 406 1008 328 1008 q 609 943 521 1008 q 746 760 697 878 q 794 493 794 643 q 744 232 794 350 q 604 46 693 114 q 406 -22 515 -22 m 406 94 q 528 133 475 94 q 615 245 581 171 q 667 425 650 319 l 168 425 q 213 245 182 319 q 292 133 243 171 q 406 94 340 94 z "},"ƒ":{"ha":833,"x_min":69,"x_max":725,"o":"m 69 0 l 69 103 l 215 103 q 275 122 253 103 q 301 179 297 142 l 369 800 q 433 940 381 893 q 578 986 485 986 l 725 986 l 725 883 l 568 883 q 508 863 531 883 q 482 806 486 843 l 413 185 q 349 44 401 92 q 204 -1 297 -3 l 69 0 m 172 736 l 725 736 l 725 633 l 172 633 l 172 736 z "},"Ǎ":{"ha":833,"x_min":36,"x_max":797,"o":"m 336 986 l 497 986 l 797 0 l 675 0 l 417 878 l 158 0 l 36 0 l 336 986 m 229 389 l 604 389 l 646 275 l 188 275 l 229 389 m 319 1264 l 428 1125 l 406 1125 l 514 1264 l 611 1264 l 482 1079 l 351 1079 l 222 1264 l 319 1264 z "},"ǎ":{"ha":833,"x_min":75,"x_max":764,"o":"m 319 -17 q 194 8 250 -17 q 107 79 139 33 q 75 183 75 125 q 131 329 75 276 q 308 406 186 382 l 556 456 q 514 595 556 549 q 392 642 472 642 q 273 608 317 642 q 213 510 229 575 l 89 519 q 190 690 110 626 q 392 753 269 753 q 599 673 525 753 q 672 453 672 593 l 672 147 q 683 113 672 122 q 717 103 693 103 l 764 103 l 764 0 q 703 -3 742 -3 q 593 33 629 -3 q 556 150 557 69 l 578 150 q 490 31 564 78 q 319 -17 415 -17 m 331 86 q 455 112 404 86 q 531 183 506 138 q 556 292 556 229 l 556 356 l 331 311 q 227 269 257 297 q 197 194 197 242 q 233 115 197 143 q 331 86 268 86 m 297 1014 l 406 875 l 383 875 l 492 1014 l 589 1014 l 460 829 l 329 829 l 200 1014 l 297 1014 z "},"Ǥ":{"ha":833,"x_min":28,"x_max":821,"o":"m 418 -22 q 217 46 306 -22 q 78 232 128 114 q 28 492 28 350 q 78 753 28 635 q 217 940 128 871 q 418 1008 306 1008 q 649 922 551 1008 q 779 697 746 835 l 654 689 q 566 835 629 779 q 418 892 503 892 q 276 838 336 892 q 184 692 215 783 q 153 492 153 600 q 184 293 153 383 q 276 149 215 203 q 418 94 336 94 q 548 130 493 94 q 632 230 603 165 q 661 382 661 294 l 418 382 l 418 499 l 788 499 l 788 438 q 742 194 788 297 q 614 34 697 90 q 418 -22 531 -22 m 418 307 l 821 307 l 821 204 l 418 204 l 418 307 z "},"ǥ":{"ha":833,"x_min":83,"x_max":808,"o":"m 410 443 l 808 443 l 808 340 l 410 340 l 410 443 m 413 -225 q 270 -199 335 -225 q 163 -124 206 -172 q 104 -11 119 -75 l 226 -3 q 288 -86 244 -58 q 413 -114 331 -114 q 567 -74 514 -114 q 619 47 619 -33 l 619 167 q 534 74 592 108 q 404 39 476 39 q 238 84 311 39 q 124 210 165 129 q 83 396 83 292 q 124 581 83 500 q 235 708 164 663 q 399 753 307 753 q 538 717 476 753 q 625 619 600 681 l 625 736 l 736 736 l 736 50 q 650 -152 736 -79 q 413 -225 564 -225 m 410 150 q 519 180 472 150 q 593 265 567 210 q 619 396 619 321 q 595 526 621 471 q 522 612 569 582 q 410 642 474 642 q 260 576 314 642 q 206 396 206 510 q 260 216 206 282 q 410 150 315 150 z "},"Ǧ":{"ha":833,"x_min":53,"x_max":769,"o":"m 414 -22 q 226 37 308 -22 q 99 211 144 96 q 53 492 53 326 q 97 767 53 650 q 223 946 140 883 q 419 1008 306 1008 q 642 922 551 1008 q 765 692 732 836 l 640 683 q 560 835 615 779 q 419 892 504 892 q 289 845 343 892 q 206 709 235 799 q 178 492 178 619 q 207 276 178 365 q 292 141 236 188 q 425 94 347 94 q 544 132 492 94 q 626 235 596 169 q 658 383 656 301 l 422 383 l 422 497 l 769 497 l 769 0 l 658 0 l 653 233 l 692 219 q 592 41 658 104 q 414 -22 525 -22 m 318 1264 l 426 1125 l 404 1125 l 513 1264 l 610 1264 l 481 1079 l 350 1079 l 221 1264 l 318 1264 z "},"ǧ":{"ha":833,"x_min":83,"x_max":736,"o":"m 413 -225 q 270 -199 335 -225 q 163 -124 206 -172 q 104 -11 119 -75 l 226 -3 q 288 -86 244 -58 q 413 -114 331 -114 q 567 -74 514 -114 q 619 47 619 -33 l 619 167 q 534 74 592 108 q 404 39 476 39 q 238 84 311 39 q 124 210 165 129 q 83 396 83 292 q 124 581 83 500 q 235 708 164 663 q 399 753 307 753 q 538 717 476 753 q 625 619 600 681 l 625 736 l 736 736 l 736 50 q 650 -152 736 -79 q 413 -225 564 -225 m 410 150 q 519 180 472 150 q 593 265 567 210 q 619 396 619 321 q 595 526 621 471 q 522 612 569 582 q 410 642 474 642 q 260 576 314 642 q 206 396 206 510 q 260 216 206 282 q 410 150 315 150 m 317 1014 l 425 875 l 403 875 l 511 1014 l 608 1014 l 479 829 l 349 829 l 219 1014 l 317 1014 z "},"Ǩ":{"ha":833,"x_min":83,"x_max":778,"o":"m 83 986 l 203 986 l 203 550 l 603 986 l 750 986 l 375 572 l 778 0 l 631 0 l 292 489 l 203 394 l 203 0 l 83 0 l 83 986 m 288 1264 l 396 1125 l 374 1125 l 482 1264 l 579 1264 l 450 1079 l 319 1079 l 190 1264 l 288 1264 z "},"ǩ":{"ha":833,"x_min":-10,"x_max":769,"o":"m 125 986 l 242 986 l 242 340 l 600 736 l 756 736 l 465 424 l 769 0 l 628 0 l 386 344 l 242 192 l 242 0 l 125 0 l 125 986 m 88 1264 l 196 1125 l 174 1125 l 282 1264 l 379 1264 l 250 1079 l 119 1079 l -10 1264 l 88 1264 z "},"Ș":{"ha":833,"x_min":61,"x_max":772,"o":"m 432 -22 q 248 20 329 -22 q 118 139 167 63 q 61 315 69 215 l 186 324 q 228 199 196 250 q 313 121 261 147 q 435 94 365 94 q 551 112 503 94 q 623 163 599 129 q 647 244 647 197 q 625 328 647 294 q 544 393 603 363 q 371 456 485 424 q 203 521 265 486 q 113 605 142 556 q 85 728 85 654 q 124 874 85 810 q 238 973 164 938 q 413 1008 313 1008 q 584 968 511 1008 q 700 857 657 928 q 754 694 743 786 l 629 686 q 594 794 621 747 q 521 866 567 840 q 410 892 475 892 q 264 848 318 892 q 210 733 210 804 q 230 657 210 686 q 299 606 250 628 q 446 556 349 583 q 638 480 568 521 q 740 382 708 439 q 772 242 772 325 q 729 105 772 165 q 609 11 686 44 q 432 -22 532 -22 m 408 -172 l 361 -172 l 361 -47 l 500 -47 l 500 -167 l 411 -297 l 333 -297 l 408 -172 z "},"ș":{"ha":833,"x_min":111,"x_max":722,"o":"m 431 -17 q 267 16 338 -17 q 157 105 197 49 q 111 232 117 161 l 233 240 q 294 133 244 171 q 431 94 344 94 q 558 119 514 94 q 603 192 603 143 q 588 245 603 225 q 531 280 572 265 q 408 308 490 294 q 242 356 303 326 q 156 426 182 385 q 131 531 131 468 q 163 645 131 594 q 259 724 196 696 q 410 753 322 753 q 560 722 497 753 q 660 637 624 690 q 708 517 697 583 l 586 508 q 527 606 574 569 q 408 642 481 642 q 290 611 331 642 q 250 531 250 581 q 268 472 250 493 q 324 437 286 450 q 433 411 363 424 q 610 365 547 393 q 697 297 672 338 q 722 192 722 256 q 640 40 722 96 q 431 -17 558 -17 m 411 -172 l 364 -172 l 364 -47 l 503 -47 l 503 -167 l 414 -297 l 336 -297 l 411 -172 z "},"Ț":{"ha":833,"x_min":56,"x_max":778,"o":"m 357 872 l 56 872 l 56 986 l 778 986 l 778 872 l 476 872 l 476 0 l 357 0 l 357 872 m 408 -172 l 361 -172 l 361 -47 l 500 -47 l 500 -167 l 411 -297 l 333 -297 l 408 -172 z "},"ț":{"ha":833,"x_min":69,"x_max":722,"o":"m 525 0 q 365 50 418 0 q 313 203 313 100 l 313 931 l 429 931 l 429 203 q 453 127 429 151 q 525 103 476 103 l 722 103 l 722 0 l 525 0 m 69 736 l 722 736 l 722 633 l 69 633 l 69 736 m 478 -172 l 431 -172 l 431 -47 l 569 -47 l 569 -167 l 481 -297 l 403 -297 l 478 -172 z "},"ȷ":{"ha":833,"x_min":153,"x_max":611,"o":"m 153 -106 l 413 -106 q 472 -76 450 -106 q 494 0 494 -46 l 494 736 l 611 736 l 611 0 q 563 -152 611 -96 q 425 -208 515 -208 l 153 -208 l 153 -106 m 167 736 l 561 736 l 561 633 l 167 633 l 167 736 z "},"ə":{"ha":833,"x_min":83,"x_max":742,"o":"m 404 753 q 583 706 507 753 q 701 572 660 658 q 742 368 742 485 q 701 165 742 253 q 585 31 660 78 q 410 -17 510 -17 q 240 28 314 -17 q 124 161 165 74 q 83 369 83 249 l 83 404 l 619 404 q 558 581 614 521 q 404 642 501 642 q 287 609 333 642 q 221 518 240 576 l 96 528 q 208 691 125 629 q 404 753 290 753 m 211 301 q 272 147 219 199 q 410 94 325 94 q 551 147 496 94 q 619 301 606 200 l 211 301 z "},"ʹ":{"ha":833,"x_min":306,"x_max":528,"o":"m 397 1014 l 528 1014 l 403 836 l 306 836 l 397 1014 z "},"ʼ":{"ha":833,"x_min":335,"x_max":501,"o":"z "},"ˆ":{"ha":833,"x_min":222,"x_max":611,"o":"m 351 1015 l 482 1015 l 611 831 l 514 831 l 406 969 l 428 969 l 319 831 l 222 831 l 351 1015 z "},"ˇ":{"ha":833,"x_min":222,"x_max":611,"o":"m 319 1014 l 428 875 l 406 875 l 514 1014 l 611 1014 l 482 829 l 351 829 l 222 1014 l 319 1014 z "},"ˈ":{"ha":833,"x_min":356,"x_max":478,"o":"m 356 881 l 356 986 l 478 986 l 478 881 l 458 593 l 375 593 l 356 881 z "},"˘":{"ha":833,"x_min":222,"x_max":611,"o":"m 417 838 q 279 885 332 838 q 222 1015 226 933 l 303 1015 q 338 946 308 968 q 417 924 368 924 q 495 946 465 924 q 531 1015 525 968 l 611 1015 q 554 885 607 933 q 417 838 501 838 z "},"˙":{"ha":833,"x_min":356,"x_max":478,"o":"m 356 988 l 478 988 l 478 851 l 356 851 l 356 988 z "},"˚":{"ha":833,"x_min":289,"x_max":544,"o":"m 417 814 q 326 851 363 814 q 289 942 289 888 q 326 1033 289 996 q 417 1069 363 1069 q 508 1033 471 1069 q 544 942 544 996 q 508 851 544 888 q 417 814 471 814 m 417 883 q 458 900 442 883 q 475 942 475 917 q 458 983 475 967 q 417 1000 442 1000 q 375 983 392 1000 q 358 942 358 967 q 375 900 358 917 q 417 883 392 883 z "},"˛":{"ha":833,"x_min":294,"x_max":539,"o":"m 419 -292 q 328 -262 361 -292 q 294 -181 294 -232 q 308 -112 294 -146 q 351 -42 322 -78 l 396 14 l 492 0 l 443 -62 q 409 -117 418 -96 q 400 -156 400 -137 q 411 -187 400 -176 q 442 -197 422 -197 q 476 -192 458 -197 q 506 -178 494 -187 l 539 -256 q 490 -282 522 -272 q 419 -292 458 -292 z "},"˜":{"ha":833,"x_min":197,"x_max":636,"o":"m 500 847 q 451 858 475 847 q 403 889 428 868 q 363 918 376 911 q 331 925 350 925 q 269 838 274 925 l 197 838 q 235 958 199 915 q 331 1000 272 1000 q 385 989 361 1000 q 436 956 410 978 q 474 930 458 938 q 506 922 489 922 q 546 942 532 922 q 564 1014 560 963 l 636 1014 q 596 891 632 935 q 500 847 560 847 z "},"˝":{"ha":833,"x_min":208,"x_max":625,"o":"z "},"̀":{"ha":0,"x_min":306,"x_max":528,"o":"m 306 1014 l 436 1014 l 528 836 l 431 836 l 306 1014 z "},"́":{"ha":0,"x_min":306,"x_max":528,"o":"m 397 1014 l 528 1014 l 403 836 l 306 836 l 397 1014 z "},"̂":{"ha":0,"x_min":222,"x_max":611,"o":"m 351 1015 l 482 1015 l 611 831 l 514 831 l 406 969 l 428 969 l 319 831 l 222 831 l 351 1015 z "},"̃":{"ha":0,"x_min":197,"x_max":636,"o":"m 500 847 q 451 858 475 847 q 403 889 428 868 q 363 918 376 911 q 331 925 350 925 q 269 838 274 925 l 197 838 q 235 958 199 915 q 331 1000 272 1000 q 385 989 361 1000 q 436 956 410 978 q 474 930 458 938 q 506 922 489 922 q 546 942 532 922 q 564 1014 560 963 l 636 1014 q 596 891 632 935 q 500 847 560 847 z "},"̄":{"ha":0,"x_min":231,"x_max":603,"o":"m 231 968 l 603 968 l 603 868 l 231 868 l 231 968 z "},"̆":{"ha":0,"x_min":222,"x_max":611,"o":"m 417 838 q 279 885 332 838 q 222 1015 226 933 l 303 1015 q 338 946 308 968 q 417 924 368 924 q 495 946 465 924 q 531 1015 525 968 l 611 1015 q 554 885 607 933 q 417 838 501 838 z "},"̇":{"ha":0,"x_min":356,"x_max":478,"o":"m 356 988 l 478 988 l 478 851 l 356 851 l 356 988 z "},"̈":{"ha":0,"x_min":222,"x_max":611,"o":"m 222 988 l 344 988 l 344 851 l 222 851 l 222 988 m 489 988 l 611 988 l 611 851 l 489 851 l 489 988 z "},"̊":{"ha":0,"x_min":289,"x_max":544,"o":"m 417 814 q 326 851 363 814 q 289 942 289 888 q 326 1033 289 996 q 417 1069 363 1069 q 508 1033 471 1069 q 544 942 544 996 q 508 851 544 888 q 417 814 471 814 m 417 883 q 458 900 442 883 q 475 942 475 917 q 458 983 475 967 q 417 1000 442 1000 q 375 983 392 1000 q 358 942 358 967 q 375 900 358 917 q 417 883 392 883 z "},"̋":{"ha":0,"x_min":208,"x_max":625,"o":"m 300 1014 l 431 1014 l 306 836 l 208 836 l 300 1014 m 494 1014 l 625 1014 l 500 836 l 403 836 l 494 1014 z "},"̌":{"ha":0,"x_min":222,"x_max":611,"o":"m 319 1014 l 428 875 l 406 875 l 514 1014 l 611 1014 l 482 829 l 351 829 l 222 1014 l 319 1014 z "},"̒":{"ha":0,"x_min":333,"x_max":500,"o":"m 425 949 l 472 949 l 472 824 l 333 824 l 333 943 l 422 1074 l 500 1074 l 425 949 z "},"̦":{"ha":0,"x_min":333,"x_max":500,"o":"m 408 -172 l 361 -172 l 361 -47 l 500 -47 l 500 -167 l 411 -297 l 333 -297 l 408 -172 z "},"̧":{"ha":0,"x_min":268,"x_max":567,"o":"m 431 -306 q 347 -284 383 -306 q 268 -212 311 -262 l 325 -160 q 372 -211 350 -192 q 425 -231 394 -231 q 473 -215 456 -231 q 490 -171 490 -199 q 460 -122 490 -137 q 385 -118 429 -107 l 346 -67 l 419 14 l 479 0 l 432 -51 q 529 -86 492 -51 q 567 -176 567 -121 q 549 -242 567 -212 q 499 -288 531 -271 q 431 -306 468 -306 z "},"̨":{"ha":0,"x_min":294,"x_max":539,"o":"m 419 -292 q 328 -262 361 -292 q 294 -181 294 -232 q 308 -112 294 -146 q 351 -42 322 -78 l 396 14 l 492 0 l 443 -62 q 409 -117 418 -96 q 400 -156 400 -137 q 411 -187 400 -176 q 442 -197 422 -197 q 476 -192 458 -197 q 506 -178 494 -187 l 539 -256 q 490 -282 522 -272 q 419 -292 458 -292 z "},"̵":{"ha":0,"x_min":139,"x_max":694,"o":"m 139 447 l 694 447 l 694 344 l 139 344 l 139 447 z "},"Λ":{"ha":833,"x_min":36,"x_max":797,"o":"m 336 986 l 497 986 l 797 0 l 675 0 l 417 882 l 158 0 l 36 0 l 336 986 z "},"Ω":{"ha":833,"x_min":13,"x_max":821,"o":"m 15 117 l 199 117 q 102 215 144 153 q 36 354 60 278 q 13 506 13 431 q 64 766 13 651 q 207 944 115 881 q 417 1008 299 1008 q 626 944 535 1008 q 769 766 718 881 q 821 506 821 651 q 797 354 821 431 q 731 215 774 278 q 635 117 689 153 l 818 117 l 818 0 l 472 0 l 472 117 q 585 169 533 117 q 666 310 636 221 q 696 506 696 399 q 660 706 696 618 q 561 842 625 793 q 417 892 497 892 q 272 842 336 892 q 173 706 208 793 q 138 506 138 618 q 167 310 138 399 q 249 169 197 221 q 361 117 300 117 l 361 0 l 15 0 l 15 117 z "},"λ":{"ha":833,"x_min":82,"x_max":764,"o":"m 717 0 q 631 13 665 0 q 571 57 596 26 q 525 140 546 88 q 510 186 525 140 l 319 806 q 288 865 307 846 q 233 883 269 883 l 146 883 l 146 986 l 224 986 q 360 944 311 986 q 440 800 408 901 l 631 181 l 636 164 q 666 117 649 132 q 715 103 683 103 l 764 103 l 764 0 l 717 0 m 371 736 l 453 649 l 204 0 l 82 0 l 371 736 z "},"π":{"ha":833,"x_min":22,"x_max":808,"o":"m 763 0 q 602 53 654 0 q 550 203 550 107 l 550 696 l 667 696 l 667 203 q 691 129 667 156 q 761 103 715 103 l 806 103 l 806 0 l 763 0 m 171 692 l 288 692 l 288 0 l 171 0 l 171 692 m 22 736 l 808 736 l 808 633 l 22 633 l 22 736 z "},"Ѐ":{"ha":833,"x_min":125,"x_max":736,"o":"m 275 1265 l 406 1265 l 497 1088 l 400 1088 l 275 1265 z "},"Ё":{"ha":833,"x_min":125,"x_max":736,"o":"m 247 1239 l 369 1239 l 369 1103 l 247 1103 l 247 1239 m 514 1239 l 636 1239 l 636 1103 l 514 1103 l 514 1239 z "},"Ђ":{"ha":833,"x_min":7,"x_max":819,"o":"m 167 986 l 286 986 l 286 476 l 267 436 q 297 547 267 496 q 381 626 328 597 q 496 656 433 656 q 663 615 589 656 q 778 500 736 574 q 819 332 819 426 q 771 156 819 231 q 633 40 722 81 q 422 0 543 0 l 422 117 q 622 174 550 117 q 694 332 694 232 q 640 483 694 428 q 496 539 586 539 q 387 513 435 539 q 313 440 339 486 q 286 335 286 394 l 286 0 l 167 0 l 167 986 m 7 986 l 489 986 l 489 869 l 7 869 l 7 986 z "},"Ѓ":{"ha":833,"x_min":139,"x_max":767,"o":"m 139 986 l 767 986 l 767 869 l 258 869 l 258 0 l 139 0 l 139 986 m 492 1264 l 622 1264 l 497 1086 l 400 1086 l 492 1264 z "},"Є":{"ha":833,"x_min":53,"x_max":771,"o":"m 417 -22 q 219 38 300 -22 q 95 213 138 97 q 53 492 53 328 q 95 773 53 657 q 219 949 138 889 q 417 1008 300 1008 q 653 915 563 1008 q 771 642 743 821 l 643 642 q 564 827 622 763 q 417 892 506 892 q 287 845 340 892 q 206 709 233 799 q 178 492 178 619 q 206 276 178 365 q 287 141 233 188 q 417 94 340 94 q 564 159 506 94 q 644 344 622 224 l 771 344 q 653 72 744 167 q 417 -22 563 -22 m 92 433 l 92 550 l 479 550 l 479 433 l 92 433 z "},"Ѕ":{"ha":833,"x_min":61,"x_max":772,"o":"m 432 -22 q 248 20 329 -22 q 118 139 167 63 q 61 315 69 215 l 186 324 q 228 199 196 250 q 313 121 261 147 q 435 94 365 94 q 551 112 503 94 q 623 163 599 129 q 647 244 647 197 q 625 328 647 294 q 544 393 603 363 q 371 456 485 424 q 203 521 265 486 q 113 605 142 556 q 85 728 85 654 q 124 874 85 810 q 238 973 164 938 q 413 1008 313 1008 q 584 968 511 1008 q 700 857 657 928 q 754 694 743 786 l 629 686 q 594 794 621 747 q 521 866 567 840 q 410 892 475 892 q 264 848 318 892 q 210 733 210 804 q 230 657 210 686 q 299 606 250 628 q 446 556 349 583 q 638 480 568 521 q 740 382 708 439 q 772 242 772 325 q 729 105 772 165 q 609 11 686 44 q 432 -22 532 -22 z "},"І":{"ha":833,"x_min":111,"x_max":722,"o":"m 111 114 l 357 114 l 357 872 l 111 872 l 111 986 l 722 986 l 722 872 l 476 872 l 476 114 l 722 114 l 722 0 l 111 0 l 111 114 z "},"Ї":{"ha":833,"x_min":111,"x_max":722,"o":"m 111 114 l 357 114 l 357 872 l 111 872 l 111 986 l 722 986 l 722 872 l 476 872 l 476 114 l 722 114 l 722 0 l 111 0 l 111 114 m 222 1238 l 344 1238 l 344 1101 l 222 1101 l 222 1238 m 489 1238 l 611 1238 l 611 1101 l 489 1101 l 489 1238 z "},"Ј":{"ha":833,"x_min":56,"x_max":708,"o":"m 382 -22 q 212 20 285 -22 q 99 140 139 63 q 56 319 58 217 l 172 331 q 228 152 176 210 q 382 94 279 94 q 538 154 486 94 q 589 331 589 214 l 589 986 l 708 986 l 708 331 q 620 72 708 167 q 382 -22 532 -22 z "},"Љ":{"ha":833,"x_min":7,"x_max":826,"o":"m 7 117 l 46 117 q 104 144 83 117 q 128 218 125 171 l 164 986 l 507 986 l 507 0 l 388 0 l 388 869 l 276 869 l 249 204 q 199 54 244 108 q 64 0 153 0 l 7 0 l 7 117 m 388 986 l 507 986 l 508 603 l 547 603 q 753 522 681 603 q 826 299 826 442 q 753 78 826 157 q 547 0 681 0 l 388 0 l 388 986 m 535 117 q 652 162 615 117 q 689 299 689 207 q 652 440 689 393 q 535 486 615 486 l 508 486 l 508 117 l 535 117 z "},"Њ":{"ha":833,"x_min":28,"x_max":806,"o":"m 311 986 l 432 986 l 432 603 l 485 603 q 726 524 646 603 q 806 299 806 444 q 726 77 806 154 q 485 0 646 0 l 311 0 l 311 986 m 28 986 l 147 986 l 147 0 l 28 0 l 28 986 m 108 553 l 394 553 l 394 436 l 108 436 l 108 553 m 472 117 q 624 160 581 117 q 668 299 668 204 q 624 441 668 396 q 472 486 581 486 l 432 486 l 432 117 l 472 117 z "},"Ћ":{"ha":833,"x_min":7,"x_max":792,"o":"m 167 986 l 286 986 l 286 476 l 267 436 q 299 547 267 496 q 385 626 331 597 q 506 656 440 656 q 655 617 590 656 q 756 505 719 578 q 792 336 792 432 l 792 0 l 672 0 l 672 336 q 622 482 672 425 q 492 539 571 539 q 385 513 432 539 q 313 440 339 486 q 286 335 286 394 l 286 0 l 167 0 l 167 986 m 7 986 l 489 986 l 489 869 l 7 869 l 7 986 z "},"Ќ":{"ha":833,"x_min":81,"x_max":785,"o":"m 190 493 l 344 493 l 785 0 l 628 0 l 190 493 m 81 986 l 200 986 l 200 0 l 81 0 l 81 986 m 614 986 l 771 986 l 344 493 l 190 493 l 614 986 m 447 1264 l 578 1264 l 453 1086 l 356 1086 l 447 1264 z "},"Ў":{"ha":833,"x_min":72,"x_max":769,"o":"m 196 117 l 281 117 q 326 128 308 117 q 353 168 343 140 l 388 264 l 340 264 l 72 986 l 204 986 l 425 375 l 639 986 l 769 986 l 456 115 q 394 28 435 56 q 292 0 354 0 l 196 0 l 196 117 z "},"Џ":{"ha":833,"x_min":97,"x_max":736,"o":"m 357 44 l 476 44 l 476 -208 l 357 -208 l 357 44 m 217 986 l 217 117 l 617 117 l 617 986 l 736 986 l 736 0 l 97 0 l 97 986 l 217 986 z "},"А":{"ha":833,"x_min":36,"x_max":797,"o":"m 336 986 l 497 986 l 797 0 l 675 0 l 417 878 l 158 0 l 36 0 l 336 986 m 229 389 l 604 389 l 646 275 l 188 275 l 229 389 z "},"Б":{"ha":833,"x_min":111,"x_max":750,"o":"m 111 986 l 726 986 l 726 869 l 111 869 l 111 986 m 231 986 l 231 597 l 411 597 q 590 562 514 597 q 708 459 667 526 q 750 299 750 392 q 708 138 750 206 q 590 35 667 71 q 411 0 514 0 l 111 0 l 111 986 l 231 986 m 231 483 l 231 114 l 397 114 q 569 161 513 114 q 625 299 625 208 q 569 436 625 389 q 397 483 513 483 l 231 483 z "},"В":{"ha":833,"x_min":125,"x_max":772,"o":"m 125 986 l 403 986 q 647 915 563 986 q 731 717 731 844 q 701 607 731 656 q 619 531 672 558 q 500 503 567 503 l 500 511 q 699 447 626 511 q 772 275 772 383 q 683 74 772 147 q 438 0 593 0 l 125 0 l 125 986 m 439 114 q 594 156 540 114 q 647 275 647 199 q 594 400 647 356 q 439 444 540 444 l 244 444 l 244 114 l 439 114 m 408 558 q 557 599 508 558 q 606 714 606 639 q 557 831 606 790 q 408 872 508 872 l 244 872 l 244 558 l 408 558 z "},"Г":{"ha":833,"x_min":139,"x_max":767,"o":"m 139 986 l 767 986 l 767 869 l 258 869 l 258 0 l 139 0 l 139 986 z "},"Д":{"ha":833,"x_min":17,"x_max":806,"o":"m 17 117 l 74 117 q 153 160 125 117 q 192 300 181 204 l 264 986 l 683 986 l 683 117 l 806 117 l 806 -208 l 686 -208 l 686 0 l 136 0 l 136 -208 l 17 -208 l 17 117 m 564 117 l 564 869 l 374 869 l 311 286 q 291 189 304 231 q 256 117 278 147 l 564 117 z "},"Е":{"ha":833,"x_min":125,"x_max":736,"o":"m 125 986 l 725 986 l 725 872 l 244 872 l 244 553 l 708 553 l 708 439 l 244 439 l 244 114 l 736 114 l 736 0 l 125 0 l 125 986 z "},"Ж":{"ha":833,"x_min":10,"x_max":824,"o":"m 242 493 l 371 493 l 139 0 l 10 0 l 242 493 m 357 986 l 476 986 l 476 0 l 357 0 l 357 986 m 463 493 l 592 493 l 824 0 l 694 0 l 463 493 m 681 986 l 810 986 l 592 493 l 463 493 l 681 986 m 24 986 l 153 986 l 371 493 l 242 493 l 24 986 z "},"З":{"ha":833,"x_min":46,"x_max":785,"o":"m 417 -22 q 232 13 315 -22 q 99 111 149 49 q 46 254 50 174 l 169 263 q 245 140 176 186 q 417 94 314 94 q 544 117 489 94 q 631 183 600 140 q 661 281 661 225 q 628 385 661 343 q 542 448 594 428 q 436 467 490 468 l 333 465 l 333 583 l 436 582 q 524 598 481 581 q 597 653 568 615 q 626 751 626 692 q 600 826 626 794 q 526 874 574 857 q 417 892 478 892 q 274 856 332 892 q 207 763 217 821 l 82 771 q 138 893 90 839 q 258 978 185 947 q 417 1008 331 1008 q 588 976 511 1008 q 708 885 664 943 q 751 751 751 826 q 693 600 751 658 q 519 521 635 542 l 521 544 q 664 492 604 529 q 754 398 724 454 q 785 271 785 342 q 737 119 785 186 q 605 15 689 53 q 417 -22 521 -22 z "},"И":{"ha":833,"x_min":97,"x_max":736,"o":"m 617 0 l 617 828 l 264 0 l 97 0 l 97 986 l 217 986 l 217 158 l 569 986 l 736 986 l 736 0 l 617 0 z "},"Й":{"ha":833,"x_min":97,"x_max":736,"o":"m 617 0 l 617 828 l 264 0 l 97 0 l 97 986 l 217 986 l 217 158 l 569 986 l 736 986 l 736 0 l 617 0 m 417 1088 q 279 1135 332 1088 q 222 1265 226 1183 l 303 1265 q 338 1196 308 1218 q 417 1174 368 1174 q 495 1196 465 1174 q 531 1265 525 1218 l 611 1265 q 554 1135 607 1183 q 417 1088 501 1088 z "},"К":{"ha":833,"x_min":81,"x_max":785,"o":"m 190 493 l 344 493 l 785 0 l 628 0 l 190 493 m 81 986 l 200 986 l 200 0 l 81 0 l 81 986 m 614 986 l 771 986 l 344 493 l 190 493 l 614 986 z "},"Л":{"ha":833,"x_min":28,"x_max":760,"o":"m 28 117 l 108 117 q 165 144 144 117 q 190 218 186 171 l 254 986 l 760 986 l 760 0 l 640 0 l 640 869 l 367 869 l 311 204 q 258 53 303 107 q 126 0 214 0 l 28 0 l 28 117 z "},"М":{"ha":833,"x_min":83,"x_max":750,"o":"m 192 875 l 203 875 l 203 0 l 83 0 l 83 986 l 264 986 l 444 175 l 389 175 l 569 986 l 750 986 l 750 0 l 631 0 l 631 875 l 642 875 l 469 111 l 364 111 l 192 875 z "},"Н":{"ha":833,"x_min":94,"x_max":739,"o":"m 94 986 l 214 986 l 214 507 l 153 553 l 681 553 l 619 507 l 619 986 l 739 986 l 739 0 l 619 0 l 619 485 l 681 439 l 153 439 l 214 485 l 214 0 l 94 0 l 94 986 z "},"О":{"ha":833,"x_min":53,"x_max":781,"o":"m 417 -22 q 219 38 300 -22 q 95 213 138 97 q 53 492 53 328 q 95 773 53 657 q 219 949 138 889 q 417 1008 300 1008 q 615 949 533 1008 q 738 773 696 889 q 781 492 781 657 q 738 213 781 328 q 615 38 696 97 q 417 -22 533 -22 m 417 94 q 547 140 493 94 q 628 275 600 186 q 656 492 656 364 q 628 709 656 619 q 547 845 600 799 q 417 892 493 892 q 287 845 340 892 q 206 709 233 799 q 178 492 178 619 q 206 275 178 364 q 287 140 233 186 q 417 94 340 94 z "},"П":{"ha":833,"x_min":97,"x_max":736,"o":"m 97 986 l 736 986 l 736 0 l 617 0 l 617 869 l 217 869 l 217 0 l 97 0 l 97 986 z "},"Р":{"ha":833,"x_min":125,"x_max":764,"o":"m 125 986 l 425 986 q 604 951 528 986 q 722 848 681 915 q 764 688 764 781 q 722 527 764 594 q 604 424 681 460 q 425 389 528 389 l 244 389 l 244 0 l 125 0 l 125 986 m 411 503 q 583 550 526 503 q 639 688 639 597 q 583 825 639 778 q 411 872 526 872 l 244 872 l 244 503 l 411 503 z "},"С":{"ha":833,"x_min":53,"x_max":772,"o":"m 419 -22 q 220 40 303 -22 q 95 218 138 103 q 53 492 53 333 q 95 767 53 651 q 220 946 138 883 q 419 1008 303 1008 q 642 923 550 1008 q 764 685 733 838 l 636 676 q 556 836 613 781 q 419 892 499 892 q 288 845 342 892 q 206 709 233 799 q 178 492 178 619 q 206 276 178 365 q 288 141 233 188 q 419 94 342 94 q 566 156 507 94 q 646 332 625 217 l 772 325 q 651 70 744 163 q 419 -22 558 -22 z "},"Т":{"ha":833,"x_min":56,"x_max":778,"o":"m 357 872 l 56 872 l 56 986 l 778 986 l 778 872 l 476 872 l 476 0 l 357 0 l 357 872 z "},"У":{"ha":833,"x_min":72,"x_max":769,"o":"m 196 117 l 281 117 q 326 128 308 117 q 353 168 343 140 l 388 264 l 340 264 l 72 986 l 204 986 l 425 375 l 639 986 l 769 986 l 456 115 q 394 28 435 56 q 292 0 354 0 l 196 0 l 196 117 z "},"Ф":{"ha":833,"x_min":35,"x_max":799,"o":"m 415 101 q 214 149 300 101 q 81 285 128 197 q 35 493 35 374 q 81 701 35 613 q 214 837 128 789 q 415 885 300 885 q 619 837 532 885 q 752 701 706 789 q 799 493 799 613 q 752 285 799 374 q 619 149 706 197 q 415 101 532 101 m 417 218 q 604 292 535 218 q 674 493 674 365 q 604 694 674 621 q 417 768 535 768 q 229 694 299 768 q 160 493 160 621 q 229 292 160 365 q 417 218 299 218 m 356 986 l 475 986 l 475 0 l 356 0 l 356 986 z "},"Х":{"ha":833,"x_min":69,"x_max":764,"o":"m 342 496 l 75 986 l 214 986 l 418 588 l 622 986 l 758 986 l 492 494 l 764 0 l 625 0 l 415 404 l 206 0 l 69 0 l 342 496 z "},"Ц":{"ha":833,"x_min":83,"x_max":813,"o":"m 203 986 l 203 117 l 603 117 l 603 986 l 722 986 l 722 0 l 83 0 l 83 986 l 203 986 m 693 117 l 813 117 l 813 -208 l 693 -208 l 693 117 m 474 117 l 710 117 l 710 0 l 474 0 l 474 117 z "},"Ч":{"ha":833,"x_min":69,"x_max":736,"o":"m 617 510 l 636 550 q 598 440 636 490 q 495 360 560 389 q 356 331 431 331 q 206 369 271 331 q 106 481 142 408 q 69 650 69 554 l 69 986 l 189 986 l 189 650 q 235 503 189 558 q 356 447 282 447 q 489 474 429 447 q 583 547 549 500 q 617 651 617 593 l 617 986 l 736 986 l 736 0 l 617 0 l 617 510 z "},"Ш":{"ha":833,"x_min":76,"x_max":757,"o":"m 638 986 l 757 986 l 757 0 l 638 0 l 638 986 m 76 117 l 757 117 l 757 0 l 76 0 l 76 117 m 76 986 l 196 986 l 196 0 l 76 0 l 76 986 m 357 986 l 476 986 l 476 0 l 357 0 l 357 986 z "},"Щ":{"ha":833,"x_min":49,"x_max":813,"o":"m 610 986 l 729 986 l 729 0 l 610 0 l 610 986 m 49 117 l 729 117 l 729 0 l 49 0 l 49 117 m 49 986 l 168 986 l 168 0 l 49 0 l 49 986 m 329 986 l 449 986 l 449 0 l 329 0 l 329 986 m 693 117 l 813 117 l 813 -208 l 693 -208 l 693 117 m 578 117 l 813 117 l 813 0 l 578 0 l 578 117 z "},"Ъ":{"ha":833,"x_min":42,"x_max":788,"o":"m 42 986 l 269 986 l 269 869 l 42 869 l 42 986 m 268 986 l 268 597 l 449 597 q 628 562 551 597 q 746 459 704 526 q 788 299 788 392 q 746 138 788 206 q 628 35 704 71 q 449 0 551 0 l 149 0 l 149 986 l 268 986 m 268 483 l 268 114 l 435 114 q 606 161 550 114 q 663 299 663 208 q 606 436 663 389 q 435 483 550 483 l 268 483 z "},"Ы":{"ha":833,"x_min":49,"x_max":785,"o":"m 49 986 l 169 986 l 169 603 l 236 603 q 492 522 400 603 q 585 299 585 442 q 492 79 585 158 q 236 0 400 0 l 49 0 l 49 986 m 236 117 q 404 163 349 117 q 460 299 460 208 q 404 439 460 392 q 236 486 349 486 l 169 486 l 169 117 l 236 117 m 665 986 l 785 986 l 785 0 l 665 0 l 665 986 z "},"Ь":{"ha":833,"x_min":125,"x_max":764,"o":"m 244 986 l 244 597 l 425 597 q 604 562 528 597 q 722 459 681 526 q 764 299 764 392 q 722 138 764 206 q 604 35 681 71 q 425 0 528 0 l 125 0 l 125 986 l 244 986 m 244 483 l 244 114 l 411 114 q 583 161 526 114 q 639 299 639 208 q 583 436 639 389 q 411 483 526 483 l 244 483 z "},"Э":{"ha":833,"x_min":63,"x_max":781,"o":"m 417 -22 q 180 72 271 -22 q 63 344 89 167 l 189 344 q 269 159 211 224 q 417 94 328 94 q 547 141 493 94 q 628 276 600 188 q 656 492 656 365 q 628 709 656 619 q 547 845 600 799 q 417 892 493 892 q 269 827 328 892 q 190 642 211 763 l 63 642 q 181 915 90 821 q 417 1008 271 1008 q 615 949 533 1008 q 738 773 696 889 q 781 492 781 657 q 738 213 781 328 q 615 38 696 97 q 417 -22 533 -22 m 354 550 l 742 550 l 742 433 l 354 433 l 354 550 z "},"Ю":{"ha":833,"x_min":28,"x_max":806,"o":"m 536 -22 q 332 101 396 -22 q 268 492 268 224 q 332 885 268 761 q 536 1008 396 1008 q 741 885 676 1008 q 806 492 806 761 q 741 101 806 224 q 536 -22 676 -22 m 28 986 l 147 986 l 147 0 l 28 0 l 28 986 m 108 551 l 371 551 l 371 435 l 108 435 l 108 551 m 536 94 q 620 134 589 94 q 666 260 651 174 q 681 492 681 347 q 666 724 681 638 q 620 851 651 811 q 536 892 589 892 q 453 852 485 892 q 408 725 422 813 q 394 492 394 638 q 408 260 394 346 q 453 134 422 174 q 536 94 485 94 z "},"Я":{"ha":833,"x_min":64,"x_max":735,"o":"m 615 0 l 615 397 l 438 397 q 421 397 429 397 l 196 0 l 64 0 l 299 415 q 142 513 197 442 q 88 688 88 585 q 129 848 88 781 q 249 951 171 915 q 438 986 328 986 l 735 986 l 735 0 l 615 0 m 615 514 l 615 869 l 438 869 q 271 823 329 869 q 213 690 213 776 q 271 560 213 606 q 438 514 329 514 l 615 514 z "},"а":{"ha":833,"x_min":75,"x_max":764,"o":"m 319 -17 q 194 8 250 -17 q 107 79 139 33 q 75 183 75 125 q 131 329 75 276 q 308 406 186 382 l 556 456 q 514 595 556 549 q 392 642 472 642 q 273 608 317 642 q 213 510 229 575 l 89 519 q 190 690 110 626 q 392 753 269 753 q 599 673 525 753 q 672 453 672 593 l 672 147 q 683 113 672 122 q 717 103 693 103 l 764 103 l 764 0 q 703 -3 742 -3 q 593 33 629 -3 q 556 150 557 69 l 578 150 q 490 31 564 78 q 319 -17 415 -17 m 331 86 q 455 112 404 86 q 531 183 506 138 q 556 292 556 229 l 556 356 l 331 311 q 227 269 257 297 q 197 194 197 242 q 233 115 197 143 q 331 86 268 86 z "},"б":{"ha":833,"x_min":81,"x_max":751,"o":"m 417 -22 q 294 3 350 -22 q 186 85 238 29 q 107 228 133 138 q 81 435 81 318 q 105 657 81 568 q 181 803 129 746 q 321 901 233 861 q 417 966 392 935 q 443 1056 443 997 l 563 1057 q 528 917 563 974 q 410 817 493 861 q 287 744 322 769 q 225 655 251 718 q 201 475 199 592 l 178 478 q 238 583 201 540 q 325 649 275 626 q 438 672 375 672 q 599 628 528 672 q 711 506 671 585 q 751 328 751 428 q 708 143 751 222 q 588 21 664 64 q 417 -22 513 -22 m 417 89 q 526 119 478 89 q 602 204 575 150 q 629 328 629 258 q 603 449 629 396 q 530 531 576 501 q 424 561 483 561 q 313 531 363 561 q 236 449 264 501 q 208 328 208 396 q 233 204 207 258 q 308 119 260 150 q 417 89 356 89 z "},"в":{"ha":833,"x_min":125,"x_max":739,"o":"m 125 736 l 431 736 q 633 681 558 736 q 708 532 708 625 q 653 419 708 461 q 506 378 599 378 l 506 383 q 676 336 613 383 q 739 208 739 289 q 667 56 739 113 q 471 0 594 0 l 125 0 l 125 736 m 471 103 q 575 131 536 103 q 614 208 614 160 q 575 292 614 261 q 471 322 536 322 l 242 322 l 242 103 l 471 103 m 431 425 q 542 454 500 425 q 583 532 583 483 q 542 606 583 579 q 431 633 500 633 l 242 633 l 242 425 l 431 425 z "},"г":{"ha":833,"x_min":207,"x_max":722,"o":"m 207 736 l 722 736 l 722 633 l 267 633 l 324 681 l 324 0 l 207 0 l 207 736 z "},"д":{"ha":833,"x_min":28,"x_max":806,"o":"m 28 103 l 93 103 q 161 135 136 103 q 196 236 186 167 l 263 736 l 686 736 l 686 0 l 569 0 l 569 633 l 368 633 l 310 225 q 242 78 294 125 q 93 32 190 32 l 28 32 l 28 103 m 28 93 l 144 93 l 144 -208 l 28 -208 l 28 93 m 28 103 l 760 103 l 760 0 l 28 0 l 28 103 m 689 103 l 806 103 l 806 -208 l 689 -208 l 689 103 z "},"е":{"ha":833,"x_min":92,"x_max":750,"o":"m 429 -17 q 250 31 326 -17 q 133 165 174 78 q 92 368 92 251 q 133 571 92 483 q 249 706 174 658 q 424 753 324 753 q 594 708 519 753 q 709 575 668 663 q 750 367 750 488 l 750 332 l 214 332 q 276 155 219 215 q 429 94 332 94 q 547 127 500 94 q 613 218 593 160 l 738 208 q 626 45 708 107 q 429 -17 543 -17 m 622 435 q 561 590 614 538 q 424 642 508 642 q 283 589 338 642 q 214 435 228 536 l 622 435 z "},"ж":{"ha":833,"x_min":15,"x_max":818,"o":"m 233 368 l 367 368 l 149 0 l 15 0 l 233 368 m 358 736 l 475 736 l 475 0 l 358 0 l 358 736 m 467 368 l 600 368 l 818 0 l 685 0 l 467 368 m 676 736 l 810 736 l 600 368 l 467 368 l 676 736 m 24 736 l 157 736 l 367 368 l 233 368 l 24 736 z "},"з":{"ha":833,"x_min":111,"x_max":715,"o":"m 414 -17 q 198 43 279 -17 q 111 206 117 103 l 233 211 q 286 126 238 158 q 414 94 335 94 q 544 125 496 94 q 593 207 593 156 q 548 301 593 267 q 428 335 503 336 l 351 333 l 351 444 l 428 443 q 530 470 492 442 q 568 546 568 499 q 526 616 568 590 q 414 642 485 642 q 310 618 350 642 q 264 554 269 594 l 138 561 q 222 701 147 650 q 414 753 297 753 q 616 697 542 753 q 690 546 690 642 q 640 443 690 486 q 501 386 589 400 l 503 404 q 658 333 600 388 q 715 200 715 278 q 634 42 715 100 q 414 -17 553 -17 z "},"и":{"ha":833,"x_min":131,"x_max":704,"o":"m 131 736 l 247 736 l 247 178 l 567 736 l 704 736 l 704 0 l 588 0 l 588 547 l 275 0 l 131 0 l 131 736 z "},"й":{"ha":833,"x_min":131,"x_max":704,"o":"m 131 736 l 247 736 l 247 178 l 567 736 l 704 736 l 704 0 l 588 0 l 588 547 l 275 0 l 131 0 l 131 736 m 418 838 q 281 885 333 838 q 224 1015 228 933 l 304 1015 q 340 946 310 968 q 418 924 369 924 q 497 946 467 924 q 532 1015 526 968 l 613 1015 q 556 885 608 933 q 418 838 503 838 z "},"к":{"ha":833,"x_min":126,"x_max":772,"o":"m 236 368 l 393 368 l 772 0 l 606 0 l 236 368 m 126 736 l 246 736 l 246 0 l 126 0 l 126 736 m 592 736 l 756 736 l 393 368 l 236 368 l 592 736 z "},"л":{"ha":833,"x_min":35,"x_max":736,"o":"m 35 117 l 103 117 q 158 142 138 117 q 183 217 178 168 l 239 736 l 736 736 l 736 0 l 619 0 l 619 633 l 346 633 l 300 204 q 244 51 289 101 q 119 0 200 0 l 35 0 l 35 117 z "},"м":{"ha":833,"x_min":50,"x_max":783,"o":"m 64 736 l 218 736 l 425 143 l 631 736 l 783 736 l 783 0 l 667 0 l 667 479 l 497 0 l 351 0 l 178 486 l 167 0 l 50 0 l 64 736 z "},"н":{"ha":833,"x_min":126,"x_max":707,"o":"m 126 736 l 243 736 l 243 0 l 126 0 l 126 736 m 129 418 l 706 418 l 706 315 l 129 315 l 129 418 m 590 736 l 707 736 l 707 0 l 590 0 l 590 736 z "},"о":{"ha":833,"x_min":81,"x_max":753,"o":"m 417 -17 q 240 31 315 -17 q 122 165 164 78 q 81 368 81 251 q 122 572 81 485 q 240 706 164 658 q 417 753 315 753 q 593 706 517 753 q 711 572 669 658 q 753 368 753 485 q 711 165 753 251 q 593 31 669 78 q 417 -17 517 -17 m 417 94 q 574 167 518 94 q 631 368 631 240 q 574 569 631 496 q 417 642 518 642 q 259 569 315 642 q 203 368 203 497 q 259 167 203 239 q 417 94 315 94 z "},"п":{"ha":833,"x_min":125,"x_max":708,"o":"m 125 736 l 708 736 l 708 0 l 592 0 l 592 633 l 242 633 l 242 0 l 125 0 l 125 736 z "},"р":{"ha":833,"x_min":111,"x_max":764,"o":"m 111 736 l 219 736 l 222 569 l 206 578 q 297 708 232 663 q 447 753 361 753 q 624 701 553 753 q 729 561 694 649 q 764 368 764 474 q 729 175 764 263 q 624 35 694 88 q 447 -17 553 -17 q 341 3 390 -17 q 258 58 292 22 q 211 139 224 93 l 228 158 l 228 -208 l 111 -208 l 111 736 m 436 94 q 587 167 532 94 q 642 368 642 239 q 587 569 642 497 q 436 642 532 642 q 325 610 372 642 q 253 518 278 579 q 228 368 228 457 q 253 218 228 279 q 324 126 278 157 q 436 94 371 94 z "},"с":{"ha":833,"x_min":97,"x_max":750,"o":"m 436 -17 q 258 31 335 -17 q 139 165 181 78 q 97 368 97 253 q 139 571 97 483 q 258 706 181 658 q 436 753 335 753 q 582 723 518 753 q 688 636 646 693 q 744 497 729 579 l 622 489 q 556 601 606 561 q 436 642 507 642 q 277 569 335 642 q 219 368 219 496 q 277 167 219 240 q 436 94 335 94 q 560 138 510 94 q 628 261 611 181 l 750 253 q 642 56 726 129 q 436 -17 558 -17 z "},"т":{"ha":833,"x_min":93,"x_max":742,"o":"m 358 633 l 93 633 l 93 736 l 742 736 l 742 633 l 476 633 l 476 0 l 358 0 l 358 633 z "},"у":{"ha":833,"x_min":75,"x_max":764,"o":"m 192 -106 l 276 -106 q 333 -94 314 -106 q 363 -56 351 -82 l 389 14 l 349 14 l 75 736 l 203 736 l 426 122 l 636 736 l 764 736 l 465 -93 q 403 -181 444 -153 q 288 -208 361 -208 l 192 -208 l 192 -106 z "},"ф":{"ha":833,"x_min":32,"x_max":800,"o":"m 415 35 q 217 78 304 35 q 81 197 129 121 q 32 372 32 274 q 81 547 32 471 q 217 667 129 624 q 415 710 304 710 q 615 667 528 710 q 751 547 703 624 q 800 372 800 471 q 751 197 800 274 q 615 78 703 121 q 415 35 528 35 m 415 151 q 605 211 535 151 q 675 372 675 271 q 605 533 675 474 q 415 593 535 593 q 227 533 297 593 q 157 372 157 474 q 227 211 157 271 q 415 151 297 151 m 358 986 l 476 986 l 476 -208 l 358 -208 l 358 986 z "},"х":{"ha":833,"x_min":75,"x_max":758,"o":"m 346 378 l 89 736 l 225 736 l 418 458 l 607 736 l 746 736 l 490 375 l 758 0 l 622 0 l 418 297 l 214 0 l 75 0 l 346 378 z "},"ц":{"ha":833,"x_min":125,"x_max":811,"o":"m 242 736 l 242 103 l 592 103 l 592 736 l 708 736 l 708 0 l 125 0 l 125 736 l 242 736 m 694 103 l 811 103 l 811 -208 l 694 -208 l 694 103 m 563 103 l 726 103 l 726 0 l 563 0 l 563 103 z "},"ч":{"ha":833,"x_min":96,"x_max":708,"o":"m 592 399 l 608 439 q 577 328 608 379 q 492 249 546 278 q 375 219 439 219 q 172 306 247 219 q 96 539 96 392 l 96 736 l 213 736 l 213 539 q 257 387 213 443 q 375 331 301 331 q 490 356 442 331 q 565 429 539 382 q 592 540 592 476 l 592 736 l 708 736 l 708 0 l 592 0 l 592 399 z "},"ш":{"ha":833,"x_min":78,"x_max":754,"o":"m 78 736 l 194 736 l 194 0 l 78 0 l 78 736 m 78 103 l 754 103 l 754 0 l 78 0 l 78 103 m 357 736 l 475 736 l 475 0 l 357 0 l 357 736 m 638 736 l 754 736 l 754 0 l 638 0 l 638 736 z "},"щ":{"ha":833,"x_min":78,"x_max":819,"o":"m 78 736 l 194 736 l 194 0 l 78 0 l 78 736 m 78 103 l 754 103 l 754 0 l 78 0 l 78 103 m 357 736 l 475 736 l 475 0 l 357 0 l 357 736 m 638 736 l 754 736 l 754 0 l 638 0 l 638 736 m 703 103 l 819 103 l 819 -208 l 703 -208 l 703 103 m 571 103 l 735 103 l 735 0 l 571 0 l 571 103 z "},"ъ":{"ha":833,"x_min":14,"x_max":767,"o":"m 14 736 l 232 736 l 232 633 l 14 633 l 14 736 m 133 736 l 250 736 l 250 465 l 444 465 q 683 405 600 465 q 767 232 767 344 q 683 60 767 121 q 444 0 600 0 l 133 0 l 133 736 m 444 104 q 594 136 544 104 q 644 232 644 168 q 594 330 644 297 q 444 363 544 363 l 250 363 l 250 104 l 444 104 z "},"ы":{"ha":833,"x_min":49,"x_max":785,"o":"m 49 736 l 165 736 l 165 465 l 275 465 q 514 405 431 465 q 597 232 597 344 q 514 60 597 121 q 275 0 431 0 l 49 0 l 49 736 m 275 104 q 425 136 375 104 q 475 232 475 168 q 425 330 475 297 q 275 363 375 363 l 165 363 l 165 104 l 275 104 m 668 736 l 785 736 l 785 0 l 668 0 l 668 736 z "},"ь":{"ha":833,"x_min":113,"x_max":746,"o":"m 113 736 l 229 736 l 229 465 l 424 465 q 663 405 579 465 q 746 232 746 344 q 663 60 746 121 q 424 0 579 0 l 113 0 l 113 736 m 424 104 q 574 136 524 104 q 624 232 624 168 q 574 330 624 297 q 424 363 524 363 l 229 363 l 229 104 l 424 104 z "},"э":{"ha":833,"x_min":86,"x_max":749,"o":"m 411 -17 q 201 55 286 -17 q 88 253 115 126 l 213 253 q 285 136 233 178 q 411 94 336 94 q 569 167 513 94 q 626 368 626 239 q 569 569 626 497 q 411 642 513 642 q 284 599 336 642 q 211 479 232 557 l 86 479 q 200 680 114 607 q 411 753 286 753 q 589 706 513 753 q 707 572 665 658 q 749 368 749 485 q 707 165 749 251 q 589 31 665 78 q 411 -17 513 -17 m 378 419 l 706 419 l 706 317 l 378 317 l 378 419 z "},"ю":{"ha":833,"x_min":28,"x_max":792,"o":"m 508 -17 q 355 28 418 -17 q 259 158 292 72 q 226 368 226 244 q 259 578 226 492 q 355 708 292 664 q 508 753 418 753 q 663 708 599 753 q 759 578 726 664 q 792 368 792 492 q 759 158 792 244 q 663 28 726 72 q 508 -17 599 -17 m 28 736 l 144 736 l 144 0 l 28 0 l 28 736 m 50 419 l 269 419 l 269 317 l 50 317 l 50 419 m 508 94 q 628 166 586 94 q 669 368 669 238 q 628 570 669 499 q 508 642 586 642 q 390 571 432 642 q 349 368 349 500 q 390 165 349 236 q 508 94 432 94 z "},"я":{"ha":833,"x_min":113,"x_max":708,"o":"m 292 306 q 167 389 211 335 q 124 514 124 443 q 200 678 124 621 q 418 736 276 736 l 708 736 l 708 0 l 592 0 l 592 285 l 417 285 l 249 0 l 113 0 l 292 306 m 592 388 l 592 635 l 418 635 q 292 603 336 635 q 249 511 249 571 q 292 419 249 451 q 418 388 336 388 l 592 388 z "},"ѐ":{"ha":833,"x_min":92,"x_max":750,"o":"m 429 -17 q 250 31 326 -17 q 133 165 174 78 q 92 368 92 251 q 133 571 92 483 q 249 706 174 658 q 424 753 324 753 q 594 708 519 753 q 709 575 668 663 q 750 367 750 488 l 750 332 l 214 332 q 276 155 219 215 q 429 94 332 94 q 547 127 500 94 q 613 218 593 160 l 738 208 q 626 45 708 107 q 429 -17 543 -17 m 622 435 q 561 590 614 538 q 424 642 508 642 q 283 589 338 642 q 214 435 228 536 l 622 435 m 258 1011 l 389 1011 l 481 833 l 383 833 l 258 1011 z "},"ё":{"ha":833,"x_min":92,"x_max":750,"o":"m 429 -17 q 250 31 326 -17 q 133 165 174 78 q 92 368 92 251 q 133 571 92 483 q 249 706 174 658 q 424 753 324 753 q 594 708 519 753 q 709 575 668 663 q 750 367 750 488 l 750 332 l 214 332 q 276 155 219 215 q 429 94 332 94 q 547 127 500 94 q 613 218 593 160 l 738 208 q 626 45 708 107 q 429 -17 543 -17 m 622 435 q 561 590 614 538 q 424 642 508 642 q 283 589 338 642 q 214 435 228 536 l 622 435 m 231 985 l 353 985 l 353 849 l 231 849 l 231 985 m 497 985 l 619 985 l 619 849 l 497 849 l 497 985 z "},"ђ":{"ha":833,"x_min":35,"x_max":717,"o":"m 132 986 l 249 986 l 249 574 l 232 594 q 319 713 254 674 q 468 753 383 753 q 649 677 582 753 q 717 474 717 601 l 717 0 l 600 0 l 600 432 q 561 590 600 538 q 443 642 522 642 q 301 587 354 642 q 249 432 249 532 l 249 0 l 132 0 l 132 986 m 460 -106 l 517 -106 q 560 -93 542 -106 q 590 -58 579 -81 q 600 -4 600 -35 l 600 339 l 717 339 l 717 -4 q 669 -154 717 -100 q 531 -208 621 -208 l 460 -208 l 460 -106 m 35 914 l 388 914 l 388 811 l 35 811 l 35 914 z "},"ѓ":{"ha":833,"x_min":207,"x_max":722,"o":"m 207 736 l 722 736 l 722 633 l 267 633 l 324 681 l 324 0 l 207 0 l 207 736 m 504 1014 l 635 1014 l 510 836 l 413 836 l 504 1014 z "},"є":{"ha":833,"x_min":85,"x_max":747,"o":"m 422 -17 q 244 31 321 -17 q 126 165 168 78 q 85 368 85 251 q 126 572 85 485 q 244 706 168 658 q 422 753 321 753 q 633 680 547 753 q 747 479 719 607 l 622 479 q 549 599 601 557 q 422 642 497 642 q 264 569 321 642 q 207 368 207 497 q 264 167 207 239 q 422 94 321 94 q 549 136 497 94 q 621 253 600 178 l 746 253 q 633 55 718 126 q 422 -17 547 -17 m 128 317 l 128 419 l 456 419 l 456 317 l 128 317 z "},"ѕ":{"ha":833,"x_min":111,"x_max":722,"o":"m 431 -17 q 267 16 338 -17 q 157 105 197 49 q 111 232 117 161 l 233 240 q 294 133 244 171 q 431 94 344 94 q 558 119 514 94 q 603 192 603 143 q 588 245 603 225 q 531 280 572 265 q 408 308 490 294 q 242 356 303 326 q 156 426 182 385 q 131 531 131 468 q 163 645 131 594 q 259 724 196 696 q 410 753 322 753 q 560 722 497 753 q 660 637 624 690 q 708 517 697 583 l 586 508 q 527 606 574 569 q 408 642 481 642 q 290 611 331 642 q 250 531 250 581 q 268 472 250 493 q 324 437 286 450 q 433 411 363 424 q 610 365 547 393 q 697 297 672 338 q 722 192 722 256 q 640 40 722 96 q 431 -17 558 -17 z "},"і":{"ha":833,"x_min":111,"x_max":778,"o":"m 407 736 l 524 736 l 524 0 l 407 0 l 407 736 m 111 103 l 778 103 l 778 0 l 111 0 l 111 103 m 125 736 l 524 736 l 524 633 l 125 633 l 125 736 m 396 988 l 518 988 l 518 851 l 396 851 l 396 988 z "},"ї":{"ha":833,"x_min":111,"x_max":778,"o":"m 407 736 l 524 736 l 524 0 l 407 0 l 407 736 m 111 103 l 778 103 l 778 0 l 111 0 l 111 103 m 125 736 l 524 736 l 524 633 l 125 633 l 125 736 m 264 988 l 386 988 l 386 851 l 264 851 l 264 988 m 531 988 l 653 988 l 653 851 l 531 851 l 531 988 z "},"ј":{"ha":833,"x_min":153,"x_max":611,"o":"m 153 -106 l 413 -106 q 472 -76 450 -106 q 494 0 494 -46 l 494 736 l 611 736 l 611 0 q 563 -152 611 -96 q 425 -208 515 -208 l 153 -208 l 153 -106 m 167 736 l 561 736 l 561 633 l 167 633 l 167 736 m 489 988 l 611 988 l 611 851 l 489 851 l 489 988 z "},"љ":{"ha":833,"x_min":7,"x_max":826,"o":"m 7 117 l 19 117 q 74 142 54 117 q 100 217 94 168 l 156 736 l 496 736 l 496 0 l 379 0 l 379 633 l 263 633 l 217 204 q 161 51 206 101 q 36 0 117 0 l 7 0 l 7 117 m 378 736 l 494 736 l 494 465 l 574 465 q 761 405 696 465 q 826 232 826 344 q 761 60 826 121 q 574 0 696 0 l 378 0 l 378 736 m 574 104 q 670 138 636 104 q 704 232 704 171 q 670 328 704 294 q 574 363 636 363 l 494 363 l 494 104 l 574 104 z "},"њ":{"ha":833,"x_min":28,"x_max":813,"o":"m 364 736 l 481 736 l 481 465 l 560 465 q 747 405 682 465 q 813 232 813 344 q 747 60 813 121 q 560 0 682 0 l 364 0 l 364 736 m 28 736 l 144 736 l 144 0 l 28 0 l 28 736 m 31 424 l 436 424 l 436 321 l 31 321 l 31 424 m 560 104 q 656 138 622 104 q 690 232 690 171 q 656 328 690 294 q 560 363 622 363 l 481 363 l 481 104 l 560 104 z "},"ћ":{"ha":833,"x_min":35,"x_max":722,"o":"m 35 914 l 388 914 l 388 811 l 35 811 l 35 914 m 139 986 l 256 986 l 256 574 l 242 576 q 324 709 261 665 q 476 753 386 753 q 658 676 593 753 q 722 474 722 600 l 722 0 l 606 0 l 606 440 q 567 598 606 546 q 451 650 529 650 q 308 594 361 650 q 256 439 256 539 l 256 0 l 139 0 l 139 986 z "},"ќ":{"ha":833,"x_min":126,"x_max":772,"o":"m 236 368 l 393 368 l 772 0 l 606 0 l 236 368 m 126 736 l 246 736 l 246 0 l 126 0 l 126 736 m 592 736 l 756 736 l 393 368 l 236 368 l 592 736 m 457 1014 l 588 1014 l 463 836 l 365 836 l 457 1014 z "},"ѝ":{"ha":833,"x_min":131,"x_max":704,"o":"m 131 736 l 247 736 l 247 178 l 567 736 l 704 736 l 704 0 l 588 0 l 588 547 l 275 0 l 131 0 l 131 736 m 251 1014 l 382 1014 l 474 836 l 376 836 l 251 1014 z "},"ў":{"ha":833,"x_min":75,"x_max":764,"o":"m 192 -106 l 276 -106 q 333 -94 314 -106 q 363 -56 351 -82 l 389 14 l 349 14 l 75 736 l 203 736 l 426 122 l 636 736 l 764 736 l 465 -93 q 403 -181 444 -153 q 288 -208 361 -208 l 192 -208 l 192 -106 z "},"џ":{"ha":833,"x_min":125,"x_max":708,"o":"m 358 40 l 475 40 l 475 -208 l 358 -208 l 358 40 m 242 736 l 242 103 l 592 103 l 592 736 l 708 736 l 708 0 l 125 0 l 125 736 l 242 736 z "},"Ѣ":{"ha":833,"x_min":21,"x_max":797,"o":"m 21 853 l 506 853 l 506 736 l 21 736 l 21 853 m 278 986 l 278 597 l 458 597 q 638 562 561 597 q 756 459 714 526 q 797 299 797 392 q 756 138 797 206 q 638 35 714 71 q 458 0 561 0 l 158 0 l 158 986 l 278 986 m 278 483 l 278 114 l 444 114 q 616 161 560 114 q 672 299 672 208 q 616 436 672 389 q 444 483 560 483 l 278 483 z "},"ѣ":{"ha":833,"x_min":14,"x_max":811,"o":"m 178 986 l 294 986 l 294 493 l 489 493 q 728 429 644 493 q 811 246 811 365 q 728 64 811 128 q 489 0 644 0 l 178 0 l 178 986 m 489 104 q 637 141 585 104 q 689 246 689 178 q 637 353 689 315 q 489 390 585 390 l 294 390 l 294 104 l 489 104 m 14 853 l 457 853 l 457 736 l 14 736 l 14 853 z "},"Ѫ":{"ha":833,"x_min":1,"x_max":832,"o":"m 146 401 q 210 506 171 471 q 297 540 250 540 l 535 540 q 622 506 583 540 q 686 401 661 471 l 832 0 l 704 0 l 582 344 q 549 406 565 389 q 506 424 532 424 l 328 424 q 283 406 301 424 q 250 344 265 389 l 129 0 l 1 0 l 146 401 m 357 540 l 476 540 l 476 0 l 357 0 l 357 540 m 89 869 l 228 869 l 500 426 l 361 426 l 89 869 m 606 869 l 744 869 l 472 426 l 333 426 l 606 869 m 89 986 l 744 986 l 744 869 l 89 869 l 89 986 z "},"ѫ":{"ha":833,"x_min":19,"x_max":814,"o":"m 135 299 q 200 376 154 350 q 300 403 246 403 l 533 403 q 633 376 588 403 q 699 299 679 350 l 814 0 l 681 0 l 596 246 q 563 291 585 279 q 506 303 542 303 l 326 303 q 270 291 292 303 q 238 246 249 279 l 153 0 l 19 0 l 135 299 m 357 403 l 476 403 l 476 0 l 357 0 l 357 403 m 60 633 l 201 633 l 486 331 l 344 331 l 60 633 m 633 633 l 775 633 l 490 331 l 349 331 l 633 633 m 60 736 l 775 736 l 775 633 l 60 633 l 60 736 z "},"Ѳ":{"ha":833,"x_min":53,"x_max":781,"o":"m 132 589 q 189 599 156 596 q 288 596 232 604 q 389 569 343 588 q 519 522 479 535 q 583 506 558 508 q 642 507 608 503 q 681 514 663 510 q 717 525 700 518 l 717 401 q 654 388 689 392 q 564 394 608 383 q 399 449 519 404 q 297 476 350 468 q 203 481 243 485 q 167 475 185 479 q 132 464 149 471 l 132 589 m 417 -22 q 219 38 300 -22 q 95 213 138 97 q 53 492 53 328 q 95 773 53 657 q 219 949 138 889 q 417 1008 300 1008 q 615 949 533 1008 q 738 773 696 889 q 781 492 781 657 q 738 213 781 328 q 615 38 696 97 q 417 -22 533 -22 m 417 94 q 547 140 493 94 q 628 275 600 186 q 656 492 656 364 q 628 709 656 619 q 547 845 600 799 q 417 892 493 892 q 287 845 340 892 q 206 709 233 799 q 178 492 178 619 q 206 275 178 364 q 287 140 233 186 q 417 94 340 94 z "},"ѳ":{"ha":833,"x_min":81,"x_max":753,"o":"m 97 410 q 217 457 154 453 q 301 452 256 460 q 382 428 346 444 q 486 383 451 396 q 540 367 521 369 q 590 365 560 364 q 706 421 650 367 l 710 306 q 601 263 646 263 q 521 272 558 263 q 390 324 483 282 q 309 349 353 342 q 228 356 265 357 q 164 338 194 354 q 103 292 133 322 l 97 410 m 417 -17 q 240 31 315 -17 q 122 165 164 78 q 81 368 81 251 q 122 572 81 485 q 240 706 164 658 q 417 753 315 753 q 593 706 517 753 q 711 572 669 658 q 753 368 753 485 q 711 165 753 251 q 593 31 669 78 q 417 -17 517 -17 m 417 94 q 574 167 518 94 q 631 368 631 240 q 574 569 631 496 q 417 642 518 642 q 259 569 315 642 q 203 368 203 497 q 259 167 203 239 q 417 94 315 94 z "},"Ѵ":{"ha":833,"x_min":19,"x_max":826,"o":"m 19 986 l 146 986 l 424 74 l 358 74 l 579 807 q 653 938 604 890 q 763 986 703 986 l 826 986 l 826 869 l 807 869 q 735 842 761 869 q 686 742 708 814 l 458 0 l 324 0 l 19 986 z "},"ѵ":{"ha":833,"x_min":51,"x_max":806,"o":"m 51 736 l 176 736 l 393 122 l 550 569 q 636 693 578 650 q 774 736 694 736 l 806 736 l 806 633 l 792 633 q 712 608 744 633 q 660 531 679 582 l 467 0 l 319 0 l 51 736 z "},"Ґ":{"ha":833,"x_min":139,"x_max":781,"o":"m 661 1201 l 781 1201 l 781 869 l 661 869 l 661 1201 m 139 986 l 767 986 l 767 869 l 258 869 l 258 0 l 139 0 l 139 986 z "},"ґ":{"ha":833,"x_min":207,"x_max":722,"o":"m 603 951 l 722 951 l 722 633 l 603 633 l 603 951 m 207 736 l 722 736 l 722 633 l 267 633 l 324 681 l 324 0 l 207 0 l 207 736 z "},"Ғ":{"ha":833,"x_min":26,"x_max":767,"o":"m 26 514 l 590 514 l 590 397 l 26 397 l 26 514 m 139 986 l 767 986 l 767 869 l 258 869 l 258 0 l 139 0 l 139 986 z "},"ғ":{"ha":833,"x_min":57,"x_max":722,"o":"m 57 425 l 482 425 l 482 322 l 57 322 l 57 425 m 207 736 l 722 736 l 722 633 l 267 633 l 324 681 l 324 0 l 207 0 l 207 736 z "},"Җ":{"ha":833,"x_min":10,"x_max":819,"o":"m 700 97 l 819 97 l 819 -208 l 700 -208 l 700 97 m 232 493 l 356 493 l 133 0 l 10 0 l 232 493 m 343 986 l 457 986 l 457 0 l 343 0 l 343 986 m 444 493 l 568 493 l 790 0 l 667 0 l 444 493 m 653 986 l 778 986 l 568 493 l 444 493 l 653 986 m 22 986 l 147 986 l 356 493 l 232 493 l 22 986 z "},"җ":{"ha":833,"x_min":15,"x_max":819,"o":"m 703 103 l 819 103 l 819 -208 l 703 -208 l 703 103 m 233 368 l 367 368 l 149 0 l 15 0 l 233 368 m 358 736 l 475 736 l 475 0 l 358 0 l 358 736 m 467 368 l 600 368 l 818 0 l 685 0 l 467 368 m 676 736 l 810 736 l 600 368 l 467 368 l 676 736 m 24 736 l 157 736 l 367 368 l 233 368 l 24 736 z "},"Қ":{"ha":833,"x_min":67,"x_max":799,"o":"m 679 97 l 799 97 l 799 -208 l 679 -208 l 679 97 m 176 493 l 331 493 l 771 0 l 614 0 l 176 493 m 67 986 l 186 986 l 186 0 l 67 0 l 67 986 m 600 986 l 757 986 l 331 493 l 176 493 l 600 986 z "},"қ":{"ha":833,"x_min":125,"x_max":778,"o":"m 661 103 l 778 103 l 778 -208 l 661 -208 l 661 103 m 235 368 l 392 368 l 771 0 l 604 0 l 235 368 m 125 736 l 244 736 l 244 0 l 125 0 l 125 736 m 590 736 l 754 736 l 392 368 l 235 368 l 590 736 z "},"Ң":{"ha":833,"x_min":74,"x_max":813,"o":"m 693 97 l 813 97 l 813 -208 l 693 -208 l 693 97 m 74 986 l 193 986 l 193 507 l 132 553 l 660 553 l 599 507 l 599 986 l 718 986 l 718 0 l 599 0 l 599 485 l 660 439 l 132 439 l 193 485 l 193 0 l 74 0 l 74 986 z "},"ң":{"ha":833,"x_min":126,"x_max":803,"o":"m 686 103 l 803 103 l 803 -208 l 686 -208 l 686 103 m 126 736 l 243 736 l 243 0 l 126 0 l 126 736 m 129 418 l 706 418 l 706 315 l 129 315 l 129 418 m 590 736 l 707 736 l 707 0 l 590 0 l 590 736 z "},"Ү":{"ha":833,"x_min":61,"x_max":772,"o":"m 358 403 l 61 986 l 197 986 l 417 542 l 636 986 l 772 986 l 478 403 l 478 0 l 358 0 l 358 403 z "},"ү":{"ha":833,"x_min":75,"x_max":758,"o":"m 75 736 l 200 736 l 417 140 l 633 736 l 758 736 l 475 0 l 358 0 l 75 736 m 358 65 l 475 65 l 475 -208 l 358 -208 l 358 65 z "},"Ұ":{"ha":833,"x_min":60,"x_max":771,"o":"m 142 435 l 731 435 l 731 318 l 142 318 l 142 435 m 357 403 l 60 986 l 196 986 l 415 542 l 635 986 l 771 986 l 476 403 l 476 0 l 357 0 l 357 403 z "},"ұ":{"ha":833,"x_min":75,"x_max":758,"o":"m 194 51 l 638 51 l 638 -51 l 194 -51 l 194 51 m 75 736 l 200 736 l 417 140 l 633 736 l 758 736 l 475 0 l 358 0 l 75 736 m 358 65 l 475 65 l 475 -208 l 358 -208 l 358 65 z "},"Ҳ":{"ha":833,"x_min":69,"x_max":806,"o":"m 686 97 l 806 97 l 806 -208 l 686 -208 l 686 97 m 342 496 l 75 986 l 214 986 l 418 588 l 622 986 l 758 986 l 492 494 l 764 0 l 625 0 l 415 404 l 206 0 l 69 0 l 342 496 z "},"ҳ":{"ha":833,"x_min":75,"x_max":790,"o":"m 674 103 l 790 103 l 790 -208 l 674 -208 l 674 103 m 346 378 l 89 736 l 225 736 l 418 458 l 607 736 l 746 736 l 490 375 l 758 0 l 622 0 l 418 297 l 214 0 l 75 0 l 346 378 z "},"Ҷ":{"ha":833,"x_min":49,"x_max":813,"o":"m 693 97 l 813 97 l 813 -208 l 693 -208 l 693 97 m 596 510 l 615 550 q 577 440 615 490 q 474 360 539 389 q 335 331 410 331 q 185 369 250 331 q 85 481 121 408 q 49 650 49 554 l 49 986 l 168 986 l 168 650 q 215 503 168 558 q 335 447 261 447 q 468 474 408 447 q 562 547 528 500 q 596 651 596 593 l 596 986 l 715 986 l 715 0 l 596 0 l 596 510 z "},"ҷ":{"ha":833,"x_min":96,"x_max":804,"o":"m 688 103 l 804 103 l 804 -208 l 688 -208 l 688 103 m 592 399 l 608 439 q 577 328 608 379 q 492 249 546 278 q 375 219 439 219 q 172 306 247 219 q 96 539 96 392 l 96 736 l 213 736 l 213 539 q 257 387 213 443 q 375 331 301 331 q 490 356 442 331 q 565 429 539 382 q 592 540 592 476 l 592 736 l 708 736 l 708 0 l 592 0 l 592 399 z "},"Һ":{"ha":833,"x_min":97,"x_max":764,"o":"m 217 476 l 197 436 q 235 547 197 496 q 338 626 274 597 q 478 656 403 656 q 627 617 563 656 q 728 505 692 578 q 764 336 764 432 l 764 0 l 644 0 l 644 336 q 598 483 644 428 q 478 539 551 539 q 344 513 404 539 q 251 440 285 486 q 217 335 217 393 l 217 0 l 97 0 l 97 986 l 217 986 l 217 476 z "},"һ":{"ha":833,"x_min":139,"x_max":722,"o":"m 139 986 l 256 986 l 256 574 l 242 576 q 324 709 261 665 q 476 753 386 753 q 658 676 593 753 q 722 474 722 600 l 722 0 l 606 0 l 606 440 q 567 598 606 546 q 451 650 529 650 q 308 594 361 650 q 256 439 256 539 l 256 0 l 139 0 l 139 986 z "},"Ӏ":{"ha":833,"x_min":111,"x_max":722,"o":"m 111 114 l 357 114 l 357 872 l 111 872 l 111 986 l 722 986 l 722 872 l 476 872 l 476 114 l 722 114 l 722 0 l 111 0 l 111 114 z "},"ӏ":{"ha":833,"x_min":111,"x_max":722,"o":"m 111 114 l 357 114 l 357 872 l 111 872 l 111 986 l 722 986 l 722 872 l 476 872 l 476 114 l 722 114 l 722 0 l 111 0 l 111 114 z "},"Ә":{"ha":833,"x_min":39,"x_max":794,"o":"m 406 -22 q 218 40 300 -22 q 90 215 136 103 q 40 472 43 328 l 39 542 l 668 542 q 626 724 661 644 q 535 847 592 803 q 406 892 478 892 q 274 837 332 892 q 192 696 215 782 l 65 707 q 143 867 93 799 q 260 972 193 935 q 406 1008 328 1008 q 609 943 521 1008 q 746 760 697 878 q 794 493 794 643 q 744 232 794 350 q 604 46 693 114 q 406 -22 515 -22 m 406 94 q 528 133 475 94 q 615 245 581 171 q 667 425 650 319 l 168 425 q 213 245 182 319 q 292 133 243 171 q 406 94 340 94 z "},"ә":{"ha":833,"x_min":83,"x_max":742,"o":"m 404 753 q 583 706 507 753 q 701 572 660 658 q 742 368 742 485 q 701 165 742 253 q 585 31 660 78 q 410 -17 510 -17 q 240 28 314 -17 q 124 161 165 74 q 83 369 83 249 l 83 404 l 619 404 q 558 581 614 521 q 404 642 501 642 q 287 609 333 642 q 221 518 240 576 l 96 528 q 208 691 125 629 q 404 753 290 753 m 211 301 q 272 147 219 199 q 410 94 325 94 q 551 147 496 94 q 619 301 606 200 l 211 301 z "},"Ӣ":{"ha":833,"x_min":97,"x_max":736,"o":"m 617 0 l 617 828 l 264 0 l 97 0 l 97 986 l 217 986 l 217 158 l 569 986 l 736 986 l 736 0 l 617 0 m 229 1218 l 601 1218 l 601 1118 l 229 1118 l 229 1218 z "},"ӣ":{"ha":833,"x_min":131,"x_max":704,"o":"m 131 736 l 247 736 l 247 178 l 567 736 l 704 736 l 704 0 l 588 0 l 588 547 l 275 0 l 131 0 l 131 736 m 231 968 l 603 968 l 603 868 l 231 868 l 231 968 z "},"Ө":{"ha":833,"x_min":53,"x_max":781,"o":"m 74 551 l 732 551 l 732 435 l 74 435 l 74 551 m 417 -22 q 219 38 300 -22 q 95 213 138 97 q 53 492 53 328 q 95 773 53 657 q 219 949 138 889 q 417 1008 300 1008 q 615 949 533 1008 q 738 773 696 889 q 781 492 781 657 q 738 213 781 328 q 615 38 696 97 q 417 -22 533 -22 m 417 94 q 547 140 493 94 q 628 275 600 186 q 656 492 656 364 q 628 709 656 619 q 547 845 600 799 q 417 892 493 892 q 287 845 340 892 q 206 709 233 799 q 178 492 178 619 q 206 275 178 364 q 287 140 233 186 q 417 94 340 94 z "},"ө":{"ha":833,"x_min":81,"x_max":753,"o":"m 133 419 l 671 419 l 671 317 l 133 317 l 133 419 m 417 -17 q 240 31 315 -17 q 122 165 164 78 q 81 368 81 251 q 122 572 81 485 q 240 706 164 658 q 417 753 315 753 q 593 706 517 753 q 711 572 669 658 q 753 368 753 485 q 711 165 753 251 q 593 31 669 78 q 417 -17 517 -17 m 417 94 q 574 167 518 94 q 631 368 631 240 q 574 569 631 496 q 417 642 518 642 q 259 569 315 642 q 203 368 203 497 q 259 167 203 239 q 417 94 315 94 z "},"Ӯ":{"ha":833,"x_min":72,"x_max":769,"o":"m 196 117 l 281 117 q 326 128 308 117 q 353 168 343 140 l 388 264 l 340 264 l 72 986 l 204 986 l 425 375 l 639 986 l 769 986 l 456 115 q 394 28 435 56 q 292 0 354 0 l 196 0 l 196 117 m 235 1218 l 607 1218 l 607 1118 l 235 1118 l 235 1218 z "},"ӯ":{"ha":833,"x_min":75,"x_max":764,"o":"m 192 -106 l 276 -106 q 333 -94 314 -106 q 363 -56 351 -82 l 389 14 l 349 14 l 75 736 l 203 736 l 426 122 l 636 736 l 764 736 l 465 -93 q 403 -181 444 -153 q 288 -208 361 -208 l 192 -208 l 192 -106 m 233 968 l 606 968 l 606 868 l 233 868 l 233 968 z "},"฿":{"ha":833,"x_min":125,"x_max":772,"o":"m 342 1118 l 446 1118 l 446 -126 l 342 -126 l 342 1118 m 125 986 l 403 986 q 647 915 563 986 q 731 717 731 844 q 701 607 731 656 q 619 531 672 558 q 500 503 567 503 l 500 511 q 699 447 626 511 q 772 275 772 383 q 683 74 772 147 q 438 0 593 0 l 125 0 l 125 986 m 439 114 q 594 156 540 114 q 647 275 647 199 q 594 400 647 356 q 439 444 540 444 l 244 444 l 244 114 l 439 114 m 408 558 q 557 599 508 558 q 606 714 606 639 q 557 831 606 790 q 408 872 508 872 l 244 872 l 244 558 l 408 558 z "},"Ḡ":{"ha":833,"x_min":53,"x_max":769,"o":"m 414 -22 q 226 37 308 -22 q 99 211 144 96 q 53 492 53 326 q 97 767 53 650 q 223 946 140 883 q 419 1008 306 1008 q 642 922 551 1008 q 765 692 732 836 l 640 683 q 560 835 615 779 q 419 892 504 892 q 289 845 343 892 q 206 709 235 799 q 178 492 178 619 q 207 276 178 365 q 292 141 236 188 q 425 94 347 94 q 544 132 492 94 q 626 235 596 169 q 658 383 656 301 l 422 383 l 422 497 l 769 497 l 769 0 l 658 0 l 653 233 l 692 219 q 592 41 658 104 q 414 -22 525 -22 m 228 1218 l 600 1218 l 600 1118 l 228 1118 l 228 1218 z "},"ḡ":{"ha":833,"x_min":83,"x_max":736,"o":"m 413 -225 q 270 -199 335 -225 q 163 -124 206 -172 q 104 -11 119 -75 l 226 -3 q 288 -86 244 -58 q 413 -114 331 -114 q 567 -74 514 -114 q 619 47 619 -33 l 619 167 q 534 74 592 108 q 404 39 476 39 q 238 84 311 39 q 124 210 165 129 q 83 396 83 292 q 124 581 83 500 q 235 708 164 663 q 399 753 307 753 q 538 717 476 753 q 625 619 600 681 l 625 736 l 736 736 l 736 50 q 650 -152 736 -79 q 413 -225 564 -225 m 410 150 q 519 180 472 150 q 593 265 567 210 q 619 396 619 321 q 595 526 621 471 q 522 612 569 582 q 410 642 474 642 q 260 576 314 642 q 206 396 206 510 q 260 216 206 282 q 410 150 315 150 m 226 968 l 599 968 l 599 868 l 226 868 l 226 968 z "},"Ẁ":{"ha":833,"x_min":56,"x_max":778,"o":"m 56 986 l 181 986 l 258 69 l 244 69 l 356 875 l 478 875 l 589 69 l 575 69 l 653 986 l 778 986 l 683 0 l 503 0 l 397 778 l 436 778 l 331 0 l 150 0 l 56 986 m 250 1264 l 381 1264 l 472 1086 l 375 1086 l 250 1264 z "},"ẁ":{"ha":833,"x_min":28,"x_max":806,"o":"m 28 736 l 156 736 l 249 122 l 354 633 l 479 633 l 585 122 l 678 736 l 806 736 l 661 0 l 514 0 l 417 458 l 319 0 l 174 0 l 28 736 m 250 1014 l 381 1014 l 472 836 l 375 836 l 250 1014 z "},"Ẃ":{"ha":833,"x_min":56,"x_max":778,"o":"m 56 986 l 181 986 l 258 69 l 244 69 l 356 875 l 478 875 l 589 69 l 575 69 l 653 986 l 778 986 l 683 0 l 503 0 l 397 778 l 436 778 l 331 0 l 150 0 l 56 986 m 456 1264 l 586 1264 l 461 1086 l 364 1086 l 456 1264 z "},"ẃ":{"ha":833,"x_min":28,"x_max":806,"o":"m 28 736 l 156 736 l 249 122 l 354 633 l 479 633 l 585 122 l 678 736 l 806 736 l 661 0 l 514 0 l 417 458 l 319 0 l 174 0 l 28 736 m 456 1014 l 586 1014 l 461 836 l 364 836 l 456 1014 z "},"Ẅ":{"ha":833,"x_min":56,"x_max":778,"o":"m 56 986 l 181 986 l 258 69 l 244 69 l 356 875 l 478 875 l 589 69 l 575 69 l 653 986 l 778 986 l 683 0 l 503 0 l 397 778 l 436 778 l 331 0 l 150 0 l 56 986 m 222 1238 l 344 1238 l 344 1101 l 222 1101 l 222 1238 m 489 1238 l 611 1238 l 611 1101 l 489 1101 l 489 1238 z "},"ẅ":{"ha":833,"x_min":28,"x_max":806,"o":"m 28 736 l 156 736 l 249 122 l 354 633 l 479 633 l 585 122 l 678 736 l 806 736 l 661 0 l 514 0 l 417 458 l 319 0 l 174 0 l 28 736 m 222 988 l 344 988 l 344 851 l 222 851 l 222 988 m 489 988 l 611 988 l 611 851 l 489 851 l 489 988 z "},"ẞ":{"ha":833,"x_min":50,"x_max":799,"o":"m 50 696 q 125 908 50 831 q 328 986 200 986 l 732 986 l 732 858 l 426 589 q 621 556 536 590 q 752 457 706 522 q 799 307 799 392 q 756 147 799 217 q 633 39 713 78 q 449 0 554 0 l 263 0 l 263 117 l 449 117 q 569 140 518 117 q 648 204 621 163 q 675 301 675 246 q 606 441 675 390 q 418 490 538 492 l 276 489 l 276 607 l 575 869 l 328 869 q 210 825 251 869 q 169 696 169 781 l 169 0 l 50 0 l 50 696 z "},"Ẽ":{"ha":833,"x_min":125,"x_max":736,"o":"m 125 986 l 725 986 l 725 872 l 244 872 l 244 553 l 708 553 l 708 439 l 244 439 l 244 114 l 736 114 l 736 0 l 125 0 l 125 986 m 525 1099 q 476 1109 500 1099 q 428 1140 453 1119 q 388 1169 401 1163 q 356 1176 375 1176 q 294 1089 299 1176 l 222 1089 q 260 1209 224 1167 q 356 1251 297 1251 q 410 1240 386 1251 q 461 1207 435 1229 q 499 1181 483 1189 q 531 1174 514 1174 q 571 1194 557 1174 q 589 1265 585 1214 l 661 1265 q 621 1142 657 1186 q 525 1099 585 1099 z "},"ẽ":{"ha":833,"x_min":92,"x_max":750,"o":"m 429 -17 q 250 31 326 -17 q 133 165 174 78 q 92 368 92 251 q 133 571 92 483 q 249 706 174 658 q 424 753 324 753 q 594 708 519 753 q 709 575 668 663 q 750 367 750 488 l 750 332 l 214 332 q 276 155 219 215 q 429 94 332 94 q 547 127 500 94 q 613 218 593 160 l 738 208 q 626 45 708 107 q 429 -17 543 -17 m 622 435 q 561 590 614 538 q 424 642 508 642 q 283 589 338 642 q 214 435 228 536 l 622 435 m 508 844 q 460 855 483 844 q 411 886 436 865 q 372 915 385 908 q 339 922 358 922 q 278 835 282 922 l 206 835 q 244 955 207 913 q 339 997 281 997 q 394 986 369 997 q 444 953 418 975 q 482 927 467 935 q 514 919 497 919 q 554 940 540 919 q 572 1011 568 960 l 644 1011 q 604 888 640 932 q 508 844 568 844 z "},"Ỳ":{"ha":833,"x_min":61,"x_max":772,"o":"m 358 403 l 61 986 l 197 986 l 417 542 l 636 986 l 772 986 l 478 403 l 478 0 l 358 0 l 358 403 m 250 1264 l 381 1264 l 472 1086 l 375 1086 l 250 1264 z "},"ỳ":{"ha":833,"x_min":75,"x_max":764,"o":"m 192 -106 l 276 -106 q 333 -94 314 -106 q 363 -56 351 -82 l 389 14 l 349 14 l 75 736 l 203 736 l 426 122 l 636 736 l 764 736 l 465 -93 q 403 -181 444 -153 q 288 -208 361 -208 l 192 -208 l 192 -106 m 254 1014 l 385 1014 l 476 836 l 379 836 l 254 1014 z "},"Ỹ":{"ha":833,"x_min":61,"x_max":772,"o":"m 358 403 l 61 986 l 197 986 l 417 542 l 636 986 l 772 986 l 478 403 l 478 0 l 358 0 l 358 403 m 500 1097 q 451 1108 475 1097 q 403 1139 428 1118 q 363 1168 376 1161 q 331 1175 350 1175 q 269 1088 274 1175 l 197 1088 q 235 1208 199 1165 q 331 1250 272 1250 q 385 1239 361 1250 q 436 1206 410 1228 q 474 1180 458 1188 q 506 1172 489 1172 q 546 1192 532 1172 q 564 1264 560 1213 l 636 1264 q 596 1141 632 1185 q 500 1097 560 1097 z "},"ỹ":{"ha":833,"x_min":75,"x_max":764,"o":"m 192 -106 l 276 -106 q 333 -94 314 -106 q 363 -56 351 -82 l 389 14 l 349 14 l 75 736 l 203 736 l 426 122 l 636 736 l 764 736 l 465 -93 q 403 -181 444 -153 q 288 -208 361 -208 l 192 -208 l 192 -106 m 504 847 q 456 858 479 847 q 407 889 432 868 q 367 918 381 911 q 335 925 354 925 q 274 838 278 925 l 201 838 q 240 958 203 915 q 335 1000 276 1000 q 390 989 365 1000 q 440 956 414 978 q 478 930 463 938 q 510 922 493 922 q 550 942 536 922 q 568 1014 564 963 l 640 1014 q 600 891 636 935 q 504 847 564 847 z "},"–":{"ha":833,"x_min":139,"x_max":694,"o":"m 139 460 l 694 460 l 694 351 l 139 351 l 139 460 z "},"—":{"ha":833,"x_min":56,"x_max":778,"o":"m 56 460 l 778 460 l 778 351 l 56 351 l 56 460 z "},"‘":{"ha":833,"x_min":324,"x_max":490,"o":"z "},"’":{"ha":833,"x_min":342,"x_max":508,"o":"z "},"‚":{"ha":833,"x_min":342,"x_max":508,"o":"m 417 0 l 342 0 l 342 167 l 508 167 l 508 19 l 421 -217 l 351 -217 l 417 0 z "},"“":{"ha":833,"x_min":217,"x_max":614,"o":"z "},"”":{"ha":833,"x_min":219,"x_max":617,"o":"z "},"„":{"ha":833,"x_min":219,"x_max":617,"o":"m 294 0 l 219 0 l 219 167 l 386 167 l 386 19 l 299 -217 l 229 -217 l 294 0 m 525 0 l 450 0 l 450 167 l 617 167 l 617 19 l 529 -217 l 460 -217 l 525 0 z "},"†":{"ha":833,"x_min":149,"x_max":685,"o":"m 364 986 l 472 986 l 472 0 l 364 0 l 364 986 m 149 736 l 685 736 l 685 633 l 149 633 l 149 736 z "},"‡":{"ha":833,"x_min":149,"x_max":685,"o":"m 363 986 l 471 986 l 471 -208 l 363 -208 l 363 986 m 149 124 l 685 124 l 685 19 l 149 19 l 149 124 m 149 736 l 685 736 l 685 633 l 149 633 l 149 736 z "},"•":{"ha":833,"x_min":271,"x_max":563,"o":"m 417 276 q 314 319 357 276 q 271 421 271 361 q 314 524 271 482 q 417 567 357 567 q 520 524 478 567 q 563 421 563 482 q 519 319 563 361 q 417 276 476 276 z "},"…":{"ha":833,"x_min":76,"x_max":757,"o":"m 76 167 l 243 167 l 243 0 l 76 0 l 76 167 m 332 167 l 499 167 l 499 0 l 332 0 l 332 167 m 590 167 l 757 167 l 757 0 l 590 0 l 590 167 z "},"‰":{"ha":833,"x_min":6,"x_max":829,"o":"m 529 1008 l 651 1008 l 128 -17 l 6 -17 l 529 1008 m 469 0 q 361 62 401 0 q 321 217 321 124 q 361 374 321 311 q 469 436 401 436 q 572 377 535 436 q 608 217 608 318 q 572 58 608 117 q 469 0 535 0 m 476 96 q 524 127 507 96 q 540 217 540 158 q 524 307 540 275 q 476 339 507 339 q 431 308 447 339 q 415 217 415 276 q 431 127 415 158 q 476 96 447 96 m 681 0 q 579 58 615 0 q 543 217 543 117 q 579 377 543 318 q 681 436 615 436 q 789 374 749 436 q 829 217 829 311 q 789 62 829 124 q 681 0 749 0 m 672 96 q 719 128 701 96 q 736 217 736 160 q 719 307 736 275 q 672 339 701 339 q 626 308 642 339 q 611 217 611 276 q 626 127 611 158 q 672 96 642 96 m 174 551 q 60 613 101 551 q 18 769 18 675 q 60 926 18 864 q 174 988 101 988 q 290 926 249 988 q 332 769 332 864 q 290 613 332 674 q 174 551 249 551 m 174 647 q 221 679 204 647 q 238 769 238 711 q 221 859 238 828 q 174 890 204 890 q 128 859 144 890 q 113 769 113 828 q 128 679 113 711 q 174 647 144 647 z "},"′":{"ha":833,"x_min":308,"x_max":525,"o":"m 396 1026 l 525 1026 l 400 568 l 308 568 l 396 1026 z "},"″":{"ha":833,"x_min":197,"x_max":638,"o":"m 285 1026 l 414 1026 l 289 568 l 197 568 l 285 1026 m 508 1026 l 638 1026 l 513 568 l 421 568 l 508 1026 z "},"‹":{"ha":833,"x_min":276,"x_max":610,"o":"m 467 106 l 276 332 l 276 435 l 467 661 l 610 661 l 374 383 l 610 106 l 467 106 z "},"›":{"ha":833,"x_min":224,"x_max":557,"o":"m 460 383 l 224 661 l 367 661 l 557 435 l 557 332 l 367 106 l 224 106 l 460 383 z "},"⁄":{"ha":833,"x_min":18,"x_max":815,"o":"m 699 986 l 815 986 l 135 0 l 18 0 l 699 986 z "},"⁰":{"ha":833,"x_min":207,"x_max":626,"o":"m 417 431 q 263 508 319 431 q 207 718 207 586 q 263 930 207 851 q 417 1008 319 1008 q 570 930 514 1008 q 626 718 626 851 q 570 508 626 586 q 417 431 514 431 m 417 513 q 509 567 476 513 q 542 718 542 621 q 509 872 542 818 q 417 926 476 926 q 324 872 357 926 q 292 718 292 818 q 324 567 292 621 q 417 513 357 513 m 263 547 l 494 917 l 572 896 l 338 521 l 263 547 z "},"⁴":{"ha":833,"x_min":183,"x_max":590,"o":"m 444 554 l 183 554 l 183 624 l 458 988 l 529 988 l 529 633 l 590 633 l 590 554 l 529 554 l 529 449 l 444 449 l 444 554 m 444 633 l 444 836 l 292 633 l 444 633 z "},"⁵":{"ha":833,"x_min":229,"x_max":606,"o":"m 417 425 q 288 468 340 425 q 229 579 235 511 l 317 583 q 353 526 324 549 q 419 504 382 504 q 490 536 461 504 q 518 617 518 568 q 490 697 518 664 q 419 731 461 731 q 367 719 390 731 q 322 674 343 707 l 239 674 l 282 988 l 568 988 l 568 908 l 356 908 l 338 767 q 381 797 358 788 q 432 807 403 807 q 556 752 507 807 q 606 617 606 697 q 581 517 606 561 q 515 449 557 474 q 417 425 472 425 z "},"⁶":{"ha":833,"x_min":229,"x_max":604,"o":"m 418 432 q 313 467 356 432 q 250 560 271 501 q 229 688 229 618 q 251 847 229 775 q 318 964 272 919 q 433 1008 364 1008 q 538 974 492 1008 q 603 878 585 940 l 521 869 q 488 914 511 899 q 433 929 465 929 q 372 906 399 929 q 331 846 346 883 q 310 761 315 808 q 363 805 332 789 q 433 821 394 821 q 520 797 481 821 q 582 728 560 772 q 604 628 604 685 q 551 485 604 539 q 418 432 499 432 m 419 511 q 490 544 464 511 q 517 628 517 576 q 492 710 517 679 q 421 742 467 742 q 351 710 379 742 q 322 628 324 678 q 349 544 321 576 q 419 511 376 511 z "},"⁷":{"ha":833,"x_min":231,"x_max":614,"o":"m 344 447 q 388 688 344 571 q 510 907 431 804 l 231 907 l 231 986 l 614 986 l 614 925 q 478 694 528 814 q 429 447 429 574 l 344 447 z "},"⁸":{"ha":833,"x_min":221,"x_max":613,"o":"m 417 432 q 276 476 332 432 q 221 596 221 521 q 249 686 221 647 q 326 744 276 725 q 267 789 288 761 q 247 857 247 817 q 297 965 247 922 q 417 1008 346 1008 q 538 965 489 1008 q 586 857 586 922 q 566 789 586 817 q 507 744 546 761 q 585 685 557 724 q 613 596 613 646 q 557 476 613 521 q 417 432 501 432 m 417 511 q 495 536 465 511 q 525 601 525 561 q 494 674 525 646 q 417 701 464 701 q 339 674 369 701 q 308 601 308 646 q 338 536 308 561 q 417 511 368 511 m 417 776 q 476 799 453 776 q 499 857 499 821 q 476 909 499 889 q 417 929 453 929 q 358 909 381 929 q 335 857 335 889 q 358 799 335 821 q 417 776 381 776 z "},"⁹":{"ha":833,"x_min":233,"x_max":608,"o":"m 404 432 q 299 466 346 432 q 235 563 253 500 l 317 571 q 349 526 326 542 q 404 511 372 511 q 487 556 454 511 q 529 681 519 601 q 476 635 508 651 q 404 619 444 619 q 317 644 357 619 q 256 712 278 668 q 233 813 233 756 q 286 955 233 901 q 419 1008 339 1008 q 524 974 481 1008 q 588 881 567 939 q 608 753 608 822 q 583 583 608 656 q 513 471 558 510 q 404 432 467 432 m 417 699 q 485 731 457 699 q 515 813 514 764 q 489 897 517 864 q 418 929 461 929 q 347 897 374 929 q 321 813 321 864 q 346 730 321 761 q 417 699 371 699 z "},"₀":{"ha":833,"x_min":207,"x_max":626,"o":"m 417 -21 q 263 57 319 -21 q 207 267 207 135 q 263 478 207 400 q 417 557 319 557 q 570 478 514 557 q 626 267 626 400 q 570 57 626 135 q 417 -21 514 -21 m 417 61 q 509 115 476 61 q 542 267 542 169 q 509 421 542 367 q 417 475 476 475 q 324 421 357 475 q 292 267 292 367 q 324 115 292 169 q 417 61 357 61 m 263 96 l 494 465 l 572 444 l 338 69 l 263 96 z "},"₁":{"ha":833,"x_min":249,"x_max":471,"o":"m 386 356 l 249 354 l 249 415 l 282 415 q 374 447 342 415 q 406 539 406 479 l 471 539 l 471 0 l 386 0 l 386 356 z "},"₂":{"ha":833,"x_min":222,"x_max":589,"o":"m 222 0 q 257 140 222 75 q 386 267 292 204 l 431 296 q 484 346 468 321 q 500 401 500 371 q 476 456 500 435 q 419 478 453 478 q 351 452 376 478 q 315 378 325 426 l 232 382 q 292 510 242 463 q 419 557 343 557 q 539 513 493 557 q 585 401 585 469 q 551 304 585 353 q 454 215 518 256 l 415 190 q 349 134 374 163 q 324 79 325 106 l 589 79 l 589 0 l 222 0 z "},"₃":{"ha":833,"x_min":222,"x_max":607,"o":"m 418 -22 q 283 23 339 -22 q 222 133 226 68 l 307 138 q 342 81 310 104 q 418 57 375 57 q 490 83 461 57 q 519 147 519 110 q 488 217 519 188 q 411 246 457 246 l 376 246 l 376 325 l 411 325 q 475 348 449 325 q 501 399 501 371 q 476 454 501 431 q 417 478 451 478 q 355 460 381 478 q 326 418 329 443 l 242 424 q 301 519 250 481 q 417 557 351 557 q 538 515 489 557 q 586 413 586 474 q 562 338 586 372 q 494 290 538 303 q 575 233 543 275 q 607 142 607 192 q 582 59 607 97 q 513 -1 557 21 q 418 -22 469 -22 z "},"₄":{"ha":833,"x_min":183,"x_max":590,"o":"m 444 106 l 183 106 l 183 175 l 458 539 l 529 539 l 529 185 l 590 185 l 590 106 l 529 106 l 529 0 l 444 0 l 444 106 m 444 185 l 444 388 l 292 185 l 444 185 z "},"₅":{"ha":833,"x_min":229,"x_max":606,"o":"m 417 -22 q 288 21 340 -22 q 229 132 235 64 l 317 136 q 353 79 324 101 q 419 57 382 57 q 490 89 461 57 q 518 169 518 121 q 490 250 518 217 q 419 283 461 283 q 367 272 390 283 q 322 226 343 260 l 239 226 l 282 540 l 568 540 l 568 461 l 356 461 l 338 319 q 381 350 358 340 q 432 360 403 360 q 556 305 507 360 q 606 169 606 250 q 581 70 606 114 q 515 2 557 26 q 417 -22 472 -22 z "},"₆":{"ha":833,"x_min":229,"x_max":604,"o":"m 418 -22 q 313 13 356 -22 q 250 106 271 47 q 229 233 229 164 q 251 393 229 321 q 318 510 272 465 q 433 554 364 554 q 538 520 492 554 q 603 424 585 486 l 521 415 q 488 460 511 444 q 433 475 465 475 q 372 452 399 475 q 331 392 346 429 q 310 307 315 354 q 363 351 332 335 q 433 367 394 367 q 520 342 481 367 q 582 274 560 318 q 604 174 604 231 q 551 31 604 85 q 418 -22 499 -22 m 419 57 q 490 90 464 57 q 517 174 517 122 q 492 256 517 225 q 421 288 467 288 q 351 256 379 288 q 322 174 324 224 q 349 90 321 122 q 419 57 376 57 z "},"₇":{"ha":833,"x_min":231,"x_max":614,"o":"m 344 -1 q 388 239 344 122 q 510 458 431 356 l 231 458 l 231 538 l 614 538 l 614 476 q 478 245 528 365 q 429 -1 429 125 l 344 -1 z "},"₈":{"ha":833,"x_min":221,"x_max":613,"o":"m 417 -22 q 276 22 332 -22 q 221 142 221 67 q 249 232 221 193 q 326 290 276 271 q 267 335 288 307 q 247 403 247 363 q 297 511 247 468 q 417 554 346 554 q 538 511 489 554 q 586 403 586 468 q 566 335 586 363 q 507 290 546 307 q 585 231 557 269 q 613 142 613 192 q 557 22 613 67 q 417 -22 501 -22 m 417 57 q 495 82 465 57 q 525 147 525 107 q 494 219 525 192 q 417 247 464 247 q 339 219 369 247 q 308 147 308 192 q 338 82 308 107 q 417 57 368 57 m 417 322 q 476 344 453 322 q 499 403 499 367 q 476 455 499 435 q 417 475 453 475 q 358 455 381 475 q 335 403 335 435 q 358 344 335 367 q 417 322 381 322 z "},"₉":{"ha":833,"x_min":233,"x_max":608,"o":"m 404 -22 q 299 12 346 -22 q 235 108 253 46 l 317 117 q 349 72 326 88 q 404 57 372 57 q 487 102 454 57 q 529 226 519 147 q 476 181 508 197 q 404 165 444 165 q 317 190 357 165 q 256 258 278 214 q 233 358 233 301 q 286 501 233 447 q 419 554 339 554 q 524 519 481 554 q 588 426 567 485 q 608 299 608 368 q 583 128 608 201 q 513 17 558 56 q 404 -22 467 -22 m 417 244 q 485 277 457 244 q 515 358 514 310 q 489 442 517 410 q 418 475 461 475 q 347 442 374 475 q 321 358 321 410 q 346 276 321 307 q 417 244 371 244 z "},"₪":{"ha":833,"x_min":28,"x_max":804,"o":"m 247 771 l 367 771 l 367 115 l 599 115 q 660 138 638 115 q 683 201 683 161 l 683 986 l 804 986 l 804 208 q 748 56 804 113 q 596 0 692 0 l 247 0 l 247 771 m 28 986 l 378 986 q 528 930 472 986 q 585 778 585 874 l 585 215 l 465 215 l 465 785 q 442 847 465 824 q 381 871 419 871 l 149 871 l 149 0 l 28 0 l 28 986 z "},"€":{"ha":833,"x_min":14,"x_max":786,"o":"m 14 643 l 529 643 l 514 540 l 14 540 l 14 643 m 14 429 l 501 429 l 486 326 l 14 326 l 14 429 m 433 -22 q 234 40 317 -22 q 109 218 151 103 q 67 492 67 333 q 109 767 67 651 q 234 946 151 883 q 433 1008 317 1008 q 656 923 564 1008 q 778 685 747 838 l 650 676 q 569 836 626 781 q 433 892 513 892 q 301 845 356 892 q 219 709 247 799 q 192 492 192 619 q 219 276 192 365 q 301 141 247 188 q 433 94 356 94 q 580 156 521 94 q 660 332 639 217 l 786 325 q 665 70 758 163 q 433 -22 572 -22 z "},"₴":{"ha":833,"x_min":31,"x_max":803,"o":"m 31 643 l 600 643 q 626 683 618 661 q 635 732 635 704 q 609 815 635 778 q 537 872 583 851 q 432 892 490 892 q 308 849 363 892 q 219 729 253 807 l 89 742 q 157 883 110 824 q 270 976 204 943 q 415 1008 336 1008 q 597 974 519 1008 q 717 878 675 940 q 760 732 760 815 q 753 686 760 710 q 733 643 746 663 l 803 643 l 803 540 l 31 540 l 31 643 m 407 -17 q 231 18 308 -17 q 111 115 154 53 q 68 256 68 176 q 85 326 68 296 l 31 326 l 31 429 l 803 429 l 803 326 l 218 326 q 193 256 193 293 q 219 174 193 210 q 293 119 246 139 q 400 100 340 100 q 538 139 476 100 q 628 243 600 178 l 764 232 q 691 100 742 156 q 567 14 640 44 q 407 -17 494 -17 z "},"₹":{"ha":833,"x_min":51,"x_max":779,"o":"m 51 383 l 51 500 l 321 500 q 444 521 394 500 q 519 583 494 542 q 544 688 544 625 q 519 788 544 747 q 444 849 494 829 q 321 869 394 869 l 51 869 l 51 986 l 321 986 q 508 951 429 986 q 628 848 586 915 q 669 688 669 781 q 628 524 669 593 q 508 419 586 456 q 321 383 429 383 l 215 383 l 636 0 l 468 0 l 51 383 m 51 736 l 779 736 l 779 632 l 51 632 l 51 736 m 51 986 l 779 986 l 779 883 l 51 883 l 51 986 z "},"₽":{"ha":833,"x_min":46,"x_max":792,"o":"m 46 272 l 396 272 l 396 169 l 46 169 l 46 272 m 153 986 l 453 986 q 632 951 556 986 q 750 848 708 915 q 792 688 792 781 q 750 527 792 594 q 632 424 708 460 q 453 389 556 389 l 272 389 l 272 0 l 153 0 l 153 986 m 439 503 q 610 550 554 503 q 667 688 667 597 q 610 825 667 778 q 439 872 554 872 l 272 872 l 272 503 l 439 503 z "},"ℇ":{"ha":833,"x_min":71,"x_max":781,"o":"m 426 -22 q 241 15 322 -22 q 115 119 160 53 q 71 271 71 186 q 100 398 71 342 q 187 492 129 454 q 328 544 244 529 l 329 521 q 160 599 217 542 q 104 751 104 657 q 145 885 104 826 q 259 976 186 943 q 426 1008 332 1008 q 608 971 518 1008 q 749 875 697 933 l 671 779 q 558 864 626 831 q 426 897 489 897 q 320 879 365 897 q 251 828 275 861 q 226 751 226 796 q 256 652 226 692 q 331 594 285 613 q 426 578 376 576 l 501 579 l 501 469 l 426 471 q 303 449 357 472 q 222 382 250 425 q 193 281 193 339 q 222 181 193 224 q 304 113 251 138 q 426 89 357 89 q 578 126 499 89 q 706 221 657 163 l 781 122 q 628 18 726 58 q 426 -22 529 -22 z "},"№":{"ha":833,"x_min":7,"x_max":828,"o":"m 7 986 l 167 986 l 335 304 l 335 986 l 451 986 l 451 0 l 297 0 l 124 694 l 124 0 l 7 0 l 7 986 m 517 108 l 806 108 l 806 0 l 517 0 l 517 108 m 661 196 q 576 226 614 196 q 516 310 538 256 q 494 436 494 364 q 516 563 494 508 q 576 646 538 617 q 661 675 614 675 q 747 646 708 675 q 806 563 785 617 q 828 436 828 508 q 806 310 828 364 q 747 226 785 256 q 661 196 708 196 m 661 301 q 706 338 689 301 q 724 436 724 375 q 706 533 724 497 q 661 569 689 569 q 617 533 635 569 q 600 436 600 496 q 617 338 600 375 q 661 301 635 301 z "},"℗":{"ha":833,"x_min":67,"x_max":767,"o":"m 417 306 q 241 353 321 306 q 114 481 161 400 q 67 658 67 563 q 114 833 67 753 q 241 961 161 914 q 417 1008 321 1008 q 592 961 513 1008 q 719 833 672 914 q 767 658 767 753 q 719 481 767 563 q 592 353 672 400 q 417 306 513 306 m 417 385 q 553 422 490 385 q 652 522 615 458 q 689 658 689 585 q 652 794 689 732 q 553 892 615 856 q 417 929 490 929 q 281 892 343 929 q 181 794 218 856 q 144 658 144 732 q 181 522 144 585 q 281 422 218 458 q 417 385 343 385 m 299 846 l 425 846 q 540 814 497 846 q 583 728 583 782 q 543 642 583 672 q 428 613 503 613 l 369 613 l 369 465 l 299 465 l 299 846 m 436 672 q 493 688 472 672 q 514 731 514 703 q 493 771 514 757 q 436 785 472 785 l 369 785 l 369 672 l 436 672 z "},"™":{"ha":833,"x_min":24,"x_max":801,"o":"m 378 986 l 464 986 l 610 540 l 565 540 l 714 986 l 800 986 l 635 499 l 542 499 l 378 986 m 138 985 l 219 985 l 219 499 l 138 499 l 138 985 m 24 986 l 335 986 l 335 908 l 24 908 l 24 986 m 375 986 l 457 986 l 457 499 l 375 499 l 375 986 m 719 986 l 801 986 l 801 499 l 719 499 l 719 986 z "},"⅓":{"ha":833,"x_min":56,"x_max":801,"o":"m 664 986 l 772 986 l 579 631 l 471 631 l 664 986 m 249 354 l 357 354 l 164 0 l 56 0 l 249 354 m 613 -22 q 477 23 533 -22 q 417 133 421 68 l 501 138 q 537 81 504 104 q 613 57 569 57 q 685 83 656 57 q 714 147 714 110 q 683 217 714 188 q 606 246 651 246 l 571 246 l 571 325 l 606 325 q 669 348 643 325 q 696 399 696 371 q 671 454 696 431 q 611 478 646 478 q 549 460 575 478 q 521 418 524 443 l 436 424 q 495 519 444 481 q 611 557 546 557 q 732 515 683 557 q 781 413 781 474 q 756 338 781 372 q 689 290 732 303 q 769 233 738 275 q 801 142 801 192 q 776 59 801 97 q 708 -1 751 21 q 613 -22 664 -22 m 208 804 l 71 803 l 71 864 l 104 864 q 196 896 164 864 q 228 988 228 928 l 293 988 l 293 449 l 208 449 l 208 804 z "},"⅔":{"ha":833,"x_min":28,"x_max":807,"o":"m 664 986 l 772 986 l 579 631 l 471 631 l 664 986 m 249 354 l 357 354 l 164 0 l 56 0 l 249 354 m 618 -22 q 483 23 539 -22 q 422 133 426 68 l 507 138 q 542 81 510 104 q 618 57 575 57 q 690 83 661 57 q 719 147 719 110 q 688 217 719 188 q 611 246 657 246 l 576 246 l 576 325 l 611 325 q 675 348 649 325 q 701 399 701 371 q 676 454 701 431 q 617 478 651 478 q 555 460 581 478 q 526 418 529 443 l 442 424 q 501 519 450 481 q 617 557 551 557 q 738 515 689 557 q 786 413 786 474 q 762 338 786 372 q 694 290 738 303 q 775 233 743 275 q 807 142 807 192 q 782 59 807 97 q 713 -1 757 21 q 618 -22 669 -22 m 28 451 q 63 591 28 526 q 192 718 97 656 l 236 747 q 290 797 274 772 q 306 853 306 822 q 282 908 306 886 q 225 929 258 929 q 156 903 182 929 q 121 829 131 878 l 38 833 q 98 961 47 914 q 225 1008 149 1008 q 344 965 299 1008 q 390 853 390 921 q 357 756 390 804 q 260 667 324 707 l 221 642 q 155 585 179 614 q 129 531 131 557 l 394 531 l 394 451 l 28 451 z "},"⅕":{"ha":833,"x_min":56,"x_max":779,"o":"m 664 986 l 772 986 l 579 631 l 471 631 l 664 986 m 249 354 l 357 354 l 164 0 l 56 0 l 249 354 m 590 -22 q 461 21 514 -22 q 403 132 408 64 l 490 136 q 526 79 497 101 q 593 57 556 57 q 663 89 635 57 q 692 169 692 121 q 663 250 692 217 q 593 283 635 283 q 540 272 564 283 q 496 226 517 260 l 413 226 l 456 540 l 742 540 l 742 461 l 529 461 l 511 319 q 554 350 532 340 q 606 360 576 360 q 730 305 681 360 q 779 169 779 250 q 755 70 779 114 q 688 2 731 26 q 590 -22 646 -22 m 208 804 l 71 803 l 71 864 l 104 864 q 196 896 164 864 q 228 988 228 928 l 293 988 l 293 449 l 208 449 l 208 804 z "},"⅛":{"ha":833,"x_min":56,"x_max":793,"o":"m 664 986 l 772 986 l 579 631 l 471 631 l 664 986 m 249 354 l 357 354 l 164 0 l 56 0 l 249 354 m 597 -22 q 457 22 513 -22 q 401 142 401 67 q 429 232 401 193 q 507 290 457 271 q 448 335 468 307 q 428 403 428 363 q 477 511 428 468 q 597 554 526 554 q 718 511 669 554 q 767 403 767 468 q 747 335 767 363 q 688 290 726 307 q 765 231 738 269 q 793 142 793 192 q 738 22 793 67 q 597 -22 682 -22 m 597 57 q 676 82 646 57 q 706 147 706 107 q 675 219 706 192 q 597 247 644 247 q 519 219 550 247 q 489 147 489 192 q 519 82 489 107 q 597 57 549 57 m 597 322 q 656 344 633 322 q 679 403 679 367 q 656 455 679 435 q 597 475 633 475 q 538 455 561 475 q 515 403 515 435 q 538 344 515 367 q 597 322 561 322 m 208 804 l 71 803 l 71 864 l 104 864 q 196 896 164 864 q 228 988 228 928 l 293 988 l 293 449 l 208 449 l 208 804 z "}}}
